# Blender 4.4.3
# www.blender.org
mtllib elmo.mtl
o 47
v 0.006453 0.102301 0.012219
v 0.005357 0.097257 0.027110
v 0.003450 0.093797 0.024093
v 0.008824 0.105937 0.013291
v 0.009873 0.110822 0.012517
v 0.010355 0.096568 0.028325
v -0.004695 0.090551 0.038883
v -0.003938 0.093354 0.041211
v -0.011011 0.097850 0.019921
v -0.004685 0.096601 0.038210
v -0.011938 0.101122 0.023033
v -0.011568 0.103565 0.005804
v -0.015102 0.095691 0.019537
v -0.004164 0.094206 0.036035
v -0.007753 0.090572 0.039481
v -0.011011 0.107712 0.007900
v 0.007425 0.090469 0.022555
v -0.001902 0.085921 0.041409
v 0.012103 0.108647 0.007907
v 0.011231 0.103866 0.006083
v 0.011804 0.093262 0.025314
v -0.001189 0.087188 0.045911
v -0.001244 0.091446 0.046483
v -0.009774 0.111830 0.001141
v -0.016946 0.101260 0.024402
v -0.018926 0.098003 0.021571
v -0.008196 0.096883 0.043048
v -0.010047 0.113086 0.007103
v -0.009123 0.091948 0.043188
v -0.009899 0.106281 0.000162
v -0.004649 0.089585 0.055880
v -0.006581 0.087407 0.040430
v -0.000675 0.087356 0.053545
v -0.001492 0.087643 0.051429
v -0.001639 0.085728 0.050212
v -0.018337 0.091353 0.046653
v -0.016911 0.084045 0.046027
v -0.015494 0.087634 0.046952
v -0.016207 0.083499 0.044435
v -0.020056 0.086387 0.051968
v -0.015960 0.088947 0.040631
v -0.020021 0.082234 0.048729
v -0.013105 0.086930 0.040211
v -0.015782 0.088041 0.049029
v -0.018093 0.083475 0.050739
v -0.008290 0.088155 0.057002
v -0.005520 0.088849 0.053671
v -0.009656 0.093135 0.060066
v -0.005918 0.088604 0.054373
v -0.007520 0.088641 0.050895
v -0.004573 0.083786 0.041766
v -0.009154 0.088373 0.051799
v -0.010362 0.088241 0.049937
v -0.012376 0.086719 0.046404
v -0.009354 0.087397 0.049015
v -0.015151 0.093334 0.055029
v -0.018608 0.092694 0.050493
v -0.013907 0.087194 0.048034
v 0.003257 0.093854 0.045753
v 0.003648 0.102753 0.047601
v 0.004590 0.095928 0.044699
v 0.010313 0.097464 0.049675
v 0.009662 0.100749 0.051276
v 0.001576 0.100143 0.052660
v 0.001227 0.091270 0.048042
v 0.003421 0.094687 0.045373
v 0.005595 0.098641 0.047048
v 0.004020 0.095690 0.047182
v -0.002088 0.095694 0.054631
v 0.001896 0.091821 0.049317
v -0.000479 0.089868 0.049135
v -0.001518 0.088300 0.047610
v 0.003844 0.100001 0.041177
v 0.005430 0.096189 0.040233
v 0.002695 0.092014 0.052142
v 0.003543 0.096937 0.049569
v -0.013338 0.086752 0.054259
v -0.021530 0.084225 0.050425
v -0.014373 0.084638 0.048029
v -0.013647 0.084934 0.046155
v 0.004446 0.095152 0.047446
v 0.004966 0.097487 0.046466
v 0.012897 0.098626 0.047904
v 0.012018 0.100541 0.049377
vn -0.9107 -0.0271 -0.4121
vn -0.5961 0.7940 0.1192
vn -0.9735 0.0101 -0.2285
vn -0.4395 0.4499 0.7774
vn 0.6898 0.4885 0.5345
vn 0.5207 0.3713 0.7688
vn -0.5580 0.8011 0.2166
vn -0.9152 -0.1720 0.3645
vn -0.9205 -0.2389 -0.3093
vn -0.8072 0.4843 0.3374
vn -0.1141 0.9900 0.0825
vn -0.7110 -0.0311 -0.7025
vn 0.5527 0.8248 0.1194
vn 0.4578 0.7920 -0.4038
vn 0.9710 -0.1400 -0.1938
vn -0.7029 0.1243 -0.7003
vn 0.9384 -0.2449 -0.2439
vn -0.0846 -0.9235 -0.3741
vn 0.9906 0.1086 0.0835
vn 0.7441 -0.3414 -0.5743
vn -0.0465 -0.8625 -0.5040
vn 0.5396 -0.6627 -0.5193
vn 0.5396 0.5056 0.6733
vn 0.7799 0.2341 0.5804
vn -0.8901 -0.1703 -0.4227
vn -0.0289 -0.8840 -0.4665
vn -0.6583 -0.2376 -0.7143
vn 0.4206 -0.8806 -0.2185
vn -0.7043 -0.2876 -0.6491
vn -0.0310 -0.8737 -0.4855
vn 0.5455 -0.7683 0.3349
vn 0.8273 -0.3590 0.4321
vn 0.9091 -0.4163 0.0131
vn -0.2418 -0.7312 -0.6378
vn 0.6096 0.4859 0.6263
vn 0.6182 -0.6709 0.4095
vn 0.5500 0.2292 0.8031
vn -0.9680 -0.2468 -0.0448
vn -0.5677 0.7279 0.3846
vn -0.9986 -0.0252 0.0470
vn -0.5413 0.7812 0.3111
vn 0.5673 0.7990 0.1993
vn -0.9553 0.0468 -0.2920
vn 0.7450 -0.3161 0.5874
vn -0.0401 -0.9191 -0.3920
vn -0.9233 -0.3760 0.0787
vn -0.6780 -0.7342 0.0340
vn -0.3279 -0.8004 -0.5018
vn -0.9623 -0.2522 0.1014
vn -0.0390 -0.8981 -0.4380
vn 0.8952 -0.4383 0.0811
vn -0.8452 -0.4841 0.2264
vn -0.7620 -0.6247 -0.1708
vn -0.6639 -0.4138 0.6229
vn 0.4505 -0.1345 0.8826
vn 0.0491 -0.1277 -0.9906
vn -0.8468 0.3364 -0.4121
vn -0.1538 0.6168 -0.7719
vn -0.5989 0.7381 0.3106
vn -0.4195 0.8511 0.3158
vn 0.4298 0.7901 -0.4371
vn 0.2772 0.1356 -0.9512
vn 0.3212 -0.2756 -0.9060
vn -0.1824 0.6636 -0.7255
vn 0.8807 -0.4120 -0.2337
vn 0.6120 0.7227 -0.3212
vn 0.7570 -0.2940 0.5835
vn -0.8534 0.5051 -0.1284
vn -0.5059 0.3558 -0.7857
vn -0.8615 0.4644 -0.2054
vn 0.4982 -0.8255 0.2651
vn 0.6947 -0.6616 0.2823
vn 0.5310 -0.8284 0.1782
vn 0.5439 -0.8353 0.0800
vn 0.2389 -0.7576 0.6074
vn 0.2433 -0.9693 -0.0358
vn 0.4181 -0.6625 0.6216
vn 0.8174 0.3588 0.4507
vn -0.4928 0.1228 -0.8615
vn 0.9170 0.3545 0.1828
vn 0.1719 -0.9487 -0.2654
vn 0.7923 0.4952 0.3564
vn -0.4077 -0.7652 -0.4982
vn -0.2434 -0.8867 -0.3931
vn -0.3415 -0.6167 -0.7093
vn 0.1334 0.7744 0.6185
vn -0.4364 0.7214 -0.5377
vn -0.5761 0.6454 0.5016
vn 0.4858 -0.8636 -0.1350
vn 0.3092 -0.9061 0.2889
vn 0.0966 -0.7084 0.6992
vn -0.4152 -0.6434 0.6431
vn -0.6325 -0.7151 -0.2977
vn -0.7540 0.6561 -0.0320
vn 0.8812 0.3738 -0.2893
vn 0.2415 0.3071 -0.9205
vn 0.6218 0.7749 0.1136
vn -0.4083 -0.7563 0.5111
vn -0.5751 -0.6363 0.5142
vn -0.0466 -0.9695 0.2405
vn -0.4233 -0.6719 0.6077
vn -0.7902 0.4618 -0.4029
vn -0.3053 0.9363 0.1735
vn -0.2646 0.7148 -0.6473
vn 0.5320 -0.0586 0.8447
vn 0.1677 -0.9840 0.0608
vn 0.9845 -0.1027 -0.1421
vn 0.9329 0.0805 0.3511
vn 0.8634 -0.1316 0.4871
vn 0.2251 -0.4232 0.8776
vn -0.3925 0.1578 0.9061
vn -0.0705 -0.7918 0.6067
vn 0.8800 0.0136 0.4748
vn 0.8794 -0.2465 0.4073
vn 0.6686 -0.2233 0.7093
vn 0.5259 -0.6081 0.5946
vn -0.2354 -0.9443 0.2299
vn -0.8465 0.5321 -0.0147
vn -0.8681 0.4240 0.2582
vn -0.8060 0.5620 0.1859
vn 0.7030 -0.2838 0.6521
vn 0.0194 -0.6122 0.7904
vn 0.7344 -0.6742 0.0777
vn 0.8057 0.1062 0.5828
vn -0.7907 0.5891 0.1669
vn -0.9030 0.3258 0.2801
vn -0.9757 -0.1935 0.1024
vn -0.4495 0.7114 0.5402
vn 0.9979 0.0170 0.0630
vn 0.9618 0.1369 0.2371
vn 0.8659 -0.4963 -0.0633
vn 0.0847 0.9907 0.1060
vn 0.1663 0.7000 -0.6945
vn -0.5870 0.7866 0.1917
vn -0.7824 -0.3777 0.4952
vn -0.5219 0.6512 -0.5509
vn -0.8942 -0.4099 -0.1798
vn -0.3013 0.5865 0.7518
vn -0.3393 0.7386 0.5825
vn -0.6299 0.7534 0.1888
vn -0.7866 -0.3939 0.4754
vn -0.5841 0.2532 0.7712
vn -0.7054 0.6737 0.2204
vn 0.1435 -0.9631 0.2275
vn -0.1533 -0.9421 0.2981
vn 0.3834 -0.8750 -0.2957
vn -0.1863 0.8700 0.4566
vn 0.7531 -0.2231 -0.6190
vn 0.7354 -0.4143 -0.5362
vn 0.6684 -0.4823 -0.5663
vn 0.2952 -0.8994 0.3222
vn 0.1160 -0.9866 -0.1147
vn 0.5386 -0.8038 -0.2525
vn -0.3402 -0.9141 -0.2206
vn -0.3193 -0.8387 -0.4412
vn -0.2738 -0.7154 -0.6428
vn 0.4432 -0.6346 -0.6332
vn -0.5014 -0.1351 -0.8546
vn -0.4747 0.7811 -0.4057
vn 0.7712 -0.6153 0.1635
vn 0.0018 0.9287 0.3708
vn -0.0184 0.9736 0.2277
vn 0.1243 0.9355 -0.3308
vn -0.2491 0.9679 0.0350
vn -0.2631 0.9493 0.1718
vn 0.1566 0.9507 -0.2677
vn -0.3089 -0.2339 -0.9219
vn -0.7074 -0.0347 -0.7060
vn -0.1658 -0.5732 -0.8025
vn -0.9394 -0.2909 -0.1815
vn -0.8335 -0.5106 -0.2113
vn -0.3434 0.0075 -0.9391
vn 0.0001 0.9946 0.1035
vn 0.6405 0.7566 0.1317
vn 0.2533 0.9430 -0.2159
vn 0.3947 0.3485 -0.8501
vn 0.4855 0.8476 0.2142
vn 0.1644 0.9189 -0.3586
vn 0.0003 0.9999 -0.0171
vn 0.9889 0.1333 0.0653
vn 0.9440 -0.2958 -0.1462
vn 0.9487 -0.2201 -0.2271
vn -0.0014 0.5803 0.8144
vn 0.0941 0.9913 0.0916
vn -0.5008 0.8404 0.2069
vn 0.1732 0.9599 -0.2204
vn 0.2155 -0.9081 0.3590
vn -0.5457 -0.5119 0.6635
vn -0.0418 -0.8521 0.5218
vn -0.0970 0.1304 -0.9867
vn -0.8113 0.5228 -0.2616
vn 0.0660 0.8250 -0.5612
vn -0.2676 -0.7187 -0.6418
vn -0.5913 -0.3008 -0.7482
vn 0.1670 -0.9279 -0.3333
vn -0.9233 0.0262 -0.3833
vn -0.7415 -0.5319 -0.4090
vn -0.9695 -0.2140 -0.1193
vn 0.4720 0.0988 0.8761
vn -0.7218 -0.6295 0.2876
vn 0.3048 -0.6526 0.6936
vn -0.9086 0.0186 -0.4174
vn -0.7146 0.6897 0.1170
vn 0.0131 0.8567 -0.5157
vn -0.4858 0.7787 -0.3969
vn 0.0975 -0.9893 0.1082
vn -0.9726 0.0282 -0.2308
vn -0.8336 0.4828 -0.2684
vn -0.8891 0.2107 -0.4064
vn -0.6296 0.4207 0.6532
vn -0.9077 0.2158 -0.3600
vn -0.7584 0.1960 0.6216
vn -0.9373 -0.2768 -0.2119
vn -0.6588 -0.1041 -0.7451
vn -0.8991 0.0265 -0.4370
vn -0.3546 -0.6196 -0.7003
vn -0.8745 -0.1941 -0.4445
vn -0.6595 -0.0677 -0.7487
vn 0.5383 -0.5473 -0.6409
vn -0.7222 -0.6167 -0.3133
vn 0.6262 -0.5052 0.5939
vn 0.4160 0.4380 -0.7969
vn 0.5337 0.5991 -0.5969
vn 0.3688 0.7885 -0.4922
vn 0.3380 0.9008 -0.2726
vn 0.5793 -0.3129 0.7527
vn 0.5607 -0.0777 -0.8243
vn 0.2188 0.9615 0.1664
vn -0.8596 0.3900 0.3301
vn -0.7552 -0.5426 0.3678
vn -0.6977 -0.3033 0.6490
vn -0.8764 0.4789 0.0505
vn -0.9165 0.3860 0.1048
vn -0.6916 0.6892 -0.2161
vn -0.7586 0.6366 0.1391
vn -0.5126 -0.7851 -0.3476
vn -0.3122 0.7143 -0.6264
vn -0.2759 -0.7199 -0.6369
vn -0.3838 -0.2043 -0.9005
vn -0.7551 -0.0037 -0.6556
vn 0.1374 0.8846 -0.4456
vn -0.0394 0.6560 0.7537
vn 0.8952 -0.3403 0.2877
vn 0.4866 0.8367 0.2514
vn 0.7436 -0.5171 0.4239
vn 0.9673 -0.1265 0.2196
vn -0.4173 -0.8313 -0.3671
vn -0.6481 -0.6926 -0.3165
vn -0.7283 0.1848 -0.6599
vn -0.2399 0.5674 -0.7878
vn 0.7637 -0.5658 0.3110
vn 0.5357 0.8421 0.0629
vn 0.8124 -0.0497 0.5809
vn 0.9662 -0.1532 0.2072
vn -0.4179 -0.2372 0.8770
vn 0.7404 -0.2740 0.6138
vn -0.1055 -0.6749 -0.7304
vn 0.4184 -0.8617 0.2870
vn 0.6919 -0.2780 0.6664
vn 0.3912 0.7597 0.5194
vn 0.0528 -0.8807 0.4708
vn -0.1640 -0.9474 0.2749
vn -0.2696 -0.8454 0.4612
vn -0.9148 -0.0222 0.4033
vn 0.5193 -0.6486 -0.5564
vn -0.3184 -0.8172 -0.4804
vn -0.1920 -0.8781 -0.4383
vn -0.6993 0.6119 -0.3694
vn 0.8489 0.1546 -0.5055
vn 0.3937 0.3533 -0.8486
vn 0.8011 0.5350 -0.2683
vn 0.3735 -0.8981 -0.2322
vn -0.8459 -0.2876 0.4492
vn -0.3772 -0.8644 0.3325
vn -0.8711 -0.0363 0.4897
vn -0.7226 0.6683 0.1770
vn -0.8915 0.4500 0.0515
vn -0.0225 -0.6893 0.7241
vn 0.4678 -0.7304 0.4977
vn -0.7570 -0.3242 0.5673
vn -0.2967 0.9536 0.0518
vn -0.7341 0.5791 -0.3545
vn -0.5997 0.6721 -0.4343
vn 0.8163 0.5121 -0.2673
vn 0.0441 0.4288 -0.9023
vt 0.798340 0.049316
vt 0.798340 0.568848
vt 0.622070 0.000488
vt 0.599609 0.499023
vt 0.798340 0.932617
vt 0.586914 0.999023
vt 0.970703 0.571289
vt 0.958984 0.175781
vt 0.201172 0.568848
vt 0.028809 0.571289
vt 0.201172 0.049316
vt 0.201172 0.092285
vt 0.377441 0.000488
vt 0.040527 0.175781
vt 0.024902 0.282715
vt 0.399902 0.499023
vt 0.798340 0.092285
vt 0.974609 0.282715
vt 0.594238 0.041016
vt 0.585938 0.663086
vt 0.798340 0.638184
vt 0.999023 0.961914
vt 0.999023 0.639160
vt 0.201172 0.638184
vt 0.201172 0.932617
vt 0.413574 0.663086
vt 0.000488 0.961914
vt 0.412598 0.999023
vt 0.000488 0.639160
vt 0.405273 0.041016
vt 0.192871 0.140625
vt 0.575195 0.120117
vt 0.236816 0.554199
vt 0.650879 0.580566
vt 0.899902 0.868652
vt 0.999023 0.818848
vt 0.000488 0.148926
vt 0.468750 0.502441
vt 0.855957 0.074219
vt 0.483887 0.808105
vt 0.909180 0.177734
vt 0.154297 0.999023
vt 0.044434 0.766602
vt 0.255371 0.671387
vt 0.568848 0.541016
vt 0.229004 0.666992
vt 0.468750 0.704102
vt 0.453125 0.963867
vt 0.561523 0.473145
vt 0.000488 0.374512
vt 0.539551 0.906738
vt 0.426270 0.762695
vt 0.110840 0.099609
vt 0.401855 0.348633
vt 0.846680 0.806641
vt 0.161621 0.000488
vt 0.099609 0.008789
vt 0.113281 0.140625
vt 0.000488 0.028320
vt 0.866699 0.424316
vt 0.762695 0.000488
vt 0.015137 0.159668
vt 0.175781 0.290527
vt 0.175293 0.457031
vt 0.081055 0.290527
vt 0.862305 0.252441
vt 0.862305 0.474121
vt 0.065430 0.457031
vt 0.845215 0.999023
vt 0.691406 0.177734
vt 0.715820 0.808105
vt 0.564941 0.237793
vt 0.939453 0.594238
vt 0.963867 0.541016
vt 0.904297 0.353027
vt 0.474609 0.862305
vt 0.434570 0.175293
vt 0.270996 0.175781
vt 0.709473 0.502441
vt 0.438477 0.065430
vt 0.256348 0.862305
vt 0.010742 0.762695
vt 0.000488 0.099609
vt 0.273926 0.081055
vt 0.127441 0.113281
vt 0.148926 0.015137
vt 0.283691 0.497559
vt 0.287109 0.268555
vt 0.699707 0.148926
vt 0.022461 0.000488
vt 0.743164 0.603027
vt 0.524902 0.612793
vt 0.988770 0.554199
vt 0.687500 0.241211
vt 0.709473 0.481934
vt 0.413086 0.000488
vt 0.476563 0.563477
vt 0.254395 0.635742
vt 0.643555 0.252441
vt 0.132813 0.109375
vt 0.144043 0.120117
vt 0.389160 0.474121
vt 0.845215 0.269043
vt 0.515625 0.711914
vt 0.597656 0.040039
vt 0.388672 0.252441
vt 0.426270 0.000488
vt 0.574219 0.666992
vt 0.328125 0.694336
vt 0.469238 0.374512
vt 0.550781 0.999023
vt 0.674805 0.963867
vt 0.232910 0.415039
vt 0.578613 0.252441
vt 0.918457 0.290527
vt 0.529297 0.473145
vt 0.934082 0.457031
vt 0.650879 0.040039
vt 0.999023 0.028320
vt 0.892578 0.577637
vt 0.497070 0.704102
vt 0.106934 0.577637
vt 0.237793 0.585449
vt 0.074219 0.707031
vt 0.984375 0.159668
vt 0.177734 0.712402
vt 0.575195 0.109375
vt 0.405273 0.156738
vt 0.808105 0.711914
vt 0.479492 0.448730
vt 0.539551 0.353027
vt 0.561035 0.106934
vt 0.453125 0.324707
vt 0.290039 0.502441
vt 0.310059 0.074219
vt 0.522949 0.470215
vt 0.689453 0.074219
vt 0.561035 0.065430
vt 0.745117 0.420898
vt 0.438477 0.106934
vt 0.047852 0.580566
vt 0.405273 0.049805
vt 0.966309 0.478027
vt 0.904297 0.561523
vt 0.312012 0.425293
vt 0.287109 0.671387
vt 0.033203 0.324707
vt 0.549316 0.766602
vt 0.000488 0.448730
vt 0.448730 0.505859
vt 0.541016 0.593750
vt 0.324707 0.478027
vt 0.586426 0.530273
vt 0.671387 0.268555
vt 0.808105 0.497559
vt 0.177734 0.921387
vt 0.502441 0.481934
vt 0.353027 0.561523
vt 0.725586 0.081055
vt 0.850586 0.015137
vt 0.951660 0.348633
vt 0.355957 0.420898
vt 0.388672 0.862305
vt 0.053223 0.081055
vt 0.000488 0.175781
vt 0.541016 0.968750
vt 0.502441 0.704102
vt 0.744141 0.694336
vt 0.955078 0.415039
vt 0.610840 0.862305
vt 0.643555 0.420898
vt 0.935547 0.113281
vt 0.353027 0.906738
vt 0.061035 0.237793
vt 0.130371 0.106934
vt 0.389160 0.862305
vt 0.883789 0.015137
vt 0.999023 0.175293
vt 0.610352 0.862305
vt 0.937500 0.065430
vt 0.437988 0.470215
vt 0.925293 0.707031
vt 0.561523 0.470215
vt 0.065430 0.937500
vt 0.470215 0.563477
vt 0.175293 0.999023
vt 0.862305 0.612793
vt 0.855469 0.424316
vt 0.804688 0.594238
vt 0.766602 0.045898
vt 0.999023 0.148926
vt 0.137207 0.612793
vt 0.529297 0.563477
vt 0.761719 0.944336
vt 0.892578 0.875488
vt 0.420898 0.635742
vt 0.862305 0.603027
vt 0.015137 0.870605
vt 0.977051 0.000488
vt 0.113281 0.921387
vt 0.918457 0.938965
vt 0.823730 0.991699
vt 0.578613 0.635742
vt 0.074219 0.868164
vt 0.137207 0.603027
s 1
usemtl material_46mat
f 3/1/1 2/2/2 1/3/3
f 4/4/4 1/3/3 2/2/2
f 6/5/5 5/6/6 2/2/7
f 4/4/8 2/2/9 5/6/10
f 8/7/11 2/2/7 7/8/12
f 2/2/7 8/7/11 6/5/5
f 11/9/13 10/10/14 9/11/15
f 3/1/1 7/8/16 2/2/2
f 9/11/17 13/12/18 12/13/19
f 14/14/20 9/11/15 10/10/14
f 13/12/18 9/11/17 15/15/21
f 14/14/22 15/15/21 9/11/17
f 11/9/13 9/11/15 16/16/23
f 12/13/19 16/16/24 9/11/17
f 3/1/25 17/17/26 7/8/27
f 18/18/28 7/8/29 17/17/30
f 20/19/31 19/20/32 17/17/30
f 21/21/33 17/17/30 19/20/32
f 17/17/30 21/21/33 18/18/28
f 17/17/26 3/1/25 20/19/34
f 23/22/35 22/23/36 6/5/5
f 21/21/33 6/5/5 22/23/36
f 23/22/35 6/5/5 8/7/11
f 6/5/5 21/21/33 5/6/6
f 19/20/32 5/6/37 21/21/33
f 22/23/36 18/18/28 21/21/33
f 26/24/38 25/25/39 24/26/40
f 25/25/39 27/27/41 11/9/42
f 25/25/39 26/24/38 27/27/41
f 28/28/43 24/26/40 25/25/39
f 28/28/43 25/25/39 16/16/44
f 11/9/42 16/16/44 25/25/39
f 26/24/38 13/12/45 29/29/46
f 29/29/46 27/27/41 26/24/38
f 13/12/45 26/24/38 30/30/47
f 15/15/48 29/29/46 13/12/45
f 24/26/40 30/30/49 26/24/38
f 1/3/3 20/19/50 3/1/1
f 30/30/51 12/13/19 13/12/18
f 29/31/52 32/32/53 31/33/54
f 33/34/55 31/33/54 32/32/53
f 35/35/56 31/33/57 34/36/58
f 31/33/54 27/37/59 29/31/52
f 10/10/14 11/9/13 27/27/60
f 33/34/55 34/36/61 31/33/54
f 38/38/62 37/39/63 36/40/64
f 39/41/65 36/40/66 37/39/67
f 23/42/35 8/43/11 36/40/68
f 36/40/68 41/44/69 40/45/70
f 43/46/71 38/47/72 42/48/73
f 44/49/74 38/47/75 7/50/76
f 45/51/77 42/48/73 38/47/72
f 48/52/78 47/53/79 46/54/80
f 38/47/72 43/46/71 7/50/81
f 48/52/78 46/54/80 22/55/82
f 49/56/83 46/54/84 47/53/85
f 47/57/86 50/58/87 49/59/88
f 51/60/89 22/55/36 46/54/90
f 47/57/91 48/61/92 50/58/93
f 52/62/94 49/59/88 50/58/87
f 55/63/95 54/64/96 53/65/97
f 56/66/98 50/58/93 48/61/92
f 57/67/99 54/64/100 56/66/101
f 58/68/102 53/65/103 54/64/104
f 23/69/35 48/52/105 22/55/36
f 55/63/106 56/66/101 54/64/100
f 61/70/107 60/71/108 59/72/109
f 22/55/36 51/60/89 18/73/28
f 63/74/110 60/71/111 62/75/112
f 64/76/113 59/72/109 60/71/108
f 66/77/114 64/76/115 65/78/116
f 67/79/117 62/75/112 60/71/111
f 66/77/118 65/78/119 68/80/120
f 69/81/121 65/78/116 64/76/115
f 31/82/122 35/83/123 69/81/124
f 70/84/125 68/80/120 65/78/119
f 72/85/126 35/83/127 71/86/128
f 72/85/129 69/81/130 35/83/131
f 60/87/132 73/88/133 27/89/134
f 34/90/135 71/86/136 35/83/137
f 69/91/138 64/92/139 27/89/140
f 31/93/141 69/91/142 27/89/143
f 74/94/144 67/95/145 14/96/146
f 27/89/134 64/92/147 60/87/132
f 76/97/148 75/98/149 14/96/150
f 67/95/151 76/97/152 14/96/153
f 77/99/154 44/49/155 51/100/156
f 32/101/157 14/96/150 75/98/149
f 7/50/158 51/100/156 44/49/155
f 57/102/159 23/103/35 36/104/68
f 77/99/154 51/100/156 46/105/160
f 56/106/161 48/107/162 23/103/163
f 57/102/164 56/106/165 23/103/166
f 43/108/167 41/109/168 7/110/169
f 41/109/168 43/108/167 78/111/170
f 42/112/171 78/111/170 43/108/167
f 8/113/11 7/110/172 41/109/69
f 77/114/173 53/115/174 44/116/175
f 58/117/176 44/116/175 53/115/174
f 46/118/177 49/119/178 77/114/179
f 44/116/180 79/120/181 38/121/182
f 79/122/183 80/123/184 37/124/185
f 52/125/186 77/114/179 49/119/178
f 80/123/187 57/67/188 39/126/189
f 39/126/190 37/124/191 80/123/192
f 51/127/193 7/110/194 18/128/195
f 36/129/196 39/126/197 57/67/198
f 40/45/199 78/130/200 45/131/201
f 78/130/202 40/45/70 41/44/69
f 59/72/203 81/132/204 61/70/205
f 42/133/206 45/131/201 78/130/200
f 67/134/207 82/135/208 76/136/209
f 82/137/210 61/70/211 81/132/212
f 76/136/213 68/138/214 75/139/215
f 81/140/216 76/136/217 82/135/218
f 32/101/157 75/98/149 33/141/219
f 32/32/53 29/31/52 15/142/220
f 83/143/221 62/144/112 74/94/144
f 67/95/145 74/94/144 62/144/112
f 74/145/222 73/146/133 83/147/223
f 73/146/133 74/145/222 10/148/224
f 84/149/225 83/147/223 73/146/133
f 84/150/226 63/151/110 83/152/221
f 14/153/227 10/148/224 74/145/222
f 73/154/133 60/155/132 84/150/225
f 63/151/228 84/150/225 60/155/132
f 60/155/229 61/156/230 67/157/231
f 62/158/112 83/152/221 63/151/110
f 70/159/125 75/139/232 68/138/120
f 75/139/233 71/160/234 33/161/235
f 77/162/236 56/163/237 53/164/238
f 55/165/239 53/164/240 56/163/241
f 36/129/242 40/166/199 38/167/243
f 41/168/69 36/104/68 8/169/11
f 56/170/244 77/171/245 50/172/246
f 45/173/201 38/167/243 40/166/199
f 80/174/247 79/175/248 57/176/249
f 52/177/250 50/172/246 77/171/245
f 54/178/251 57/179/252 58/180/253
f 44/181/254 57/176/255 79/175/256
f 37/182/257 38/121/182 79/120/181
f 44/183/258 58/180/259 57/179/260
f 68/184/261 76/185/262 66/186/263
f 64/187/264 66/186/263 76/185/262
f 14/153/265 32/188/266 15/189/267
f 10/190/224 27/191/134 73/154/133
f 64/192/268 76/193/269 59/194/270
f 81/195/204 59/194/203 76/193/271
f 75/196/272 69/197/273 71/198/274
f 34/199/275 33/161/276 71/160/277
f 72/200/278 71/198/279 69/197/280
f 70/201/125 65/202/119 75/203/281
f 82/204/282 67/157/231 61/156/230
f 69/205/283 75/203/284 65/202/285
o 49
v -0.001278 0.151919 0.025173
v -0.006215 0.147295 0.026634
v -0.011119 0.146538 0.026076
v 0.010731 0.145956 0.025330
v 0.006762 0.147031 0.026997
v 0.002428 0.153899 0.013432
v 0.001959 0.151832 0.025062
v 0.000141 0.152838 0.018511
v 0.014606 0.146892 0.019391
v 0.007205 0.152802 0.011737
v 0.012064 0.150418 0.013427
v -0.012213 0.151064 0.014256
v -0.015309 0.150025 0.019362
v -0.014556 0.147587 0.019580
v -0.006551 0.153168 0.012207
v -0.001618 0.154006 0.013570
v 0.026023 0.131014 0.009978
v 0.018679 0.125546 0.023583
v 0.020855 0.131012 0.024832
v 0.006756 0.120354 0.031372
v 0.008233 0.132248 0.034133
v -0.009108 0.121106 0.031137
v -0.007951 0.132679 0.034686
v -0.021254 0.132051 0.025463
v -0.020030 0.126559 0.024054
v -0.026576 0.132414 0.011774
v 0.003397 0.133183 0.034217
v 0.009186 0.143181 0.029739
v -0.003886 0.133377 0.034466
v -0.009457 0.143596 0.029570
v 0.020449 0.008218 0.017465
v 0.024309 -0.000430 0.018276
v 0.040145 0.003429 0.003454
v 0.037372 0.012534 0.003174
v 0.023318 0.016361 0.016063
v 0.032841 0.018803 0.007226
v -0.040939 0.008137 0.008829
v -0.039351 0.016606 0.014122
v -0.031618 0.010562 0.010581
v 0.015158 0.000106 0.012901
v -0.047805 0.019506 -0.009211
v -0.046289 0.031465 0.003951
v -0.046469 0.028076 -0.004719
v -0.042010 0.025113 0.014229
v 0.006453 0.102301 0.012219
v 0.008824 0.105937 0.013291
v 0.009873 0.110822 0.012517
v -0.011568 0.103565 0.005804
v -0.011011 0.107712 0.007900
v 0.012103 0.108647 0.007907
v 0.011231 0.103866 0.006083
v -0.009774 0.111830 0.001141
v -0.010047 0.113086 0.007103
v -0.009899 0.106281 0.000162
v 0.007713 0.114287 0.011845
v 0.002291 0.112251 0.017627
v -0.002376 0.101840 0.015650
v 0.014270 0.088158 -0.010084
v -0.010444 0.074223 -0.019981
v 0.015834 0.075807 -0.016878
v -0.006789 0.090029 -0.015718
v -0.008105 0.115078 0.008677
v -0.005599 0.112613 0.016002
v -0.000160 0.154283 0.008600
v 0.010810 0.149223 0.001374
v 0.004188 0.148990 -0.002432
v -0.004714 0.149227 -0.002128
v -0.011039 0.149805 0.002120
v 0.003481 0.007548 0.001406
v 0.008259 0.011705 0.011195
v 0.001042 0.017654 -0.002314
v 0.014142 0.024102 0.008955
v 0.008130 0.030433 0.002870
v -0.031051 0.035762 0.016503
v -0.021774 0.042235 0.015541
v -0.026131 0.020537 0.016812
v -0.013441 0.030154 0.012571
v -0.016001 0.020168 0.010420
v 0.011020 0.044051 0.016834
v 0.019990 0.024607 0.008297
v 0.017360 0.046091 0.016955
v 0.010143 0.042948 0.010898
v 0.002358 0.061441 0.008648
v 0.019761 0.045449 0.011108
v 0.014152 0.063610 0.001092
v 0.010061 0.064500 0.007220
v 0.012493 0.015851 -0.017234
v 0.005991 0.024260 -0.011650
v 0.002524 0.012469 -0.009547
v 0.016049 0.033351 -0.003623
v 0.016660 0.022627 -0.015458
v 0.006863 0.139070 -0.011307
v 0.023849 0.140827 0.009885
v 0.018490 0.139578 -0.003640
v 0.007360 0.129137 -0.012770
v 0.006919 0.122327 -0.008906
v 0.020664 0.129765 -0.003548
v -0.008392 0.122731 -0.008773
v -0.009633 0.129592 -0.012189
v 0.019439 0.142172 0.022132
v 0.018313 0.122498 -0.001022
v 0.023350 0.123196 0.013221
v -0.008512 0.139479 -0.010782
v -0.020470 0.123349 -0.000677
v -0.022255 0.130826 -0.002889
v -0.020354 0.140613 -0.002314
v -0.023926 0.142017 0.010711
v -0.029728 0.060714 0.014449
v -0.012931 0.070032 0.004117
v -0.028187 0.063260 0.020125
v -0.033473 0.042771 0.007096
v -0.023134 0.059508 0.022909
v -0.036310 0.036572 0.013112
v -0.018754 0.120246 0.022259
v -0.024302 0.124282 0.012977
v -0.014014 0.035127 -0.006258
v -0.013014 0.040484 0.004336
v -0.019902 0.041791 -0.004695
v -0.010414 0.028470 0.004355
v -0.025425 0.045087 0.006517
v -0.002152 0.067382 0.013039
v -0.007355 0.065189 0.009427
v -0.001773 0.063752 0.005017
v -0.016158 0.067538 -0.001283
v -0.008648 0.117940 0.028490
v 0.005563 0.117239 0.029012
v -0.003896 0.118215 0.003914
v 0.005564 0.117820 0.005677
v 0.001539 0.059600 0.001698
v -0.006477 0.061033 0.002322
v 0.022091 0.028687 0.000689
v 0.009728 0.108483 0.000265
v 0.015228 0.088009 0.013457
v 0.030225 0.018120 -0.007831
v 0.035404 0.005741 -0.003913
v 0.015107 0.044027 0.007454
v 0.022699 0.013071 -0.015783
v 0.010949 0.060905 -0.003080
v 0.016574 0.119386 0.023680
v 0.020177 0.072133 0.008999
v -0.019404 0.143206 0.023458
v -0.021000 0.056143 0.019119
v -0.035206 0.036546 -0.007397
v -0.019864 0.091297 0.004685
v -0.004702 0.109790 -0.003386
v -0.014107 0.062968 -0.003011
v -0.008704 0.060406 -0.012714
v -0.022551 0.074382 0.000727
v -0.024620 0.056810 0.013514
v -0.024276 0.033324 -0.011158
v -0.040585 0.024652 -0.011283
v 0.009752 0.061811 -0.014340
v -0.003753 0.068040 0.019358
v -0.004850 0.085568 0.021020
vn 0.4389 0.8085 -0.3921
vn 0.0776 0.9691 -0.2340
vn 0.7174 0.4496 -0.5322
vn 0.1077 0.7881 -0.6060
vn 0.2151 0.4959 -0.8413
vn -0.1762 0.8990 -0.4010
vn 0.6863 0.7131 0.1432
vn 0.0775 0.9691 -0.2340
vn 0.3898 0.8249 -0.4094
vn -0.2285 0.9611 0.1551
vn -0.3501 0.8197 -0.4533
vn -0.2518 0.7652 -0.5925
vn 0.1600 0.9228 -0.3506
vn -0.1856 0.7959 -0.5764
vn -0.4109 0.8623 -0.2958
vn -0.6488 0.0874 0.7559
vn -0.6574 -0.7495 -0.0780
vn -0.4779 -0.8433 0.2457
vn -0.5813 -0.2401 0.7774
vn -0.2909 -0.0080 0.9567
vn -0.6329 0.0936 0.7686
vn -0.9134 -0.2313 0.3349
vn -0.6462 0.0913 0.7577
vn -0.9819 0.1460 0.1207
vn 0.0766 0.5164 0.8529
vn -0.4749 0.1294 0.8705
vn -0.8489 0.4780 0.2256
vn 0.1574 -0.2523 0.9548
vn 0.6616 0.0529 0.7480
vn -0.2927 -0.0714 0.9535
vn -0.8281 0.4187 0.3727
vn 0.6578 0.2798 0.6993
vn 0.0943 -0.2066 0.9739
vn 0.7406 -0.0130 0.6719
vn -0.5004 0.1421 0.8541
vn -0.2091 -0.3499 0.9132
vn 0.6207 -0.4358 0.6518
vn 0.1273 -0.5730 0.8096
vn 0.6649 -0.7467 0.0188
vn 0.1107 -0.2493 0.9621
vn 0.3341 -0.9314 0.1446
vn 0.5938 0.2740 0.7565
vn -0.4067 -0.0780 0.9102
vn 0.4853 0.1624 0.8591
vn -0.9001 0.3935 0.1870
vn -0.9505 -0.2119 -0.2275
vn -0.5689 0.3184 0.7582
vn 0.9649 0.2608 0.0320
vn 0.9718 0.1802 0.1521
vn 0.4557 0.4613 0.7613
vn -0.8136 -0.2927 -0.5025
vn -0.6290 0.5161 -0.5814
vn -0.2286 -0.3150 -0.9211
vn -0.0856 0.8472 0.5244
vn -0.6279 0.5164 -0.5823
vn -0.0049 0.7799 -0.6259
vn 0.1916 0.5031 -0.8427
vn -0.9092 0.0042 -0.4163
vn 0.2193 0.4372 -0.8722
vn -0.2672 -0.0896 -0.9595
vn 0.8254 0.5569 -0.0927
vn 0.6586 0.3881 -0.6446
vn 0.2730 -0.1772 -0.9456
vn 0.7743 -0.1306 -0.6192
vn 0.2269 -0.7673 -0.5998
vn -0.1788 -0.7127 -0.6783
vn -0.3265 -0.1464 -0.9338
vn 0.9901 0.1150 0.0809
vn 0.7282 0.2459 0.6397
vn 0.9901 0.1150 0.0810
vn 0.7306 0.5046 0.4600
vn 0.7180 -0.6948 0.0420
vn 0.6222 -0.6920 -0.3661
vn 0.9674 -0.2531 0.0103
vn -0.2802 0.4507 -0.8476
vn 0.9947 -0.0534 0.0875
vn 0.6472 0.3462 0.6792
vn 0.7750 -0.6293 0.0580
vn -0.5651 -0.6779 -0.4701
vn -0.8211 -0.0756 -0.5657
vn -0.8053 0.5906 0.0526
vn -0.6918 0.4929 -0.5278
vn -0.7531 0.4971 -0.4309
vn -0.5366 0.6473 0.5414
vn 0.5495 0.8351 0.0259
vn -0.8475 0.3396 -0.4080
vn -0.7411 0.6478 -0.1766
vn 0.4425 -0.0407 0.8958
vn -0.7152 0.3930 0.5779
vn -0.6993 -0.4230 0.5763
vn -0.9851 -0.1632 0.0550
vn -0.7163 -0.5571 0.4203
vn -0.9806 -0.1892 0.0520
vn -0.8516 -0.5229 -0.0374
vn -0.7117 -0.6098 0.3489
vn -0.9776 0.1611 0.1351
vn -0.8250 0.2532 0.5052
vn 0.2158 0.8028 -0.5558
vn 0.7736 0.6302 0.0665
vn 0.7420 0.1982 -0.6405
vn 0.9246 -0.3384 -0.1749
vn 0.1340 0.8376 -0.5296
vn 0.6342 0.5184 0.5737
vn 0.6263 0.7143 0.3124
vn -0.5223 -0.7414 0.4214
vn -0.1443 -0.5102 0.8479
vn -0.0702 -0.7404 0.6685
vn -0.0206 -0.5850 0.8108
vn 0.2544 -0.9501 0.1804
vn -0.3254 -0.4818 0.8137
vn 0.2662 0.9620 -0.0614
vn -0.8917 0.2970 -0.3417
vn -0.0840 0.7802 0.6198
vn 0.0224 -0.4652 0.8849
vn -0.3483 0.1325 0.9280
vn 0.1949 0.2136 0.9573
vn 0.7552 0.3427 0.5587
vn 0.5774 0.2730 0.7695
vn 0.6680 0.4310 0.6066
vn 0.1948 0.2136 0.9573
vn 0.1963 -0.3636 0.9106
vn 0.6259 0.4145 0.6606
vn -0.3759 -0.4445 0.8131
vn 0.1368 -0.7401 0.6584
vn -0.3766 -0.7893 0.4849
vn -0.5622 -0.8207 -0.1017
vn -0.3861 -0.8265 0.4098
vn 0.1247 -0.7798 0.6135
vn -0.3438 -0.7652 0.5443
vn 0.1862 -0.6948 0.6947
vn -0.2466 -0.6279 0.7382
vn -0.7168 -0.3483 0.6040
vn -0.7510 -0.4874 0.4455
vn -0.5600 -0.8285 -0.0001
vn -0.0780 -0.7128 -0.6970
vn -0.2059 -0.9380 -0.2787
vn -0.4831 0.3607 0.7979
vn 0.5115 0.5896 0.6251
vn -0.1690 0.7330 0.6589
vn 0.3628 -0.6702 -0.6474
vn 0.3235 -0.9008 0.2898
vn -0.4912 -0.7578 0.4295
vn 0.1775 -0.8125 0.5552
vn 0.3223 -0.8278 -0.4593
vn 0.8167 -0.4229 -0.3926
vn 0.4505 -0.2891 -0.8447
vn 0.7575 -0.6378 -0.1393
vn 0.7729 0.6095 -0.1765
vn 0.8296 0.3696 -0.4185
vn 0.6838 0.4470 -0.5767
vn 0.9895 -0.1394 -0.0370
vn 0.7698 0.1363 -0.6236
vn 0.8267 0.2747 0.4910
vn 0.7535 -0.2233 -0.6183
vn 0.6467 0.4787 -0.5938
vn 0.7858 0.4290 -0.4455
vn 0.8274 -0.1723 -0.5345
vn 0.7510 -0.0595 -0.6576
vn 0.3670 0.8972 0.2457
vn 0.7369 0.4955 -0.4597
vn 0.8619 0.3781 0.3380
vn 0.6881 0.3447 -0.6385
vn 0.7296 0.5085 -0.4573
vn 0.6507 0.7023 0.2887
vn 0.8997 0.3897 -0.1968
vn -0.2525 -0.9676 -0.0084
vn -0.7128 -0.0301 0.7008
vn -0.9098 0.4145 0.0222
vn -0.9816 0.1221 -0.1465
vn -0.1057 0.7891 -0.6051
vn 0.8142 0.1759 -0.5533
vn 0.2440 0.4971 -0.8327
vn 0.7322 0.5084 -0.4532
vn 0.7332 0.5061 -0.4543
vn 0.5441 -0.5268 -0.6531
vn 0.2252 -0.4615 -0.8581
vn -0.0221 0.8522 -0.5227
vn 0.2545 0.5425 -0.8005
vn 0.7576 0.6493 -0.0663
vn 0.4947 0.2037 -0.8449
vn 0.5484 -0.6968 -0.4623
vn 0.9516 -0.2275 0.2068
vn 0.2020 -0.3574 -0.9118
vn 0.2429 0.1236 -0.9622
vn 0.4458 -0.8917 -0.0777
vn 0.7734 -0.6338 0.0110
vn 0.5393 -0.7304 0.4192
vn 0.9960 0.0419 -0.0795
vn 0.5785 -0.7967 -0.1748
vn 0.5987 -0.6847 0.4157
vn 0.3291 -0.8399 0.4316
vn 0.3600 -0.5016 0.7866
vn 0.9374 0.2626 0.2287
vn -0.1168 -0.2249 0.9674
vn -0.2770 0.2796 0.9193
vn 0.9009 -0.2997 0.3139
vn 0.9374 0.2626 0.2286
vn -0.6006 0.5735 0.5571
vn -0.2770 0.2797 0.9193
vn -0.1309 0.0012 0.9914
vn -0.2771 0.2796 0.9192
vn -0.6328 0.5309 0.5636
vn -0.7096 0.4685 0.5263
vn -0.8674 0.4727 0.1552
vn 0.8404 -0.5368 -0.0749
vn 0.4690 0.1066 0.8767
vn 0.9639 0.1229 0.2360
vn 0.8283 0.0049 0.5603
vn -0.7894 0.5821 0.1949
vn -0.4033 0.7281 -0.5543
vn -0.7338 0.4706 -0.4900
vn -0.5707 0.2104 0.7937
vn -0.5708 0.2104 0.7937
vn -0.3097 0.2273 0.9233
vn -0.5806 -0.0632 -0.8117
vn -0.9042 0.4211 0.0716
vn -0.4554 0.3811 -0.8046
vn -0.6710 0.3656 -0.6451
vn -0.1579 0.5449 -0.8235
vn -0.3628 0.5282 -0.7677
vn -0.3737 0.2668 -0.8884
vn -0.2576 -0.8398 -0.4778
vn -0.6139 -0.3495 -0.7078
vn -0.4790 -0.2034 -0.8539
vn -0.7312 -0.0076 -0.6821
vn -0.9112 -0.3463 0.2234
vn -0.9682 -0.2287 -0.1014
vn 0.4981 -0.3986 0.7701
vn -0.1271 -0.7288 0.6728
vn 0.3889 -0.3902 -0.8345
vn -0.6659 -0.7041 -0.2466
vn 0.2818 0.1288 0.9508
vn 0.9684 0.0975 0.2297
vn 0.8928 -0.3970 -0.2130
vn 0.0129 0.5107 -0.8597
vn -0.0283 -0.1921 -0.9810
vn -0.4123 0.7210 -0.5569
vn 0.2737 -0.1442 -0.9509
vn -0.3190 -0.9431 0.0933
vn -0.8584 -0.4170 0.2988
vn -0.1066 -0.8435 0.5265
vn -0.4237 0.4442 -0.7894
vn 0.3062 0.7853 -0.5381
vn 0.1563 -0.8165 -0.5558
vn -0.3022 -0.9309 -0.2053
vn 0.1153 -0.6250 -0.7721
vn -0.2228 -0.9696 -0.1014
vn 0.1891 -0.8571 -0.4791
vn 0.0623 -0.9706 -0.2324
vn 0.0206 -0.9686 -0.2479
vn -0.5150 -0.8327 -0.2032
vn -0.6946 -0.4855 -0.5308
vn -0.1957 -0.5071 -0.8394
vn -0.5164 -0.8312 -0.2058
vn -0.8133 -0.2925 -0.5030
vn -0.6588 -0.7481 -0.0797
vn -0.9821 0.1458 0.1195
vn 0.9661 0.2190 -0.1368
vn -0.2294 -0.3133 -0.9215
vn 0.2337 -0.4670 -0.8528
vn -0.2298 -0.3147 -0.9210
vn 0.1905 0.5008 -0.8444
vn -0.3751 -0.9227 -0.0891
vn -0.8699 -0.4323 -0.2375
vn -0.3185 -0.9272 -0.1973
vn 0.2165 -0.2710 -0.9379
vn 0.2558 -0.8592 -0.4431
vn -0.5981 -0.7072 -0.3770
vn 0.8004 -0.2230 0.5564
vn 0.3700 -0.9153 -0.1590
vn 0.8451 0.3733 0.3826
vn -0.4141 0.0103 0.9102
vn -0.1508 0.7175 0.6801
vn 0.2590 0.3256 0.9093
vn 0.2740 0.8460 0.4574
vn -0.3737 0.8188 0.4359
vn 0.3035 0.8886 0.3438
vn 0.6841 0.1180 -0.7198
vn -0.4679 0.1060 -0.8774
vn -0.2922 0.7573 -0.5841
vn -0.5660 0.7788 0.2704
vn -0.4335 0.7463 -0.5051
vn -0.9366 0.3413 0.0792
vn -0.6084 0.6276 0.4858
vn -0.4176 -0.0914 0.9040
vn -0.7862 0.3735 0.4924
vn -0.2802 0.6942 -0.6630
vn -0.3023 0.0002 -0.9532
vn 0.6668 -0.7450 0.0205
vn 0.2819 -0.5186 -0.8072
vn 0.4264 -0.8397 -0.3364
vn 0.2592 -0.7710 -0.5817
vn 0.6208 -0.7623 -0.1833
vn 0.2287 -0.7803 -0.5821
vn 0.2857 -0.7517 -0.5944
vn 0.4542 -0.8199 -0.3486
vn 0.3331 -0.3253 -0.8850
vn -0.7286 0.6033 0.3243
vn -0.0162 -0.7913 0.6112
vn 0.4671 -0.8842 0.0015
vn -0.7938 -0.5630 -0.2300
vn 0.1774 -0.5985 0.7812
vn -0.1531 -0.8218 0.5489
vn -0.1831 -0.5585 0.8091
vn -0.6746 -0.6962 -0.2452
vn 0.2761 -0.1390 -0.9510
vn -0.2764 0.1170 0.9539
vn 0.2168 -0.5322 0.8184
vn -0.7558 0.3933 -0.5235
vn -0.3527 0.0593 0.9339
vn 0.3374 0.1095 0.9350
vn 0.6231 0.3537 0.6976
vn 0.2803 0.0952 0.9552
vn 0.5460 -0.6821 0.4865
vn 0.8254 0.2041 -0.5263
vn 0.8800 -0.3148 0.3556
vn -0.6784 -0.6771 -0.2850
vn 0.3269 -0.9393 -0.1039
vn -0.6676 -0.7077 0.2313
vn -0.5882 0.1598 0.7928
vn -0.1544 -0.9868 0.0494
vn -0.7039 -0.2751 -0.6548
vn -0.8302 0.5540 -0.0625
vn -0.9951 0.0411 0.0896
vn -0.7531 0.4972 -0.4310
vn -0.9421 0.3267 0.0752
vn -0.6499 0.0963 0.7539
vt 0.020020 0.008789
vt 0.499512 0.306641
vt -0.026367 0.498047
vt 0.302734 -0.186523
vt 0.194336 0.428223
vt 0.396973 0.497070
vt 0.499512 0.759277
vt 0.602539 0.497070
vt 0.805176 0.428223
vt 0.696777 -0.186523
vt 0.979492 0.008789
vt 3.499023 0.561523
vt 3.837891 0.209473
vt 3.845703 0.991699
vt 3.450195 1.177734
vt 3.488770 -0.111328
vt 3.118652 1.083496
vt 2.959961 0.464844
vt 2.830566 0.046387
vt -2.499023 0.561523
vt -1.830566 0.046387
vt -1.959961 0.464844
vt -2.488770 -0.111328
vt -2.118652 1.083496
vt -2.450195 1.177734
vt -2.837891 0.209473
vt -2.845703 0.991699
vt 0.957031 -1.959961
vt 1.154297 -1.894531
vt 0.803711 -1.171387
vt 1.024414 -1.132813
vt 2.156738 0.104980
vt 0.625000 -0.398438
vt 1.244629 -1.093750
vt 1.126953 -0.148438
vt 0.864746 -0.227539
vt -0.105957 -2.777344
vt -0.300293 -2.325684
vt -0.637695 -2.683594
vt 0.033203 -1.830566
vt 0.136719 -2.488770
vt -0.403809 -1.784668
vt -0.741211 -2.333984
vt 0.169434 -0.575684
vt -0.519043 0.324707
vt -0.328613 -0.231934
vt 0.169434 3.303223
vt -0.328613 3.303223
vt 0.135742 2.878418
vt -0.416992 2.878418
vt 0.169434 2.521973
vt 0.830078 2.521973
vt 0.863770 2.878418
vt 2.878418 0.304688
vt 2.878418 -0.292969
vt 3.303223 0.324707
vt 2.823730 0.939453
vt 3.303223 0.881348
vt 2.528320 0.321777
vt 2.521973 -0.231934
vt 0.830078 3.303223
vt 2.548340 0.811035
vt 1.328613 2.521973
vt 1.416992 2.878418
vt 1.519043 0.324707
vt 1.328613 -0.231934
vt 1.026367 0.498047
vt -0.024414 -1.132813
vt 0.134766 -0.227539
vt -0.244629 -1.093750
vt -0.454590 -1.851563
vt 0.195801 -1.171387
vt -0.154297 -1.894531
vt 0.042480 -1.959961
vt -1.548340 0.811035
vt -1.878418 0.304688
vt -1.329590 0.742188
vt -1.878418 -0.292969
vt -1.528320 0.321777
vt -2.303223 -0.231934
vt -1.823730 0.939453
vt -2.303223 0.324707
vt 1.741211 -2.333984
vt 1.300293 -2.325684
vt 1.637695 -2.683594
vt 1.105957 -2.777344
vt 0.862793 -2.488770
vt 1.403809 -1.784668
vt 0.966309 -1.830566
vt 0.000000 0.000000
vt 0.830078 -0.575684
vt 0.862305 2.799316
vt 1.413086 2.823730
vt 0.908203 3.303223
vt 1.328613 3.303223
vt 0.978027 3.417480
vt 0.669434 2.841797
vt 0.791992 3.467285
vt 0.311035 0.563965
vt 0.688477 0.563965
vt 0.167969 0.985840
vt -0.266113 0.742188
vt 0.132813 0.280273
vt 0.831543 0.985840
vt 0.137207 1.101563
vt -0.344238 0.811035
vt -0.519043 0.321777
vt 0.275391 -0.016602
vt 0.724121 -0.016602
vt 1.519043 0.321777
vt 0.866699 0.280273
vt 1.454590 -1.851563
vt 0.441895 -0.219238
vt 1.106445 0.211426
vt 1.044922 0.577148
vt 1.032227 1.017090
vt 0.604980 1.414551
vt 0.038574 -0.479004
vt -0.910645 0.564941
vt -0.454590 0.397949
vt -0.507813 1.083496
vt -0.154297 0.622559
vt 0.030762 1.083496
vt -0.788086 1.166016
vt 1.267578 0.080078
vt 1.398438 0.377930
vt 2.171387 0.368652
vt 0.111816 -1.156738
vt -2.280762 0.564941
vt -2.280273 1.166016
vt -2.643066 0.991699
vt -0.160645 -1.108398
vt -2.333984 -0.111328
vt -1.784668 0.015625
vt -2.641602 0.209473
vt -1.108398 0.104980
vt -1.851563 0.397949
vt -0.148438 0.050781
vt -0.148438 0.366699
vt -1.093750 0.368652
vt 1.266113 0.742188
vt 0.862305 1.101563
vt -0.121094 0.760254
vt 0.330078 2.841797
vt 0.137207 2.799316
vt 0.024902 1.479004
vt -0.383789 1.043457
vt -0.328613 0.881348
vt -0.383789 0.472656
vt 0.091309 3.303223
vt -0.413086 2.823730
vt 1.121094 0.760254
vt 1.328613 0.881348
vt -1.156738 0.104980
vt -1.171387 0.368652
vt 1.507813 1.083496
vt 1.910645 0.564941
vt 1.788086 1.166016
vt 1.454590 0.397949
vt 1.154297 0.622559
vt 0.968750 1.083496
vt 0.021484 3.417480
vt 0.207520 3.467285
vt 0.960938 -0.479004
vt 0.394531 1.414551
vt 0.557617 -0.219238
vt -0.032227 1.017090
vt -0.106445 0.211426
vt -0.044922 0.577148
vt 1.264648 -0.335449
vt 1.383789 0.472656
vt 0.974609 1.479004
vt 1.383789 1.043457
vt -0.398438 0.377930
vt -0.267578 0.080078
vt 2.108398 0.104980
vt 2.093750 0.368652
vt 1.148438 0.050781
vt 1.148438 0.366699
vt 2.851563 0.397949
vt 2.784668 0.015625
vt 0.374512 -0.398438
vt -0.126953 -0.148438
vt 1.160645 -1.108398
vt 0.887695 -1.156738
vt 3.641602 0.209473
vt 3.280762 0.564941
vt 3.333984 -0.111328
vt 3.643066 0.991699
vt 1.213867 0.313477
vt 3.280273 1.166016
vt -0.403809 0.015625
vt 0.042480 0.464844
vt 1.927734 0.991699
vt 0.780273 0.991699
vt 1.909668 0.209473
vt 0.906738 1.401367
vt 1.822754 1.389648
vt 0.796875 0.209473
vt 1.105957 -0.179199
vt 1.637695 -0.179199
vt 3.777344 -0.179199
vt -2.627441 1.389648
vt -2.683594 -0.179199
vt -0.034180 -0.148438
vt 0.287109 -0.267578
vt 3.303223 -0.231934
vt -0.328613 2.521973
vt 0.892090 -0.335449
vt 1.050781 0.472656
vt 0.719238 0.526367
vt 2.329590 0.742188
vt 0.280273 0.526367
vt 0.107422 -0.335449
vt 0.021484 1.020508
vt -0.050781 0.472656
vt 0.580566 1.020508
vt 0.418945 1.020508
vt 0.840820 1.106445
vt 0.158691 1.106445
vt 0.993164 0.441895
vt 0.268066 1.479004
vt 0.731445 1.479004
vt 0.006348 0.441895
vt 1.403809 0.015625
vt -2.777344 -0.179199
vt 0.957031 0.464844
vt -0.927734 0.991699
vt 0.219238 0.991699
vt -0.822754 1.389648
vt 0.202637 0.209473
vt 0.092773 1.401367
vt -0.909668 0.209473
vt -0.105957 -0.179199
vt 0.978027 1.020508
vt -0.637695 -0.179199
vt 0.712402 -0.267578
vt 1.034180 -0.148438
vt -0.213867 0.313477
vt -1.521973 -0.231934
vt 3.683594 -0.179199
vt -2.303223 0.881348
vt 0.000488 0.920410
vt 0.000488 0.000488
vt 0.883789 0.999023
vt 3.627441 1.389648
vt 0.000000 1.000000
vt 1.000000 1.000000
vt 0.999023 0.129395
vt 1.344238 2.548340
vt 0.862305 2.325684
vt 1.266113 2.329590
vt 1.000000 0.000000
vt 0.137207 2.325684
vt 0.831543 2.204102
vt 0.914063 0.560547
vt -0.131836 0.573730
vt 0.746094 -0.289063
vt -0.054199 -0.219727
vt 0.107422 -0.264648
vt 0.892090 -0.264648
vt -0.100586 0.038574
vt 1.100586 0.038574
vt -0.266113 2.329590
vt 0.167969 2.204102
vt -0.344238 2.548340
vt 0.848145 1.007813
vt -0.105469 0.627930
vt 0.889648 0.106934
vt 0.172852 -0.349609
vt -2.603516 0.760254
vt -2.676758 0.498047
vt -2.507813 0.760254
s 1
usemtl material_48mat
f 149/206/286 148/207/287 95/208/288
f 148/207/287 149/206/286 150/209/289
f 94/210/290 148/207/287 90/211/291
f 94/210/290 95/208/288 148/207/287
f 92/212/292 148/207/293 100/213/294
f 148/207/287 92/212/295 90/211/296
f 148/207/287 99/214/297 100/213/298
f 151/215/299 148/207/287 150/209/289
f 152/216/300 148/207/287 151/215/299
f 148/207/287 152/216/300 99/214/297
f 154/217/301 153/218/302 124/219/303
f 124/219/304 115/220/305 154/217/306
f 153/218/307 154/217/308 155/221/309
f 154/217/306 115/220/305 119/222/310
f 119/222/310 156/223/311 154/217/306
f 154/217/308 157/224/312 155/221/309
f 160/225/313 159/226/314 158/227/315
f 157/224/316 154/217/306 156/223/311
f 159/226/317 160/225/318 161/228/319
f 158/227/315 128/229/320 160/225/313
f 122/230/321 160/225/313 128/229/320
f 160/225/318 162/231/322 161/228/319
f 122/230/321 123/232/323 160/225/313
f 162/231/324 160/225/325 123/232/326
f 156/233/311 164/234/327 163/235/328
f 165/236/329 163/235/328 164/234/327
f 157/224/330 156/223/311 166/237/331
f 163/235/328 165/236/329 167/238/332
f 165/236/329 164/234/327 168/239/333
f 168/239/333 169/240/334 165/236/329
f 170/241/335 167/238/332 165/236/329
f 173/242/336 172/243/337 171/244/338
f 170/241/339 165/236/329 169/240/334
f 157/245/312 172/243/340 155/246/309
f 172/243/340 157/245/312 174/247/341
f 174/247/341 175/248/342 172/243/340
f 172/243/340 173/242/343 155/246/309
f 150/209/289 149/206/286 176/249/344
f 172/243/340 175/248/342 171/244/345
f 149/206/286 95/208/288 177/250/346
f 178/251/347 176/249/344 149/206/286
f 176/252/344 178/253/347 179/254/348
f 149/206/286 177/250/346 178/251/347
f 179/254/348 181/255/349 180/256/350
f 181/255/349 179/254/348 178/253/347
f 180/256/350 182/257/351 179/254/348
f 183/258/352 179/254/348 182/257/351
f 101/259/353 181/260/349 177/261/346
f 179/254/348 183/258/352 176/252/344
f 103/262/354 101/259/355 184/263/356
f 177/261/346 184/263/356 101/259/353
f 186/264/357 185/265/358 101/259/359
f 181/260/349 101/259/359 185/265/358
f 187/266/360 176/252/344 183/258/352
f 101/259/361 102/267/362 186/264/363
f 182/257/351 188/268/364 183/258/352
f 189/269/365 183/258/352 188/268/364
f 191/270/366 152/216/300 190/271/367
f 183/258/352 189/269/365 187/266/360
f 152/216/300 151/215/299 190/271/367
f 96/272/368 152/216/300 191/270/366
f 194/273/369 193/274/370 192/275/371
f 96/272/368 99/214/297 152/216/300
f 192/275/371 195/276/372 194/273/369
f 194/273/369 196/277/373 193/274/370
f 197/278/374 158/279/315 194/273/369
f 197/278/374 194/273/369 195/276/372
f 109/280/375 110/281/376 198/282/377
f 196/277/373 194/273/369 158/279/315
f 110/281/378 189/283/365 199/284/379
f 199/284/379 198/282/380 110/281/378
f 189/283/365 110/281/381 190/285/367
f 110/281/381 108/286/382 191/287/366
f 202/288/383 201/289/384 200/290/385
f 191/287/366 190/285/367 110/281/381
f 203/291/386 201/289/384 161/292/319
f 202/288/383 204/293/387 201/289/384
f 159/294/388 201/289/384 204/293/387
f 201/289/384 159/294/317 161/292/319
f 169/295/334 205/295/389 170/295/339
f 201/289/384 203/291/386 200/290/385
f 207/295/390 205/295/391 206/295/392
f 205/295/393 207/295/394 170/295/395
f 205/295/396 208/295/397 193/295/370
f 193/295/398 206/295/399 205/295/400
f 176/249/344 187/296/360 150/209/289
f 151/215/299 150/209/289 187/296/360
f 105/297/401 103/298/354 112/299/402
f 184/300/356 112/299/402 103/298/354
f 184/300/356 88/301/403 112/299/404
f 105/297/405 112/299/404 111/302/406
f 112/299/404 88/301/403 89/303/407
f 147/304/408 140/305/409 209/306/410
f 187/296/360 190/271/367 151/215/299
f 198/307/380 146/308/411 209/306/412
f 210/309/413 209/306/414 140/305/415
f 106/310/416 109/311/417 209/306/414
f 147/304/418 209/306/412 146/308/411
f 199/312/379 188/251/364 146/308/419
f 211/313/420 146/308/421 188/251/364
f 167/295/422 170/295/423 207/295/424
f 199/312/379 146/308/411 198/307/380
f 185/271/358 212/314/425 180/296/350
f 214/295/426 213/295/427 207/295/428
f 185/271/358 186/315/357 212/314/429
f 139/316/430 212/314/431 186/315/432
f 215/317/433 168/239/333 164/234/327
f 212/314/425 211/313/420 180/296/350
f 142/318/434 216/319/435 135/320/436
f 142/318/434 135/320/436 129/321/437
f 142/318/434 129/321/437 217/322/438
f 217/322/438 144/323/439 142/318/434
f 216/295/440 134/295/441 135/295/442
f 212/295/443 134/295/441 216/295/440
f 131/295/444 134/295/445 139/295/446
f 212/295/447 139/295/446 134/295/445
f 218/324/448 215/325/433 120/326/449
f 164/327/327 119/328/310 120/326/449
f 120/326/449 215/325/433 164/327/327
f 218/324/448 120/326/449 118/329/450
f 213/330/451 166/237/331 167/331/452
f 163/332/328 166/237/331 156/223/311
f 157/245/453 166/333/454 174/247/455
f 163/332/328 167/331/452 166/237/331
f 218/334/448 118/335/450 219/336/456
f 220/337/457 174/247/455 166/333/454
f 218/334/458 175/338/342 174/339/341
f 218/334/459 219/336/460 221/340/461
f 174/339/462 220/341/463 215/342/464
f 218/334/458 221/340/465 175/338/342
f 222/343/466 169/344/467 220/341/468
f 168/345/333 215/342/433 220/341/469
f 139/316/470 186/315/471 223/346/472
f 168/345/333 220/341/469 169/344/473
f 139/316/474 223/346/475 140/305/476
f 210/309/413 223/346/475 104/347/477
f 177/250/346 95/208/288 93/348/478
f 210/309/413 140/305/476 223/346/475
f 111/302/406 113/349/479 105/297/405
f 107/350/480 105/297/401 113/349/479
f 224/351/481 169/352/467 144/323/439
f 144/323/439 217/322/438 224/351/481
f 177/250/346 93/348/482 184/353/356
f 169/352/467 222/354/466 144/323/439
f 182/249/351 180/296/350 211/313/420
f 114/355/483 107/350/484 113/349/485
f 211/313/420 188/251/364 182/249/351
f 108/356/382 107/350/486 225/253/487
f 114/355/488 225/253/487 107/350/486
f 96/272/368 191/270/366 98/357/489
f 98/357/489 191/270/366 225/358/487
f 226/359/490 196/360/491 159/226/492
f 158/227/315 159/226/493 196/360/373
f 126/361/494 227/362/495 127/363/496
f 195/364/372 126/361/494 197/365/374
f 128/366/320 197/365/374 126/361/494
f 195/364/372 227/362/495 126/361/494
f 87/367/497 225/253/487 114/355/488
f 87/367/498 114/355/483 86/368/499
f 143/369/500 228/370/501 145/371/502
f 132/372/503 145/371/502 228/370/501
f 229/373/504 145/371/505 138/374/506
f 231/375/507 230/376/508 143/369/509
f 138/374/510 145/371/502 132/372/503
f 228/370/501 143/369/500 232/377/511
f 208/378/512 232/377/511 143/369/500
f 206/379/513 196/360/491 214/380/514
f 226/359/490 214/380/514 196/360/491
f 233/381/515 192/382/371 230/383/516
f 208/384/397 230/383/516 192/382/371
f 195/385/372 192/382/371 204/386/387
f 233/381/515 204/386/387 192/382/371
f 206/387/517 193/274/370 196/277/373
f 208/388/397 192/275/371 193/274/370
f 204/293/387 233/389/515 159/294/518
f 226/390/519 159/294/518 233/389/515
f 234/391/520 227/392/495 202/393/383
f 235/394/521 227/392/522 234/391/523
f 202/393/383 227/392/495 204/386/387
f 213/330/524 167/331/525 207/395/526
f 127/396/496 227/392/495 235/394/527
f 215/325/433 218/324/448 174/397/528
f 156/398/311 119/328/310 164/327/327
f 219/399/529 124/400/530 221/401/531
f 124/400/532 219/399/533 116/402/534
f 117/403/535 116/402/534 219/399/533
f 153/404/536 221/401/531 124/400/530
f 173/405/537 171/406/538 153/404/539
f 173/407/540 153/218/541 155/221/542
f 219/336/456 118/335/450 117/408/543
f 221/401/531 153/404/536 171/406/544
f 221/340/545 171/409/546 175/338/547
f 222/410/466 220/337/468 213/411/548
f 166/333/549 213/411/550 220/337/551
f 178/412/347 177/261/346 181/260/349
f 185/413/358 180/256/350 181/255/349
f 236/414/552 222/415/466 213/416/553
f 223/417/472 186/264/471 102/267/554
f 213/416/553 214/418/555 236/414/552
f 231/419/507 236/414/552 214/418/555
f 88/420/403 184/353/356 93/348/556
f 130/295/557 131/295/558 139/295/559
f 230/421/508 231/419/507 214/418/555
f 85/422/560 91/423/561 92/212/562
f 229/424/504 216/425/435 145/426/505
f 216/425/435 229/424/504 212/427/563
f 211/428/564 212/427/563 229/424/504
f 190/300/367 187/266/360 189/269/365
f 142/429/434 145/426/505 216/425/435
f 136/295/565 137/295/566 211/295/567
f 146/295/568 211/295/567 137/295/566
f 137/295/569 133/295/570 146/295/571
f 136/295/572 211/295/564 229/295/504
f 227/362/495 195/364/372 204/430/387
f 136/295/572 229/295/504 138/295/573
f 162/231/574 203/431/386 161/228/319
f 128/366/320 158/432/315 197/365/374
f 235/433/575 123/434/576 125/435/577
f 123/434/576 235/433/575 162/436/578
f 121/437/579 125/435/580 123/434/581
f 162/436/578 234/438/582 203/439/386
f 234/438/582 162/436/578 235/433/575
f 225/358/487 87/440/497 98/357/583
f 200/441/385 203/439/386 234/438/582
f 214/442/584 226/390/585 230/443/586
f 206/379/587 214/380/588 207/444/589
f 188/445/364 199/284/379 189/283/365
f 233/389/515 230/443/590 226/390/519
f 200/446/385 234/391/591 202/393/383
f 225/447/487 191/287/366 108/286/382
f 238/448/592 237/449/593 217/450/438
f 127/396/496 235/394/527 125/451/594
f 141/452/595 238/295/592 130/453/596
f 224/454/481 217/450/438 237/449/593
f 102/455/597 104/456/598 223/457/599
f 217/458/438 130/453/596 238/295/592
f 130/295/600 217/295/438 129/295/437
f 104/456/477 106/459/416 210/460/413
f 224/461/481 237/462/593 169/463/601
f 205/464/602 169/463/603 237/462/604
f 236/465/552 231/466/507 144/467/439
f 143/468/509 144/467/439 231/466/507
f 198/469/380 209/470/412 109/471/605
f 209/470/414 210/460/413 106/459/416
f 237/472/593 232/473/511 205/474/606
f 208/475/512 205/474/606 232/473/511
f 230/295/607 208/295/512 143/295/500
f 228/295/501 133/295/608 132/295/503
f 228/452/501 232/295/511 238/453/592
f 237/458/593 238/453/592 232/295/511
f 97/476/609 96/477/610 98/478/611
f 222/295/466 236/295/552 144/295/439
f 133/458/612 228/453/501 141/295/595
f 238/458/592 141/453/595 228/295/501
o 48
v 0.008889 0.105912 0.013274
v -0.010953 0.107749 0.007905
v 0.007619 0.114381 0.011764
v 0.002285 0.112228 0.017619
v -0.002376 0.101840 0.015650
v 0.014267 0.088147 -0.010088
v -0.010438 0.074323 -0.020001
v 0.015800 0.075693 -0.016904
v -0.006779 0.090057 -0.015718
v -0.008096 0.115088 0.008653
v -0.005597 0.112618 0.016011
vn 0.3029 -0.0344 0.9524
vn 0.3966 0.0978 0.9127
vn 0.8544 0.3508 0.3833
vn 0.1945 -0.8436 0.5005
vn -0.3438 0.0068 0.9390
vn 0.3749 0.0812 0.9235
vn 0.7005 -0.0522 -0.7118
vn -0.4882 -0.0227 -0.8725
vn 0.6645 0.2940 -0.6870
vn -0.3420 0.2611 -0.9027
vn -0.6697 0.0041 0.7426
vn -0.6649 -0.0287 0.7464
vn -0.8896 0.4165 0.1873
vn -0.6263 -0.3346 0.7041
vn -0.2986 -0.0066 0.9543
vn 0.2000 -0.6434 0.7389
vn -0.3500 -0.0191 0.9365
vn -0.6871 -0.5416 0.4844
vn -0.6872 0.0577 0.7242
vt 1.253906 0.882813
vt 1.862793 0.158203
vt 1.622070 0.916992
vt 0.863770 -0.081543
vt -0.100586 0.038574
vt 1.100586 0.038574
vt 0.006348 0.441895
vt 0.993164 0.441895
vt -0.134766 0.158203
vt 0.474121 0.882813
vt 0.105469 0.916992
s 1
usemtl material_47mat
f 242/479/613 239/480/614 241/481/615
f 242/479/616 243/482/617 239/480/618
f 246/483/619 245/484/620 244/485/621
f 247/486/622 244/485/621 245/484/620
f 240/487/623 249/488/624 248/489/625
f 249/488/626 243/482/627 242/479/628
f 243/482/629 249/488/630 240/487/631
o 44
v 0.026023 0.131014 0.009978
v 0.018686 0.125554 0.023571
v -0.000682 0.131725 0.010890
v 0.020855 0.131012 0.024832
v 0.006755 0.120353 0.031373
v 0.008233 0.132248 0.034133
v -0.009109 0.121103 0.031136
v -0.007951 0.132679 0.034686
v -0.021254 0.132051 0.025463
v -0.020034 0.126551 0.024050
v -0.026576 0.132414 0.011774
vn 0.0325 0.8895 0.4557
vn 0.5207 0.4682 0.7139
vn 0.9057 0.3327 0.2627
vn 0.8094 -0.5840 -0.0616
vn -0.0451 -0.9988 0.0186
vn -0.0254 -0.9995 0.0197
vn 0.2437 0.6320 0.7356
vn -0.0444 -0.9982 0.0395
vn 0.0709 0.8709 0.4864
vn -0.0046 -0.9992 0.0387
vn -0.0056 -0.9999 0.0145
vn -0.1718 0.6394 0.7494
vn -0.8274 -0.5334 0.1756
vn -0.8544 0.5158 0.0626
vt 0.500000 0.999023
vt 0.875977 0.402832
vt 0.999023 0.999023
vt 0.906250 0.309082
vt 0.661133 0.000488
vt 0.338379 0.000488
vt 0.093262 0.309082
vt 0.123535 0.402832
vt 0.000488 0.999023
s 1
usemtl material_43mat
f 252/490/632 251/491/633 250/492/634
f 250/492/635 253/493/636 252/490/637
f 254/494/638 251/491/633 252/490/632
f 252/490/637 253/493/636 255/494/639
f 256/495/640 254/494/638 252/490/632
f 257/495/641 252/490/637 255/494/639
f 258/496/642 252/490/637 257/495/641
f 259/497/643 256/495/640 252/490/632
f 258/496/642 260/498/644 252/490/637
f 259/497/643 252/490/632 260/498/645
o 43
v -0.006081 0.150680 0.027918
v -0.001278 0.151919 0.025173
v -0.004511 0.149750 0.027139
v -0.006215 0.147295 0.026634
v -0.011119 0.146538 0.026076
v -0.002012 0.155163 0.024873
v -0.006021 0.156882 0.024848
v -0.012644 0.150609 0.025723
v -0.010914 0.155400 0.025176
v 0.006866 0.150335 0.027476
v 0.006927 0.156537 0.024405
v 0.010936 0.154818 0.024431
v 0.013252 0.149919 0.024838
v 0.010731 0.145956 0.025330
v 0.002843 0.155033 0.024707
v 0.005200 0.149491 0.026807
v 0.006762 0.147031 0.026997
v 0.013193 0.155797 0.018547
v 0.006511 0.155402 0.013130
v 0.011329 0.153662 0.013127
v 0.015471 0.149287 0.019118
v 0.006745 0.158305 0.017717
v 0.002428 0.153899 0.013432
v 0.000215 0.156061 0.018184
v 0.001959 0.151832 0.025062
v 0.000141 0.152838 0.018511
v 0.014606 0.146892 0.019391
v -0.006202 0.158650 0.018159
v 0.007205 0.152802 0.011737
v 0.012064 0.150418 0.013427
v -0.012733 0.156406 0.018625
v -0.012213 0.151064 0.014256
v -0.010519 0.154243 0.013874
v -0.015309 0.150025 0.019362
v -0.006436 0.155747 0.013572
v -0.014556 0.147587 0.019580
v -0.006551 0.153168 0.012207
v -0.001618 0.154006 0.013570
vn 0.3712 -0.1419 0.9177
vn 0.4239 0.7474 0.5116
vn 0.0821 0.0844 0.9930
vn -0.5707 0.2104 0.7937
vn 0.0005 0.0003 1.0000
vn 0.6480 0.5271 0.5498
vn -0.0178 0.8265 0.5626
vn -0.6729 0.0688 0.7365
vn -0.5600 0.5457 0.6234
vn 0.4678 0.6534 0.5952
vn -0.0334 0.8188 0.5731
vn 0.0689 0.1389 0.9879
vn 0.7796 0.0324 0.6254
vn 0.5774 0.2730 0.7695
vn -0.4679 0.4498 0.7607
vn -0.3699 0.0757 0.9260
vn 0.1849 0.1645 0.9689
vn 0.5788 0.3991 -0.7111
vn 0.0656 0.7241 -0.6866
vn 0.7066 0.7034 -0.0770
vn 0.6260 0.4145 0.6606
vn 0.9848 0.0323 -0.1707
vn 0.0243 0.9888 -0.1475
vn -0.3500 0.8197 -0.4534
vn -0.4400 0.8944 -0.0807
vn -0.7005 0.7117 0.0534
vn -0.5617 0.6658 0.4911
vn -0.7784 0.6252 0.0569
vn -0.4593 0.7201 -0.5201
vn -0.8926 0.4509 0.0031
vn 0.9374 0.2626 0.2285
vn -0.6486 0.7545 0.1000
vn -0.5617 0.6658 0.4912
vn 0.6863 0.7131 0.1431
vn 0.9374 0.2626 0.2286
vn 0.1939 0.9786 -0.0694
vn 0.0239 0.9877 -0.1546
vn 0.7416 0.6389 -0.2046
vn 0.8195 0.5592 0.1254
vn 0.2150 0.4959 -0.8414
vn 0.7174 0.4495 -0.5322
vn -0.4382 0.5428 -0.7165
vn -0.7531 0.4971 -0.4310
vn -0.6682 0.7304 -0.1413
vn -0.9951 0.0411 0.0896
vn 0.3519 0.9253 -0.1413
vn 0.0466 0.7185 -0.6940
vn 0.9813 0.1128 0.1557
vn -0.3500 0.8198 -0.4533
vn -0.8674 0.4727 0.1552
vn -0.2518 0.7652 -0.5925
vn 0.3898 0.8249 -0.4095
vn 0.9332 0.3449 0.1010
vn 0.5264 0.6889 -0.4984
vn 0.7415 0.6390 -0.2046
vt 0.543945 0.372559
vt 0.723145 0.519531
vt 0.477539 0.451660
vt 0.260742 0.193359
vt 0.477539 0.262695
vt 0.694336 0.709473
vt 0.477539 0.816406
vt 0.171387 0.451660
vt 0.260742 0.709473
vt 0.775879 0.690430
vt 0.557617 0.798340
vt 0.557617 0.430664
vt 0.866211 0.430176
vt 0.775879 0.169922
vt 0.339355 0.690430
vt 0.490723 0.350586
vt 0.557617 0.240234
vt 0.776855 0.690918
vt 0.557617 0.799316
vt 0.862793 0.793945
vt 0.989746 0.429688
vt 0.557617 0.944336
vt 0.335449 0.700195
vt 0.251953 0.793945
vt 0.215332 0.605957
vt 0.310059 0.499023
vt 0.943359 0.296387
vt 0.817383 0.625977
vt 0.780762 0.812012
vt 0.477539 0.961914
vt 0.573242 0.631836
vt 0.832031 0.532715
vt 0.259766 0.710449
vt 0.205078 0.553223
vt 0.174316 0.812012
vt 0.048828 0.451172
vt 0.477539 0.817871
vt 0.094727 0.318848
vt 0.461914 0.651367
vt 0.697754 0.719727
s 1
usemtl material_42mat
f 263/499/646 262/500/647 261/501/648
f 265/502/649 264/503/650 261/501/648
f 261/501/648 264/503/650 263/499/646
f 266/504/651 261/501/648 262/500/647
f 266/504/651 267/505/652 261/501/648
f 268/506/653 265/502/649 261/501/648
f 269/507/654 268/506/653 261/501/648
f 267/505/652 269/507/654 261/501/648
f 272/508/655 271/509/656 270/510/657
f 273/511/658 272/508/655 270/510/657
f 274/512/659 273/511/658 270/510/657
f 271/509/656 275/513/660 270/510/657
f 270/510/657 275/513/660 276/514/661
f 277/515/662 270/510/657 276/514/661
f 280/516/663 279/517/664 278/518/665
f 277/515/666 274/512/659 270/510/657
f 281/519/667 278/518/665 273/511/658
f 282/520/668 278/518/665 279/517/664
f 278/518/665 282/520/668 272/508/655
f 272/508/655 273/511/658 278/518/665
f 279/517/664 283/521/669 282/520/668
f 278/518/665 281/519/667 280/516/663
f 271/509/656 272/508/655 282/520/668
f 284/522/670 282/520/668 283/521/669
f 275/513/660 271/509/656 284/522/670
f 282/520/668 284/522/670 271/509/656
f 286/523/671 285/524/672 284/522/673
f 283/521/674 286/523/675 284/522/673
f 274/512/659 287/525/676 273/511/658
f 275/513/660 284/522/677 285/524/678
f 262/500/647 286/526/679 266/504/651
f 281/519/667 273/511/658 287/525/680
f 284/527/681 288/528/682 266/504/651
f 284/527/683 266/504/651 286/526/684
f 289/529/685 279/517/664 280/516/663
f 290/530/686 280/516/663 281/519/667
f 293/531/687 292/532/688 291/533/689
f 267/505/652 266/504/651 288/528/682
f 288/528/682 291/533/689 267/505/652
f 294/534/690 291/533/689 292/532/688
f 291/533/689 294/534/690 269/507/654
f 269/507/654 267/505/652 291/533/689
f 288/528/682 284/527/691 295/535/692
f 291/533/689 288/528/682 293/531/687
f 289/529/685 280/516/663 290/530/686
f 295/535/692 293/531/687 288/528/682
f 290/530/686 281/519/667 287/525/693
f 279/517/664 289/529/685 283/521/694
f 296/536/695 265/502/649 294/534/690
f 285/524/678 276/514/661 275/513/660
f 268/506/653 269/507/654 294/534/690
f 268/506/653 294/534/690 265/502/649
f 295/535/692 297/537/696 293/531/687
f 297/537/696 295/535/692 298/538/697
f 293/531/687 297/537/696 292/532/688
f 298/538/697 295/535/692 284/527/691
f 286/526/698 298/538/699 284/527/700
o 45
v -0.001278 0.151919 0.025173
v -0.004511 0.149750 0.027139
v -0.006215 0.147295 0.026634
v 0.005200 0.149491 0.026807
v 0.006762 0.147031 0.026997
v 0.001959 0.151832 0.025062
v 0.000483 0.136416 0.041331
v 0.007673 0.138234 0.036810
v 0.003397 0.133183 0.034217
v 0.003906 0.144386 0.040403
v 0.005526 0.150383 0.035666
v 0.009186 0.143181 0.029739
v -0.004185 0.150641 0.035998
v -0.003377 0.144580 0.040651
v -0.003886 0.133377 0.034466
v -0.006892 0.138621 0.037307
v -0.009457 0.143596 0.029570
vn 0.4112 -0.4949 0.7655
vn 0.8241 -0.3316 0.4592
vn 0.0121 -0.5025 0.8645
vn 0.4758 0.3086 0.8237
vn 0.7553 0.3427 0.5587
vn 0.7685 0.4839 0.4186
vn 0.5810 0.7856 0.2127
vn 0.7416 0.6642 -0.0941
vn 0.2387 0.9693 0.0587
vn 0.4925 -0.8272 0.2705
vn 0.8998 0.1662 0.4035
vn 0.8242 -0.3315 0.4592
vn -0.3736 0.8188 0.4359
vn 0.2741 0.8460 0.4574
vn -0.5226 0.7281 0.4437
vn -0.3734 0.2279 0.8992
vn -0.3545 -0.4875 0.7979
vn 0.4112 -0.4948 0.7656
vn -0.7096 0.4686 0.5262
vn -0.8271 -0.1811 0.5321
vn -0.8610 0.3693 0.3497
vn -0.5277 -0.7633 0.3727
vn -0.5761 0.7545 0.3145
vn -0.7096 0.4685 0.5263
vn -0.7298 0.6789 -0.0806
vn -0.1275 0.9880 0.0871
vn -0.3100 -0.3217 0.8947
vt 0.000000 0.000000
vt 0.722656 0.515625
vt 0.477539 0.250000
vt 0.543945 0.359375
s 1
usemtl material_44mat
f 307/539/701 306/539/702 305/539/703
f 306/539/702 308/539/704 305/539/703
f 310/539/705 303/539/706 309/539/707
f 302/539/708 304/539/709 309/539/707
f 306/539/702 310/539/705 308/539/704
f 302/539/708 309/539/707 303/539/706
f 307/539/710 310/539/711 306/539/712
f 309/539/707 308/539/704 310/539/705
f 304/539/713 299/540/714 309/539/707
f 311/539/715 309/539/707 299/540/714
f 309/539/707 311/539/715 308/539/704
f 312/539/716 308/539/704 311/539/715
f 312/539/716 305/539/703 308/539/704
f 313/539/717 307/539/718 305/539/703
f 315/539/719 314/539/720 311/539/715
f 315/539/721 313/539/722 314/539/720
f 301/541/723 315/539/724 300/542/725
f 312/539/716 311/539/715 314/539/720
f 299/540/726 300/542/725 311/539/715
f 311/539/715 300/542/725 315/539/719
f 312/539/716 314/539/720 305/539/703
f 314/539/720 313/539/727 305/539/703
o 46
v 0.033383 0.000365 0.019110
v 0.020449 0.008218 0.017465
v 0.031715 0.006704 0.019319
v 0.024309 -0.000430 0.018276
v 0.040145 0.003429 0.003454
v 0.038795 0.008575 0.013067
v 0.037372 0.012534 0.003174
v 0.039712 0.002189 0.013166
v 0.023318 0.016361 0.016063
v 0.032841 0.018803 0.007226
v -0.040939 0.008137 0.008829
v -0.039351 0.016606 0.014122
v -0.031618 0.010562 0.010581
v 0.015158 0.000106 0.012901
v -0.051557 0.013865 -0.002575
v -0.049464 0.009027 0.004573
v -0.047805 0.019506 -0.009211
v -0.046289 0.031465 0.003951
v -0.053130 0.019192 0.000868
v -0.046469 0.028076 -0.004719
v -0.042010 0.025113 0.014229
v -0.050011 0.014550 0.008416
vn 0.3273 0.2348 0.9153
vn -0.3086 0.0202 0.9510
vn 0.1363 0.0448 0.9897
vn -0.3029 -0.0481 0.9518
vn 0.8822 0.4058 -0.2388
vn 0.8049 0.4359 0.4026
vn 0.9618 0.2281 -0.1514
vn 0.8178 0.1409 0.5580
vn 0.0248 0.5640 0.8254
vn 0.6130 0.7547 0.2338
vn 0.1718 -0.9781 -0.1172
vn 0.1298 -0.9821 -0.1362
vn 0.1047 -0.9825 -0.1540
vn 0.0824 -0.9819 -0.1703
vn 0.1170 -0.9820 -0.1485
vn 0.1421 -0.9812 -0.1306
vn 0.1206 -0.5786 0.8067
vn -0.2151 -0.3558 0.9095
vn -0.2702 -0.5145 0.8138
vn -0.3334 0.0266 0.9424
vn -0.6066 -0.2201 0.7639
vn -0.3180 -0.0519 0.9467
vn -0.5089 -0.7745 -0.3758
vn -0.4667 -0.6227 -0.6281
vn 0.2450 -0.7694 -0.5899
vn 0.2882 -0.7506 -0.5946
vn 0.2313 -0.7795 -0.5822
vn -0.4785 -0.6235 -0.6183
vn -0.7404 0.4624 -0.4879
vn -0.9947 0.1024 0.0055
vn -0.7935 0.5730 0.2049
vn -0.7039 -0.1488 0.6945
vn -0.5089 0.1466 0.8483
vn -0.6697 -0.4357 -0.6014
vn -0.7328 -0.6630 0.1529
vn -0.8358 -0.4073 0.3682
vn -0.7643 0.3907 -0.5131
vn -0.9535 0.0607 -0.2951
vn -0.7451 0.4626 -0.4804
vt 0.283691 0.361328
vt 0.075195 0.613281
vt 0.331543 0.027344
vt 0.113281 0.113281
vt 1.000488 0.677246
vt 0.676270 0.385254
vt 0.991699 0.174316
vt 0.678711 0.048828
vt 0.239258 0.998535
vt 0.754883 1.030273
vt 0.943848 0.578125
vt 0.943848 0.658691
vt 0.856445 0.200684
vt 0.040039 0.320801
vt 0.636230 -0.006348
vt 0.294922 0.026855
vt -0.005859 0.298340
vt 0.035156 0.760254
vt 0.332031 0.296387
vt 0.313965 1.025391
vt 0.718262 0.258301
vt 0.820801 0.974609
s 1
usemtl material_45mat
f 318/543/728 317/544/729 316/545/730
f 319/546/731 316/545/730 317/544/729
f 322/547/732 321/548/733 320/549/734
f 323/550/735 320/549/734 321/548/733
f 316/545/730 323/550/735 318/543/728
f 321/548/733 318/543/728 323/550/735
f 318/543/728 321/548/733 324/551/736
f 325/552/737 324/551/736 321/548/733
f 317/544/729 318/543/728 324/551/736
f 321/548/733 322/547/732 325/552/737
f 323/550/738 316/545/739 320/549/740
f 319/546/741 320/549/742 316/545/743
f 328/553/744 327/554/745 326/555/746
f 317/544/747 329/556/748 319/546/749
f 331/557/750 330/558/751 326/555/752
f 332/559/753 326/555/754 330/558/755
f 335/560/756 334/561/757 333/562/758
f 337/563/759 327/554/745 336/564/760
f 334/561/757 337/563/759 333/562/758
f 336/564/760 333/562/758 337/563/759
f 330/558/761 331/557/762 334/561/757
f 337/563/759 334/561/757 331/557/763
f 334/561/757 335/560/756 330/558/761
f 332/559/764 330/558/765 335/560/766
f 327/554/745 337/563/759 326/555/746
f 331/557/763 326/555/746 337/563/759
