# Blender 4.4.3
# www.blender.org
mtllib enjoy.mtl
o ช้อความ.001
v 0.820000 0.000000 0.070000
v 0.364000 0.525000 0.070000
v 0.364000 0.000000 0.070000
v 0.272000 0.000000 0.070000
v 0.272000 0.682000 0.070000
v 0.350000 0.682000 0.070000
v 0.812000 0.154000 0.070000
v 0.812000 0.682000 0.070000
v 0.904000 0.682000 0.070000
v 0.904000 0.000000 0.070000
v 0.135915 0.227468 0.070000
v 0.129653 0.189495 0.070000
v 0.119203 0.154266 0.070000
v 0.104556 0.121963 0.070000
v 0.085700 0.092771 0.070000
v 0.062625 0.066875 0.070000
v 0.035321 0.044458 0.070000
v 0.003778 0.025704 0.070000
v -0.032016 0.010797 0.070000
v -0.072069 -0.000079 0.070000
v -0.116394 -0.006739 0.070000
v -0.165000 -0.009000 0.070000
v -0.200838 -0.007299 0.070000
v -0.236037 -0.002139 0.070000
v -0.270125 0.006562 0.070000
v -0.302630 0.018889 0.070000
v -0.333079 0.034923 0.070000
v -0.361000 0.054750 0.070000
v -0.385921 0.078451 0.070000
v -0.407370 0.106111 0.070000
v -0.424875 0.137812 0.070000
v -0.437963 0.173639 0.070000
v -0.446162 0.213674 0.070000
v -0.449000 0.258000 0.070000
v -0.449000 0.682000 0.070000
v -0.351000 0.682000 0.070000
v -0.351000 0.279000 0.070000
v -0.350785 0.260662 0.070000
v -0.350116 0.244046 0.070000
v -0.348953 0.229000 0.070000
v -0.347259 0.215370 0.070000
v -0.344996 0.203005 0.070000
v -0.342125 0.191750 0.070000
v -0.338608 0.181454 0.070000
v -0.334407 0.171963 0.070000
v -0.329484 0.163125 0.070000
v -0.323801 0.154787 0.070000
v -0.317319 0.146796 0.070000
v -0.310000 0.139000 0.070000
v -0.300042 0.129666 0.070000
v -0.289667 0.121162 0.070000
v -0.278875 0.113484 0.070000
v -0.267667 0.106630 0.070000
v -0.256042 0.100594 0.070000
v -0.244000 0.095375 0.070000
v -0.231542 0.090968 0.070000
v -0.218667 0.087370 0.070000
v -0.205375 0.084578 0.070000
v -0.191667 0.082588 0.070000
v -0.177542 0.081396 0.070000
v -0.163000 0.081000 0.070000
v -0.144689 0.081490 0.070000
v -0.127259 0.082921 0.070000
v -0.110719 0.085234 0.070000
v -0.095074 0.088370 0.070000
v -0.080332 0.092270 0.070000
v -0.066500 0.096875 0.070000
v -0.053584 0.102126 0.070000
v -0.041593 0.107963 0.070000
v -0.030531 0.114328 0.070000
v -0.020407 0.121162 0.070000
v -0.011228 0.128406 0.070000
v -0.003000 0.136000 0.070000
v 0.005199 0.145062 0.070000
v 0.012338 0.154745 0.070000
v 0.018484 0.165047 0.070000
v 0.023704 0.175963 0.070000
v 0.028062 0.187490 0.070000
v 0.031625 0.199625 0.070000
v 0.034459 0.212364 0.070000
v 0.036630 0.225704 0.070000
v 0.038203 0.239641 0.070000
v 0.039245 0.254171 0.070000
v 0.039822 0.269292 0.070000
v 0.040000 0.285000 0.070000
v 0.040000 0.682000 0.070000
v 0.138000 0.682000 0.070000
v 0.138000 0.268000 0.070000
v -0.805000 0.594000 0.070000
v -0.805000 0.405000 0.070000
v -0.539000 0.405000 0.070000
v -0.539000 0.317000 0.070000
v -0.805000 0.317000 0.070000
v -0.805000 0.000000 0.070000
v -0.903000 0.000000 0.070000
v -0.903000 0.682000 0.070000
v -0.539000 0.682000 0.070000
v -0.539000 0.594000 0.070000
v 0.784000 1.594000 0.070000
v 0.784000 1.388000 0.070000
v 1.063000 1.388000 0.070000
v 1.063000 1.300000 0.070000
v 0.784000 1.300000 0.070000
v 0.784000 1.088000 0.070000
v 1.082000 1.088000 0.070000
v 1.082000 1.000000 0.070000
v 0.686000 1.000000 0.070000
v 0.686000 1.682000 0.070000
v 1.073000 1.682000 0.070000
v 1.073000 1.594000 0.070000
v 0.302000 0.994000 0.070000
v 0.007000 1.682000 0.070000
v 0.105000 1.682000 0.070000
v 0.310000 1.203000 0.070000
v 0.514000 1.682000 0.070000
v 0.611000 1.682000 0.070000
v 0.322000 0.994000 0.070000
v -0.093000 1.000000 0.070000
v -0.184000 1.201000 0.070000
v -0.474000 1.201000 0.070000
v -0.560000 1.000000 0.070000
v -0.660000 1.000000 0.070000
v -0.367000 1.686000 0.070000
v -0.298000 1.686000 0.070000
v 0.007000 1.000000 0.070000
v -0.224000 1.289000 0.070000
v -0.334000 1.536000 0.070000
v -0.436000 1.289000 0.070000
v -0.834000 1.000000 0.070000
v -0.834000 1.297000 0.070000
v -1.216000 1.297000 0.070000
v -1.216000 1.000000 0.070000
v -1.314000 1.000000 0.070000
v -1.314000 1.682000 0.070000
v -1.216000 1.682000 0.070000
v -1.216000 1.385000 0.070000
v -0.834000 1.385000 0.070000
v -0.834000 1.682000 0.070000
v -0.736000 1.682000 0.070000
v -0.736000 1.000000 0.070000
v 1.340000 2.682000 0.070000
v 1.087000 2.360000 0.070000
v 1.087000 2.000000 0.070000
v 0.989000 2.000000 0.070000
v 0.989000 2.361000 0.070000
v 0.736000 2.682000 0.070000
v 0.854000 2.682000 0.070000
v 1.037000 2.447000 0.070000
v 1.222000 2.682000 0.070000
v 0.378487 2.687742 0.070000
v 0.429310 2.678268 0.070000
v 0.476266 2.663031 0.070000
v 0.519148 2.642482 0.070000
v 0.557753 2.617071 0.070000
v 0.591875 2.587250 0.070000
v 0.621310 2.553471 0.070000
v 0.645852 2.516185 0.070000
v 0.665297 2.475844 0.070000
v 0.679440 2.432898 0.070000
v 0.688076 2.387800 0.070000
v 0.691000 2.341000 0.070000
v 0.688151 2.295461 0.070000
v 0.679708 2.251185 0.070000
v 0.665828 2.208688 0.070000
v 0.646667 2.168482 0.070000
v 0.622380 2.131081 0.070000
v 0.593125 2.097000 0.070000
v 0.559057 2.066752 0.070000
v 0.520333 2.040852 0.070000
v 0.477109 2.019813 0.070000
v 0.429542 2.004148 0.070000
v 0.377786 1.994373 0.070000
v 0.322000 1.991000 0.070000
v 0.267992 1.994354 0.070000
v 0.217606 2.004079 0.070000
v 0.171047 2.019672 0.070000
v 0.128518 2.040630 0.070000
v 0.090226 2.066448 0.070000
v 0.056375 2.096625 0.070000
v 0.027169 2.130656 0.070000
v 0.002815 2.168037 0.070000
v -0.016485 2.208266 0.070000
v -0.030523 2.250838 0.070000
v -0.039097 2.295251 0.070000
v -0.042000 2.341000 0.070000
v -0.039019 2.387590 0.070000
v -0.030236 2.432551 0.070000
v -0.015891 2.475422 0.070000
v 0.003778 2.515741 0.070000
v 0.028529 2.553046 0.070000
v 0.058125 2.586875 0.070000
v 0.092325 2.616767 0.070000
v 0.130889 2.642259 0.070000
v 0.173578 2.662891 0.070000
v 0.220153 2.678199 0.070000
v 0.270373 2.687723 0.070000
v 0.324000 2.691000 0.070000
v 0.361374 2.083270 0.070000
v 0.396829 2.089912 0.070000
v 0.430109 2.100672 0.070000
v 0.460963 2.115296 0.070000
v 0.489136 2.133532 0.070000
v 0.514375 2.155125 0.070000
v 0.536426 2.179822 0.070000
v 0.555037 2.207370 0.070000
v 0.569953 2.237516 0.070000
v 0.580921 2.270005 0.070000
v 0.587688 2.304584 0.070000
v 0.590000 2.341000 0.070000
v 0.587688 2.377626 0.070000
v 0.580921 2.412343 0.070000
v 0.569953 2.444906 0.070000
v 0.555037 2.475074 0.070000
v 0.536426 2.502603 0.070000
v 0.514375 2.527250 0.070000
v 0.489136 2.548772 0.070000
v 0.460963 2.566926 0.070000
v 0.430109 2.581469 0.070000
v 0.396829 2.592157 0.070000
v 0.361374 2.598749 0.070000
v 0.324000 2.601000 0.070000
v 0.286855 2.598749 0.070000
v 0.251592 2.592157 0.070000
v 0.218469 2.581469 0.070000
v 0.187741 2.566926 0.070000
v 0.159665 2.548772 0.070000
v 0.134500 2.527250 0.070000
v 0.112501 2.502603 0.070000
v 0.093926 2.475074 0.070000
v 0.079031 2.444906 0.070000
v 0.068074 2.412343 0.070000
v 0.061311 2.377626 0.070000
v 0.059000 2.341000 0.070000
v 0.061311 2.304584 0.070000
v 0.068074 2.270005 0.070000
v 0.079031 2.237516 0.070000
v 0.093926 2.207370 0.070000
v 0.112501 2.179822 0.070000
v 0.134500 2.155125 0.070000
v 0.159665 2.133532 0.070000
v 0.187741 2.115296 0.070000
v 0.218469 2.100672 0.070000
v 0.251592 2.089912 0.070000
v 0.286855 2.083270 0.070000
v 0.324000 2.081000 0.070000
v -0.164083 1.960953 0.070000
v -0.167412 1.931458 0.070000
v -0.173110 1.903734 0.070000
v -0.181296 1.878000 0.070000
v -0.192094 1.854474 0.070000
v -0.205625 1.833375 0.070000
v -0.222010 1.814922 0.070000
v -0.241371 1.799333 0.070000
v -0.263828 1.786828 0.070000
v -0.289505 1.777625 0.070000
v -0.318522 1.771943 0.070000
v -0.351000 1.770000 0.070000
v -0.353920 1.770020 0.070000
v -0.356695 1.770079 0.070000
v -0.359344 1.770172 0.070000
v -0.361889 1.770296 0.070000
v -0.364351 1.770448 0.070000
v -0.366750 1.770625 0.070000
v -0.369108 1.770822 0.070000
v -0.371445 1.771037 0.070000
v -0.373781 1.771266 0.070000
v -0.376139 1.771505 0.070000
v -0.378538 1.771751 0.070000
v -0.381000 1.772000 0.070000
v -0.399000 1.863000 0.070000
v -0.374000 1.863000 0.070000
v -0.349930 1.864084 0.070000
v -0.329519 1.867343 0.070000
v -0.312469 1.872781 0.070000
v -0.298482 1.880407 0.070000
v -0.287258 1.890228 0.070000
v -0.278500 1.902250 0.070000
v -0.271909 1.916480 0.070000
v -0.267185 1.932926 0.070000
v -0.264031 1.951594 0.070000
v -0.262148 1.972491 0.070000
v -0.261237 1.995624 0.070000
v -0.261000 2.021000 0.070000
v -0.261000 2.682000 0.070000
v -0.163000 2.682000 0.070000
v -0.163000 1.992000 0.070000
v -0.496000 2.000000 0.070000
v -0.952000 2.525000 0.070000
v -0.952000 2.000000 0.070000
v -1.044000 2.000000 0.070000
v -1.044000 2.682000 0.070000
v -0.966000 2.682000 0.070000
v -0.504000 2.154000 0.070000
v -0.504000 2.682000 0.070000
v -0.412000 2.682000 0.070000
v -0.412000 2.000000 0.070000
v -1.445000 2.594000 0.070000
v -1.445000 2.388000 0.070000
v -1.166000 2.388000 0.070000
v -1.166000 2.300000 0.070000
v -1.445000 2.300000 0.070000
v -1.445000 2.088000 0.070000
v -1.147000 2.088000 0.070000
v -1.147000 2.000000 0.070000
v -1.543000 2.000000 0.070000
v -1.543000 2.682000 0.070000
v -1.156000 2.682000 0.070000
v -1.156000 2.594000 0.070000
v 0.820000 0.000000 -0.070000
v 0.364000 0.525000 -0.070000
v 0.364000 0.000000 -0.070000
v 0.272000 0.000000 -0.070000
v 0.272000 0.682000 -0.070000
v 0.350000 0.682000 -0.070000
v 0.812000 0.154000 -0.070000
v 0.812000 0.682000 -0.070000
v 0.904000 0.682000 -0.070000
v 0.904000 0.000000 -0.070000
v 0.135915 0.227468 -0.070000
v 0.129653 0.189495 -0.070000
v 0.119203 0.154266 -0.070000
v 0.104556 0.121963 -0.070000
v 0.085700 0.092771 -0.070000
v 0.062625 0.066875 -0.070000
v 0.035321 0.044458 -0.070000
v 0.003778 0.025704 -0.070000
v -0.032016 0.010797 -0.070000
v -0.072069 -0.000079 -0.070000
v -0.116394 -0.006739 -0.070000
v -0.165000 -0.009000 -0.070000
v -0.200838 -0.007299 -0.070000
v -0.236037 -0.002139 -0.070000
v -0.270125 0.006562 -0.070000
v -0.302630 0.018889 -0.070000
v -0.333079 0.034923 -0.070000
v -0.361000 0.054750 -0.070000
v -0.385921 0.078451 -0.070000
v -0.407370 0.106111 -0.070000
v -0.424875 0.137812 -0.070000
v -0.437963 0.173639 -0.070000
v -0.446162 0.213674 -0.070000
v -0.449000 0.258000 -0.070000
v -0.449000 0.682000 -0.070000
v -0.351000 0.682000 -0.070000
v -0.351000 0.279000 -0.070000
v -0.350785 0.260662 -0.070000
v -0.350116 0.244046 -0.070000
v -0.348953 0.229000 -0.070000
v -0.347259 0.215370 -0.070000
v -0.344996 0.203005 -0.070000
v -0.342125 0.191750 -0.070000
v -0.338608 0.181454 -0.070000
v -0.334407 0.171963 -0.070000
v -0.329484 0.163125 -0.070000
v -0.323801 0.154787 -0.070000
v -0.317319 0.146796 -0.070000
v -0.310000 0.139000 -0.070000
v -0.300042 0.129666 -0.070000
v -0.289667 0.121162 -0.070000
v -0.278875 0.113484 -0.070000
v -0.267667 0.106630 -0.070000
v -0.256042 0.100594 -0.070000
v -0.244000 0.095375 -0.070000
v -0.231542 0.090968 -0.070000
v -0.218667 0.087370 -0.070000
v -0.205375 0.084578 -0.070000
v -0.191667 0.082588 -0.070000
v -0.177542 0.081396 -0.070000
v -0.163000 0.081000 -0.070000
v -0.144689 0.081490 -0.070000
v -0.127259 0.082921 -0.070000
v -0.110719 0.085234 -0.070000
v -0.095074 0.088370 -0.070000
v -0.080332 0.092270 -0.070000
v -0.066500 0.096875 -0.070000
v -0.053584 0.102126 -0.070000
v -0.041593 0.107963 -0.070000
v -0.030531 0.114328 -0.070000
v -0.020407 0.121162 -0.070000
v -0.011228 0.128406 -0.070000
v -0.003000 0.136000 -0.070000
v 0.005199 0.145062 -0.070000
v 0.012338 0.154745 -0.070000
v 0.018484 0.165047 -0.070000
v 0.023704 0.175963 -0.070000
v 0.028062 0.187490 -0.070000
v 0.031625 0.199625 -0.070000
v 0.034459 0.212364 -0.070000
v 0.036630 0.225704 -0.070000
v 0.038203 0.239641 -0.070000
v 0.039245 0.254171 -0.070000
v 0.039822 0.269292 -0.070000
v 0.040000 0.285000 -0.070000
v 0.040000 0.682000 -0.070000
v 0.138000 0.682000 -0.070000
v 0.138000 0.268000 -0.070000
v -0.805000 0.594000 -0.070000
v -0.805000 0.405000 -0.070000
v -0.539000 0.405000 -0.070000
v -0.539000 0.317000 -0.070000
v -0.805000 0.317000 -0.070000
v -0.805000 0.000000 -0.070000
v -0.903000 0.000000 -0.070000
v -0.903000 0.682000 -0.070000
v -0.539000 0.682000 -0.070000
v -0.539000 0.594000 -0.070000
v 0.784000 1.594000 -0.070000
v 0.784000 1.388000 -0.070000
v 1.063000 1.388000 -0.070000
v 1.063000 1.300000 -0.070000
v 0.784000 1.300000 -0.070000
v 0.784000 1.088000 -0.070000
v 1.082000 1.088000 -0.070000
v 1.082000 1.000000 -0.070000
v 0.686000 1.000000 -0.070000
v 0.686000 1.682000 -0.070000
v 1.073000 1.682000 -0.070000
v 1.073000 1.594000 -0.070000
v 0.302000 0.994000 -0.070000
v 0.007000 1.682000 -0.070000
v 0.105000 1.682000 -0.070000
v 0.310000 1.203000 -0.070000
v 0.514000 1.682000 -0.070000
v 0.611000 1.682000 -0.070000
v 0.322000 0.994000 -0.070000
v -0.093000 1.000000 -0.070000
v -0.184000 1.201000 -0.070000
v -0.474000 1.201000 -0.070000
v -0.560000 1.000000 -0.070000
v -0.660000 1.000000 -0.070000
v -0.367000 1.686000 -0.070000
v -0.298000 1.686000 -0.070000
v 0.007000 1.000000 -0.070000
v -0.224000 1.289000 -0.070000
v -0.334000 1.536000 -0.070000
v -0.436000 1.289000 -0.070000
v -0.834000 1.000000 -0.070000
v -0.834000 1.297000 -0.070000
v -1.216000 1.297000 -0.070000
v -1.216000 1.000000 -0.070000
v -1.314000 1.000000 -0.070000
v -1.314000 1.682000 -0.070000
v -1.216000 1.682000 -0.070000
v -1.216000 1.385000 -0.070000
v -0.834000 1.385000 -0.070000
v -0.834000 1.682000 -0.070000
v -0.736000 1.682000 -0.070000
v -0.736000 1.000000 -0.070000
v 1.340000 2.682000 -0.070000
v 1.087000 2.360000 -0.070000
v 1.087000 2.000000 -0.070000
v 0.989000 2.000000 -0.070000
v 0.989000 2.361000 -0.070000
v 0.736000 2.682000 -0.070000
v 0.854000 2.682000 -0.070000
v 1.037000 2.447000 -0.070000
v 1.222000 2.682000 -0.070000
v 0.378487 2.687742 -0.070000
v 0.429310 2.678268 -0.070000
v 0.476266 2.663031 -0.070000
v 0.519148 2.642482 -0.070000
v 0.557753 2.617071 -0.070000
v 0.591875 2.587250 -0.070000
v 0.621310 2.553471 -0.070000
v 0.645852 2.516185 -0.070000
v 0.665297 2.475844 -0.070000
v 0.679440 2.432898 -0.070000
v 0.688076 2.387800 -0.070000
v 0.691000 2.341000 -0.070000
v 0.688151 2.295461 -0.070000
v 0.679708 2.251185 -0.070000
v 0.665828 2.208688 -0.070000
v 0.646667 2.168482 -0.070000
v 0.622380 2.131081 -0.070000
v 0.593125 2.097000 -0.070000
v 0.559057 2.066752 -0.070000
v 0.520333 2.040852 -0.070000
v 0.477109 2.019813 -0.070000
v 0.429542 2.004148 -0.070000
v 0.377786 1.994373 -0.070000
v 0.322000 1.991000 -0.070000
v 0.267992 1.994354 -0.070000
v 0.217606 2.004079 -0.070000
v 0.171047 2.019672 -0.070000
v 0.128518 2.040630 -0.070000
v 0.090226 2.066448 -0.070000
v 0.056375 2.096625 -0.070000
v 0.027169 2.130656 -0.070000
v 0.002815 2.168037 -0.070000
v -0.016485 2.208266 -0.070000
v -0.030523 2.250838 -0.070000
v -0.039097 2.295251 -0.070000
v -0.042000 2.341000 -0.070000
v -0.039019 2.387590 -0.070000
v -0.030236 2.432551 -0.070000
v -0.015891 2.475422 -0.070000
v 0.003778 2.515741 -0.070000
v 0.028529 2.553046 -0.070000
v 0.058125 2.586875 -0.070000
v 0.092325 2.616767 -0.070000
v 0.130889 2.642259 -0.070000
v 0.173578 2.662891 -0.070000
v 0.220153 2.678199 -0.070000
v 0.270373 2.687723 -0.070000
v 0.324000 2.691000 -0.070000
v 0.361374 2.083270 -0.070000
v 0.396829 2.089912 -0.070000
v 0.430109 2.100672 -0.070000
v 0.460963 2.115296 -0.070000
v 0.489136 2.133532 -0.070000
v 0.514375 2.155125 -0.070000
v 0.536426 2.179822 -0.070000
v 0.555037 2.207370 -0.070000
v 0.569953 2.237516 -0.070000
v 0.580921 2.270005 -0.070000
v 0.587688 2.304584 -0.070000
v 0.590000 2.341000 -0.070000
v 0.587688 2.377626 -0.070000
v 0.580921 2.412343 -0.070000
v 0.569953 2.444906 -0.070000
v 0.555037 2.475074 -0.070000
v 0.536426 2.502603 -0.070000
v 0.514375 2.527250 -0.070000
v 0.489136 2.548772 -0.070000
v 0.460963 2.566926 -0.070000
v 0.430109 2.581469 -0.070000
v 0.396829 2.592157 -0.070000
v 0.361374 2.598749 -0.070000
v 0.324000 2.601000 -0.070000
v 0.286855 2.598749 -0.070000
v 0.251592 2.592157 -0.070000
v 0.218469 2.581469 -0.070000
v 0.187741 2.566926 -0.070000
v 0.159665 2.548772 -0.070000
v 0.134500 2.527250 -0.070000
v 0.112501 2.502603 -0.070000
v 0.093926 2.475074 -0.070000
v 0.079031 2.444906 -0.070000
v 0.068074 2.412343 -0.070000
v 0.061311 2.377626 -0.070000
v 0.059000 2.341000 -0.070000
v 0.061311 2.304584 -0.070000
v 0.068074 2.270005 -0.070000
v 0.079031 2.237516 -0.070000
v 0.093926 2.207370 -0.070000
v 0.112501 2.179822 -0.070000
v 0.134500 2.155125 -0.070000
v 0.159665 2.133532 -0.070000
v 0.187741 2.115296 -0.070000
v 0.218469 2.100672 -0.070000
v 0.251592 2.089912 -0.070000
v 0.286855 2.083270 -0.070000
v 0.324000 2.081000 -0.070000
v -0.164083 1.960953 -0.070000
v -0.167412 1.931458 -0.070000
v -0.173110 1.903734 -0.070000
v -0.181296 1.878000 -0.070000
v -0.192094 1.854474 -0.070000
v -0.205625 1.833375 -0.070000
v -0.222010 1.814922 -0.070000
v -0.241371 1.799333 -0.070000
v -0.263828 1.786828 -0.070000
v -0.289505 1.777625 -0.070000
v -0.318522 1.771943 -0.070000
v -0.351000 1.770000 -0.070000
v -0.353920 1.770020 -0.070000
v -0.356695 1.770079 -0.070000
v -0.359344 1.770172 -0.070000
v -0.361889 1.770296 -0.070000
v -0.364351 1.770448 -0.070000
v -0.366750 1.770625 -0.070000
v -0.369108 1.770822 -0.070000
v -0.371445 1.771037 -0.070000
v -0.373781 1.771266 -0.070000
v -0.376139 1.771505 -0.070000
v -0.378538 1.771751 -0.070000
v -0.381000 1.772000 -0.070000
v -0.399000 1.863000 -0.070000
v -0.374000 1.863000 -0.070000
v -0.349930 1.864084 -0.070000
v -0.329519 1.867343 -0.070000
v -0.312469 1.872781 -0.070000
v -0.298482 1.880407 -0.070000
v -0.287258 1.890228 -0.070000
v -0.278500 1.902250 -0.070000
v -0.271909 1.916480 -0.070000
v -0.267185 1.932926 -0.070000
v -0.264031 1.951594 -0.070000
v -0.262148 1.972491 -0.070000
v -0.261237 1.995624 -0.070000
v -0.261000 2.021000 -0.070000
v -0.261000 2.682000 -0.070000
v -0.163000 2.682000 -0.070000
v -0.163000 1.992000 -0.070000
v -0.496000 2.000000 -0.070000
v -0.952000 2.525000 -0.070000
v -0.952000 2.000000 -0.070000
v -1.044000 2.000000 -0.070000
v -1.044000 2.682000 -0.070000
v -0.966000 2.682000 -0.070000
v -0.504000 2.154000 -0.070000
v -0.504000 2.682000 -0.070000
v -0.412000 2.682000 -0.070000
v -0.412000 2.000000 -0.070000
v -1.445000 2.594000 -0.070000
v -1.445000 2.388000 -0.070000
v -1.166000 2.388000 -0.070000
v -1.166000 2.300000 -0.070000
v -1.445000 2.300000 -0.070000
v -1.445000 2.088000 -0.070000
v -1.147000 2.088000 -0.070000
v -1.147000 2.000000 -0.070000
v -1.543000 2.000000 -0.070000
v -1.543000 2.682000 -0.070000
v -1.156000 2.682000 -0.070000
v -1.156000 2.594000 -0.070000
v -1.445000 2.594000 -0.070000
v -1.445000 2.594000 0.070000
v -1.445000 2.388000 -0.070000
v -1.445000 2.388000 0.070000
v -1.166000 2.388000 -0.070000
v -1.166000 2.388000 0.070000
v -1.166000 2.300000 -0.070000
v -1.166000 2.300000 0.070000
v -1.445000 2.300000 -0.070000
v -1.445000 2.300000 0.070000
v -1.445000 2.088000 -0.070000
v -1.445000 2.088000 0.070000
v -1.147000 2.088000 -0.070000
v -1.147000 2.088000 0.070000
v -1.147000 2.000000 -0.070000
v -1.147000 2.000000 0.070000
v -1.543000 2.000000 -0.070000
v -1.543000 2.000000 0.070000
v -1.543000 2.682000 -0.070000
v -1.543000 2.682000 0.070000
v -1.156000 2.682000 -0.070000
v -1.156000 2.682000 0.070000
v -1.156000 2.594000 -0.070000
v -1.156000 2.594000 0.070000
v -0.496000 2.000000 -0.070000
v -0.496000 2.000000 0.070000
v -0.952000 2.525000 -0.070000
v -0.952000 2.525000 0.070000
v -0.952000 2.000000 -0.070000
v -0.952000 2.000000 0.070000
v -1.044000 2.000000 -0.070000
v -1.044000 2.000000 0.070000
v -1.044000 2.682000 -0.070000
v -1.044000 2.682000 0.070000
v -0.966000 2.682000 -0.070000
v -0.966000 2.682000 0.070000
v -0.504000 2.154000 -0.070000
v -0.504000 2.154000 0.070000
v -0.504000 2.682000 -0.070000
v -0.504000 2.682000 0.070000
v -0.412000 2.682000 -0.070000
v -0.412000 2.682000 0.070000
v -0.412000 2.000000 -0.070000
v -0.412000 2.000000 0.070000
v -0.164083 1.960953 -0.070000
v -0.164083 1.960953 0.070000
v -0.167412 1.931458 -0.070000
v -0.167412 1.931458 0.070000
v -0.173110 1.903734 -0.070000
v -0.173110 1.903734 0.070000
v -0.181296 1.878000 -0.070000
v -0.181296 1.878000 0.070000
v -0.192094 1.854474 -0.070000
v -0.192094 1.854474 0.070000
v -0.205625 1.833375 -0.070000
v -0.205625 1.833375 0.070000
v -0.222010 1.814922 -0.070000
v -0.222010 1.814922 0.070000
v -0.241371 1.799333 -0.070000
v -0.241371 1.799333 0.070000
v -0.263828 1.786828 -0.070000
v -0.263828 1.786828 0.070000
v -0.289505 1.777625 -0.070000
v -0.289505 1.777625 0.070000
v -0.318522 1.771943 -0.070000
v -0.318522 1.771943 0.070000
v -0.351000 1.770000 -0.070000
v -0.351000 1.770000 0.070000
v -0.353920 1.770020 -0.070000
v -0.353920 1.770020 0.070000
v -0.356695 1.770079 -0.070000
v -0.356695 1.770079 0.070000
v -0.359344 1.770172 -0.070000
v -0.359344 1.770172 0.070000
v -0.361889 1.770296 -0.070000
v -0.361889 1.770296 0.070000
v -0.364351 1.770448 -0.070000
v -0.364351 1.770448 0.070000
v -0.366750 1.770625 -0.070000
v -0.366750 1.770625 0.070000
v -0.369108 1.770822 -0.070000
v -0.369108 1.770822 0.070000
v -0.371445 1.771037 -0.070000
v -0.371445 1.771037 0.070000
v -0.373781 1.771266 -0.070000
v -0.373781 1.771266 0.070000
v -0.376139 1.771505 -0.070000
v -0.376139 1.771505 0.070000
v -0.378538 1.771751 -0.070000
v -0.378538 1.771751 0.070000
v -0.381000 1.772000 -0.070000
v -0.381000 1.772000 0.070000
v -0.399000 1.863000 -0.070000
v -0.399000 1.863000 0.070000
v -0.374000 1.863000 -0.070000
v -0.374000 1.863000 0.070000
v -0.349930 1.864084 -0.070000
v -0.349930 1.864084 0.070000
v -0.329519 1.867343 -0.070000
v -0.329519 1.867343 0.070000
v -0.312469 1.872781 -0.070000
v -0.312469 1.872781 0.070000
v -0.298482 1.880407 -0.070000
v -0.298482 1.880407 0.070000
v -0.287258 1.890228 -0.070000
v -0.287258 1.890228 0.070000
v -0.278500 1.902250 -0.070000
v -0.278500 1.902250 0.070000
v -0.271909 1.916480 -0.070000
v -0.271909 1.916480 0.070000
v -0.267185 1.932926 -0.070000
v -0.267185 1.932926 0.070000
v -0.264031 1.951594 -0.070000
v -0.264031 1.951594 0.070000
v -0.262148 1.972491 -0.070000
v -0.262148 1.972491 0.070000
v -0.261237 1.995624 -0.070000
v -0.261237 1.995624 0.070000
v -0.261000 2.021000 -0.070000
v -0.261000 2.021000 0.070000
v -0.261000 2.682000 -0.070000
v -0.261000 2.682000 0.070000
v -0.163000 2.682000 -0.070000
v -0.163000 2.682000 0.070000
v -0.163000 1.992000 -0.070000
v -0.163000 1.992000 0.070000
v 0.378487 2.687742 -0.070000
v 0.378487 2.687742 0.070000
v 0.429310 2.678268 -0.070000
v 0.429310 2.678268 0.070000
v 0.476266 2.663031 -0.070000
v 0.476266 2.663031 0.070000
v 0.519148 2.642482 -0.070000
v 0.519148 2.642482 0.070000
v 0.557753 2.617071 -0.070000
v 0.557753 2.617071 0.070000
v 0.591875 2.587250 -0.070000
v 0.591875 2.587250 0.070000
v 0.621310 2.553471 -0.070000
v 0.621310 2.553471 0.070000
v 0.645852 2.516185 -0.070000
v 0.645852 2.516185 0.070000
v 0.665297 2.475844 -0.070000
v 0.665297 2.475844 0.070000
v 0.679440 2.432898 -0.070000
v 0.679440 2.432898 0.070000
v 0.688076 2.387800 -0.070000
v 0.688076 2.387800 0.070000
v 0.691000 2.341000 -0.070000
v 0.691000 2.341000 0.070000
v 0.688151 2.295461 -0.070000
v 0.688151 2.295461 0.070000
v 0.679708 2.251185 -0.070000
v 0.679708 2.251185 0.070000
v 0.665828 2.208688 -0.070000
v 0.665828 2.208688 0.070000
v 0.646667 2.168482 -0.070000
v 0.646667 2.168482 0.070000
v 0.622380 2.131081 -0.070000
v 0.622380 2.131081 0.070000
v 0.593125 2.097000 -0.070000
v 0.593125 2.097000 0.070000
v 0.559057 2.066752 -0.070000
v 0.559057 2.066752 0.070000
v 0.520333 2.040852 -0.070000
v 0.520333 2.040852 0.070000
v 0.477109 2.019813 -0.070000
v 0.477109 2.019813 0.070000
v 0.429542 2.004148 -0.070000
v 0.429542 2.004148 0.070000
v 0.377786 1.994373 -0.070000
v 0.377786 1.994373 0.070000
v 0.322000 1.991000 -0.070000
v 0.322000 1.991000 0.070000
v 0.267992 1.994354 -0.070000
v 0.267992 1.994354 0.070000
v 0.217606 2.004079 -0.070000
v 0.217606 2.004079 0.070000
v 0.171047 2.019672 -0.070000
v 0.171047 2.019672 0.070000
v 0.128518 2.040630 -0.070000
v 0.128518 2.040630 0.070000
v 0.090226 2.066448 -0.070000
v 0.090226 2.066448 0.070000
v 0.056375 2.096625 -0.070000
v 0.056375 2.096625 0.070000
v 0.027169 2.130656 -0.070000
v 0.027169 2.130656 0.070000
v 0.002815 2.168037 -0.070000
v 0.002815 2.168037 0.070000
v -0.016485 2.208266 -0.070000
v -0.016485 2.208266 0.070000
v -0.030523 2.250838 -0.070000
v -0.030523 2.250838 0.070000
v -0.039097 2.295251 -0.070000
v -0.039097 2.295251 0.070000
v -0.042000 2.341000 -0.070000
v -0.042000 2.341000 0.070000
v -0.039019 2.387590 -0.070000
v -0.039019 2.387590 0.070000
v -0.030236 2.432551 -0.070000
v -0.030236 2.432551 0.070000
v -0.015891 2.475422 -0.070000
v -0.015891 2.475422 0.070000
v 0.003778 2.515741 -0.070000
v 0.003778 2.515741 0.070000
v 0.028529 2.553046 -0.070000
v 0.028529 2.553046 0.070000
v 0.058125 2.586875 -0.070000
v 0.058125 2.586875 0.070000
v 0.092325 2.616767 -0.070000
v 0.092325 2.616767 0.070000
v 0.130889 2.642259 -0.070000
v 0.130889 2.642259 0.070000
v 0.173578 2.662891 -0.070000
v 0.173578 2.662891 0.070000
v 0.220153 2.678199 -0.070000
v 0.220153 2.678199 0.070000
v 0.270373 2.687723 -0.070000
v 0.270373 2.687723 0.070000
v 0.324000 2.691000 -0.070000
v 0.324000 2.691000 0.070000
v 0.361374 2.083270 -0.070000
v 0.361374 2.083270 0.070000
v 0.396829 2.089912 -0.070000
v 0.396829 2.089912 0.070000
v 0.430109 2.100672 -0.070000
v 0.430109 2.100672 0.070000
v 0.460963 2.115296 -0.070000
v 0.460963 2.115296 0.070000
v 0.489136 2.133532 -0.070000
v 0.489136 2.133532 0.070000
v 0.514375 2.155125 -0.070000
v 0.514375 2.155125 0.070000
v 0.536426 2.179822 -0.070000
v 0.536426 2.179822 0.070000
v 0.555037 2.207370 -0.070000
v 0.555037 2.207370 0.070000
v 0.569953 2.237516 -0.070000
v 0.569953 2.237516 0.070000
v 0.580921 2.270005 -0.070000
v 0.580921 2.270005 0.070000
v 0.587688 2.304584 -0.070000
v 0.587688 2.304584 0.070000
v 0.590000 2.341000 -0.070000
v 0.590000 2.341000 0.070000
v 0.587688 2.377626 -0.070000
v 0.587688 2.377626 0.070000
v 0.580921 2.412343 -0.070000
v 0.580921 2.412343 0.070000
v 0.569953 2.444906 -0.070000
v 0.569953 2.444906 0.070000
v 0.555037 2.475074 -0.070000
v 0.555037 2.475074 0.070000
v 0.536426 2.502603 -0.070000
v 0.536426 2.502603 0.070000
v 0.514375 2.527250 -0.070000
v 0.514375 2.527250 0.070000
v 0.489136 2.548772 -0.070000
v 0.489136 2.548772 0.070000
v 0.460963 2.566926 -0.070000
v 0.460963 2.566926 0.070000
v 0.430109 2.581469 -0.070000
v 0.430109 2.581469 0.070000
v 0.396829 2.592157 -0.070000
v 0.396829 2.592157 0.070000
v 0.361374 2.598749 -0.070000
v 0.361374 2.598749 0.070000
v 0.324000 2.601000 -0.070000
v 0.324000 2.601000 0.070000
v 0.286855 2.598749 -0.070000
v 0.286855 2.598749 0.070000
v 0.251592 2.592157 -0.070000
v 0.251592 2.592157 0.070000
v 0.218469 2.581469 -0.070000
v 0.218469 2.581469 0.070000
v 0.187741 2.566926 -0.070000
v 0.187741 2.566926 0.070000
v 0.159665 2.548772 -0.070000
v 0.159665 2.548772 0.070000
v 0.134500 2.527250 -0.070000
v 0.134500 2.527250 0.070000
v 0.112501 2.502603 -0.070000
v 0.112501 2.502603 0.070000
v 0.093926 2.475074 -0.070000
v 0.093926 2.475074 0.070000
v 0.079031 2.444906 -0.070000
v 0.079031 2.444906 0.070000
v 0.068074 2.412343 -0.070000
v 0.068074 2.412343 0.070000
v 0.061311 2.377626 -0.070000
v 0.061311 2.377626 0.070000
v 0.059000 2.341000 -0.070000
v 0.059000 2.341000 0.070000
v 0.061311 2.304584 -0.070000
v 0.061311 2.304584 0.070000
v 0.068074 2.270005 -0.070000
v 0.068074 2.270005 0.070000
v 0.079031 2.237516 -0.070000
v 0.079031 2.237516 0.070000
v 0.093926 2.207370 -0.070000
v 0.093926 2.207370 0.070000
v 0.112501 2.179822 -0.070000
v 0.112501 2.179822 0.070000
v 0.134500 2.155125 -0.070000
v 0.134500 2.155125 0.070000
v 0.159665 2.133532 -0.070000
v 0.159665 2.133532 0.070000
v 0.187741 2.115296 -0.070000
v 0.187741 2.115296 0.070000
v 0.218469 2.100672 -0.070000
v 0.218469 2.100672 0.070000
v 0.251592 2.089912 -0.070000
v 0.251592 2.089912 0.070000
v 0.286855 2.083270 -0.070000
v 0.286855 2.083270 0.070000
v 0.324000 2.081000 -0.070000
v 0.324000 2.081000 0.070000
v 1.340000 2.682000 -0.070000
v 1.340000 2.682000 0.070000
v 1.087000 2.360000 -0.070000
v 1.087000 2.360000 0.070000
v 1.087000 2.000000 -0.070000
v 1.087000 2.000000 0.070000
v 0.989000 2.000000 -0.070000
v 0.989000 2.000000 0.070000
v 0.989000 2.361000 -0.070000
v 0.989000 2.361000 0.070000
v 0.736000 2.682000 -0.070000
v 0.736000 2.682000 0.070000
v 0.854000 2.682000 -0.070000
v 0.854000 2.682000 0.070000
v 1.037000 2.447000 -0.070000
v 1.037000 2.447000 0.070000
v 1.222000 2.682000 -0.070000
v 1.222000 2.682000 0.070000
v -0.834000 1.000000 -0.070000
v -0.834000 1.000000 0.070000
v -0.834000 1.297000 -0.070000
v -0.834000 1.297000 0.070000
v -1.216000 1.297000 -0.070000
v -1.216000 1.297000 0.070000
v -1.216000 1.000000 -0.070000
v -1.216000 1.000000 0.070000
v -1.314000 1.000000 -0.070000
v -1.314000 1.000000 0.070000
v -1.314000 1.682000 -0.070000
v -1.314000 1.682000 0.070000
v -1.216000 1.682000 -0.070000
v -1.216000 1.682000 0.070000
v -1.216000 1.385000 -0.070000
v -1.216000 1.385000 0.070000
v -0.834000 1.385000 -0.070000
v -0.834000 1.385000 0.070000
v -0.834000 1.682000 -0.070000
v -0.834000 1.682000 0.070000
v -0.736000 1.682000 -0.070000
v -0.736000 1.682000 0.070000
v -0.736000 1.000000 -0.070000
v -0.736000 1.000000 0.070000
v -0.093000 1.000000 -0.070000
v -0.093000 1.000000 0.070000
v -0.184000 1.201000 -0.070000
v -0.184000 1.201000 0.070000
v -0.474000 1.201000 -0.070000
v -0.474000 1.201000 0.070000
v -0.560000 1.000000 -0.070000
v -0.560000 1.000000 0.070000
v -0.660000 1.000000 -0.070000
v -0.660000 1.000000 0.070000
v -0.367000 1.686000 -0.070000
v -0.367000 1.686000 0.070000
v -0.298000 1.686000 -0.070000
v -0.298000 1.686000 0.070000
v 0.007000 1.000000 -0.070000
v 0.007000 1.000000 0.070000
v -0.224000 1.289000 -0.070000
v -0.224000 1.289000 0.070000
v -0.334000 1.536000 -0.070000
v -0.334000 1.536000 0.070000
v -0.436000 1.289000 -0.070000
v -0.436000 1.289000 0.070000
v 0.302000 0.994000 -0.070000
v 0.302000 0.994000 0.070000
v 0.007000 1.682000 -0.070000
v 0.007000 1.682000 0.070000
v 0.105000 1.682000 -0.070000
v 0.105000 1.682000 0.070000
v 0.310000 1.203000 -0.070000
v 0.310000 1.203000 0.070000
v 0.514000 1.682000 -0.070000
v 0.514000 1.682000 0.070000
v 0.611000 1.682000 -0.070000
v 0.611000 1.682000 0.070000
v 0.322000 0.994000 -0.070000
v 0.322000 0.994000 0.070000
v 0.784000 1.594000 -0.070000
v 0.784000 1.594000 0.070000
v 0.784000 1.388000 -0.070000
v 0.784000 1.388000 0.070000
v 1.063000 1.388000 -0.070000
v 1.063000 1.388000 0.070000
v 1.063000 1.300000 -0.070000
v 1.063000 1.300000 0.070000
v 0.784000 1.300000 -0.070000
v 0.784000 1.300000 0.070000
v 0.784000 1.088000 -0.070000
v 0.784000 1.088000 0.070000
v 1.082000 1.088000 -0.070000
v 1.082000 1.088000 0.070000
v 1.082000 1.000000 -0.070000
v 1.082000 1.000000 0.070000
v 0.686000 1.000000 -0.070000
v 0.686000 1.000000 0.070000
v 0.686000 1.682000 -0.070000
v 0.686000 1.682000 0.070000
v 1.073000 1.682000 -0.070000
v 1.073000 1.682000 0.070000
v 1.073000 1.594000 -0.070000
v 1.073000 1.594000 0.070000
v -0.805000 0.594000 -0.070000
v -0.805000 0.594000 0.070000
v -0.805000 0.405000 -0.070000
v -0.805000 0.405000 0.070000
v -0.539000 0.405000 -0.070000
v -0.539000 0.405000 0.070000
v -0.539000 0.317000 -0.070000
v -0.539000 0.317000 0.070000
v -0.805000 0.317000 -0.070000
v -0.805000 0.317000 0.070000
v -0.805000 0.000000 -0.070000
v -0.805000 0.000000 0.070000
v -0.903000 0.000000 -0.070000
v -0.903000 0.000000 0.070000
v -0.903000 0.682000 -0.070000
v -0.903000 0.682000 0.070000
v -0.539000 0.682000 -0.070000
v -0.539000 0.682000 0.070000
v -0.539000 0.594000 -0.070000
v -0.539000 0.594000 0.070000
v 0.135915 0.227468 -0.070000
v 0.135915 0.227468 0.070000
v 0.129653 0.189495 -0.070000
v 0.129653 0.189495 0.070000
v 0.119203 0.154266 -0.070000
v 0.119203 0.154266 0.070000
v 0.104556 0.121963 -0.070000
v 0.104556 0.121963 0.070000
v 0.085700 0.092771 -0.070000
v 0.085700 0.092771 0.070000
v 0.062625 0.066875 -0.070000
v 0.062625 0.066875 0.070000
v 0.035321 0.044458 -0.070000
v 0.035321 0.044458 0.070000
v 0.003778 0.025704 -0.070000
v 0.003778 0.025704 0.070000
v -0.032016 0.010797 -0.070000
v -0.032016 0.010797 0.070000
v -0.072069 -0.000079 -0.070000
v -0.072069 -0.000079 0.070000
v -0.116394 -0.006739 -0.070000
v -0.116394 -0.006739 0.070000
v -0.165000 -0.009000 -0.070000
v -0.165000 -0.009000 0.070000
v -0.200838 -0.007299 -0.070000
v -0.200838 -0.007299 0.070000
v -0.236037 -0.002139 -0.070000
v -0.236037 -0.002139 0.070000
v -0.270125 0.006562 -0.070000
v -0.270125 0.006562 0.070000
v -0.302630 0.018889 -0.070000
v -0.302630 0.018889 0.070000
v -0.333079 0.034923 -0.070000
v -0.333079 0.034923 0.070000
v -0.361000 0.054750 -0.070000
v -0.361000 0.054750 0.070000
v -0.385921 0.078451 -0.070000
v -0.385921 0.078451 0.070000
v -0.407370 0.106111 -0.070000
v -0.407370 0.106111 0.070000
v -0.424875 0.137812 -0.070000
v -0.424875 0.137812 0.070000
v -0.437963 0.173639 -0.070000
v -0.437963 0.173639 0.070000
v -0.446162 0.213674 -0.070000
v -0.446162 0.213674 0.070000
v -0.449000 0.258000 -0.070000
v -0.449000 0.258000 0.070000
v -0.449000 0.682000 -0.070000
v -0.449000 0.682000 0.070000
v -0.351000 0.682000 -0.070000
v -0.351000 0.682000 0.070000
v -0.351000 0.279000 -0.070000
v -0.351000 0.279000 0.070000
v -0.350785 0.260662 -0.070000
v -0.350785 0.260662 0.070000
v -0.350116 0.244046 -0.070000
v -0.350116 0.244046 0.070000
v -0.348953 0.229000 -0.070000
v -0.348953 0.229000 0.070000
v -0.347259 0.215370 -0.070000
v -0.347259 0.215370 0.070000
v -0.344996 0.203005 -0.070000
v -0.344996 0.203005 0.070000
v -0.342125 0.191750 -0.070000
v -0.342125 0.191750 0.070000
v -0.338608 0.181454 -0.070000
v -0.338608 0.181454 0.070000
v -0.334407 0.171963 -0.070000
v -0.334407 0.171963 0.070000
v -0.329484 0.163125 -0.070000
v -0.329484 0.163125 0.070000
v -0.323801 0.154787 -0.070000
v -0.323801 0.154787 0.070000
v -0.317319 0.146796 -0.070000
v -0.317319 0.146796 0.070000
v -0.310000 0.139000 -0.070000
v -0.310000 0.139000 0.070000
v -0.300042 0.129666 -0.070000
v -0.300042 0.129666 0.070000
v -0.289667 0.121162 -0.070000
v -0.289667 0.121162 0.070000
v -0.278875 0.113484 -0.070000
v -0.278875 0.113484 0.070000
v -0.267667 0.106630 -0.070000
v -0.267667 0.106630 0.070000
v -0.256042 0.100594 -0.070000
v -0.256042 0.100594 0.070000
v -0.244000 0.095375 -0.070000
v -0.244000 0.095375 0.070000
v -0.231542 0.090968 -0.070000
v -0.231542 0.090968 0.070000
v -0.218667 0.087370 -0.070000
v -0.218667 0.087370 0.070000
v -0.205375 0.084578 -0.070000
v -0.205375 0.084578 0.070000
v -0.191667 0.082588 -0.070000
v -0.191667 0.082588 0.070000
v -0.177542 0.081396 -0.070000
v -0.177542 0.081396 0.070000
v -0.163000 0.081000 -0.070000
v -0.163000 0.081000 0.070000
v -0.144689 0.081490 -0.070000
v -0.144689 0.081490 0.070000
v -0.127259 0.082921 -0.070000
v -0.127259 0.082921 0.070000
v -0.110719 0.085234 -0.070000
v -0.110719 0.085234 0.070000
v -0.095074 0.088370 -0.070000
v -0.095074 0.088370 0.070000
v -0.080332 0.092270 -0.070000
v -0.080332 0.092270 0.070000
v -0.066500 0.096875 -0.070000
v -0.066500 0.096875 0.070000
v -0.053584 0.102126 -0.070000
v -0.053584 0.102126 0.070000
v -0.041593 0.107963 -0.070000
v -0.041593 0.107963 0.070000
v -0.030531 0.114328 -0.070000
v -0.030531 0.114328 0.070000
v -0.020407 0.121162 -0.070000
v -0.020407 0.121162 0.070000
v -0.011228 0.128406 -0.070000
v -0.011228 0.128406 0.070000
v -0.003000 0.136000 -0.070000
v -0.003000 0.136000 0.070000
v 0.005199 0.145062 -0.070000
v 0.005199 0.145062 0.070000
v 0.012338 0.154745 -0.070000
v 0.012338 0.154745 0.070000
v 0.018484 0.165047 -0.070000
v 0.018484 0.165047 0.070000
v 0.023704 0.175963 -0.070000
v 0.023704 0.175963 0.070000
v 0.028062 0.187490 -0.070000
v 0.028062 0.187490 0.070000
v 0.031625 0.199625 -0.070000
v 0.031625 0.199625 0.070000
v 0.034459 0.212364 -0.070000
v 0.034459 0.212364 0.070000
v 0.036630 0.225704 -0.070000
v 0.036630 0.225704 0.070000
v 0.038203 0.239641 -0.070000
v 0.038203 0.239641 0.070000
v 0.039245 0.254171 -0.070000
v 0.039245 0.254171 0.070000
v 0.039822 0.269292 -0.070000
v 0.039822 0.269292 0.070000
v 0.040000 0.285000 -0.070000
v 0.040000 0.285000 0.070000
v 0.040000 0.682000 -0.070000
v 0.040000 0.682000 0.070000
v 0.138000 0.682000 -0.070000
v 0.138000 0.682000 0.070000
v 0.138000 0.268000 -0.070000
v 0.138000 0.268000 0.070000
v 0.820000 0.000000 -0.070000
v 0.820000 0.000000 0.070000
v 0.364000 0.525000 -0.070000
v 0.364000 0.525000 0.070000
v 0.364000 0.000000 -0.070000
v 0.364000 0.000000 0.070000
v 0.272000 0.000000 -0.070000
v 0.272000 0.000000 0.070000
v 0.272000 0.682000 -0.070000
v 0.272000 0.682000 0.070000
v 0.350000 0.682000 -0.070000
v 0.350000 0.682000 0.070000
v 0.812000 0.154000 -0.070000
v 0.812000 0.154000 0.070000
v 0.812000 0.682000 -0.070000
v 0.812000 0.682000 0.070000
v 0.904000 0.682000 -0.070000
v 0.904000 0.682000 0.070000
v 0.904000 0.000000 -0.070000
v 0.904000 0.000000 0.070000
vn -0.0000 -0.0000 1.0000
vn -0.0000 -0.0000 -1.0000
vn 0.7071 -0.7071 -0.0000
vn 0.7071 0.7071 -0.0000
vn -0.7071 -0.7071 -0.0000
vn -0.7071 0.7071 -0.0000
vn -0.4149 -0.9099 -0.0000
vn 0.3500 -0.9367 -0.0000
vn 0.4132 0.9106 -0.0000
vn -0.3517 0.9361 -0.0000
vn 0.9973 -0.0736 -0.0000
vn 0.9876 -0.1569 -0.0000
vn 0.9676 -0.2526 -0.0000
vn 0.9326 -0.3608 -0.0000
vn 0.8775 -0.4797 -0.0000
vn 0.7972 -0.6037 -0.0000
vn 0.6899 -0.7239 -0.0000
vn 0.5588 -0.8293 -0.0000
vn 0.4133 -0.9106 -0.0000
vn 0.2655 -0.9641 -0.0000
vn 0.1262 -0.9920 -0.0000
vn 0.0264 -0.9997 -0.0000
vn -0.0140 -0.9999 -0.0000
vn -0.0281 -0.9996 -0.0000
vn -0.0420 -0.9991 -0.0000
vn -0.0553 -0.9985 -0.0000
vn -0.0675 -0.9977 -0.0000
vn -0.0784 -0.9969 -0.0000
vn -0.0875 -0.9962 -0.0000
vn -0.0944 -0.9955 -0.0000
vn -0.0991 -0.9951 -0.0000
vn -0.1014 -0.9948 -0.0000
vn -0.6730 -0.7397 -0.0000
vn -0.7727 0.6348 -0.0000
vn -0.0225 0.9997 -0.0000
vn -0.1015 0.9948 -0.0000
vn -0.2314 0.9729 -0.0000
vn -0.3931 0.9195 -0.0000
vn -0.5720 0.8202 -0.0000
vn -0.7379 0.6749 -0.0000
vn -0.8620 0.5070 -0.0000
vn -0.9370 0.3492 -0.0000
vn -0.9751 0.2217 -0.0000
vn -0.9917 0.1283 -0.0000
vn -0.9979 0.0646 -0.0000
vn -0.9997 0.0243 -0.0000
vn -1.0000 0.0047 -0.0000
vn 0.9998 -0.0174 -0.0000
vn 0.1217 0.9926 -0.0000
vn 0.2465 0.9692 -0.0000
vn 0.3712 0.9285 -0.0000
vn 0.4921 0.8705 -0.0000
vn 0.6053 0.7960 -0.0000
vn 0.7076 0.7066 -0.0000
vn 0.7964 0.6048 -0.0000
vn 0.8700 0.4931 -0.0000
vn 0.9273 0.3743 -0.0000
vn 0.9680 0.2510 -0.0000
vn 0.9921 0.1255 -0.0000
vn 1.0000 -0.0000 -0.0000
vn 0.9921 -0.1251 -0.0000
vn 0.9684 -0.2494 -0.0000
vn 0.9286 -0.3711 -0.0000
vn 0.8726 -0.4885 -0.0000
vn 0.8005 -0.5993 -0.0000
vn 0.7130 -0.7012 -0.0000
vn 0.6114 -0.7913 -0.0000
vn 0.4980 -0.8672 -0.0000
vn 0.3761 -0.9266 -0.0000
vn 0.2497 -0.9683 -0.0000
vn 0.1232 -0.9924 -0.0000
vn -0.0008 -1.0000 -0.0000
vn -0.1260 -0.9920 -0.0000
vn -0.2541 -0.9672 -0.0000
vn -0.3807 -0.9247 -0.0000
vn -0.5017 -0.8650 -0.0000
vn -0.6136 -0.7896 -0.0000
vn -0.7137 -0.7004 -0.0000
vn -0.8001 -0.5999 -0.0000
vn -0.8716 -0.4902 -0.0000
vn -0.9276 -0.3736 -0.0000
vn -0.9678 -0.2519 -0.0000
vn -0.9919 -0.1267 -0.0000
vn -1.0000 0.0003 -0.0000
vn -0.9918 0.1281 -0.0000
vn -0.9669 0.2551 -0.0000
vn -0.9255 0.3787 -0.0000
vn -0.8679 0.4967 -0.0000
vn -0.7947 0.6070 -0.0000
vn -0.7069 0.7073 -0.0000
vn -0.6061 0.7954 -0.0000
vn -0.4944 0.8692 -0.0000
vn -0.3745 0.9272 -0.0000
vn -0.2498 0.9683 -0.0000
vn -0.1239 0.9923 -0.0000
vn -0.0007 1.0000 -0.0000
vn -0.1226 0.9925 -0.0000
vn -0.2464 0.9692 -0.0000
vn -0.3687 0.9295 -0.0000
vn -0.4869 0.8735 -0.0000
vn -0.5981 0.8015 -0.0000
vn -0.6996 0.7145 -0.0000
vn -0.7891 0.6143 -0.0000
vn -0.8644 0.5028 -0.0000
vn -0.9239 0.3825 -0.0000
vn -0.9665 0.2565 -0.0000
vn -0.9918 0.1280 -0.0000
vn -1.0000 0.0002 -0.0000
vn -0.9918 -0.1274 -0.0000
vn -0.9667 -0.2558 -0.0000
vn -0.9241 -0.3821 -0.0000
vn -0.8644 -0.5028 -0.0000
vn -0.7887 -0.6148 -0.0000
vn -0.6986 -0.7155 -0.0000
vn -0.5966 -0.8025 -0.0000
vn -0.4851 -0.8745 -0.0000
vn -0.3668 -0.9303 -0.0000
vn -0.2448 -0.9696 -0.0000
vn -0.1217 -0.9926 -0.0000
vn 0.0002 -1.0000 -0.0000
vn 0.1224 -0.9925 -0.0000
vn 0.2459 -0.9693 -0.0000
vn 0.3682 -0.9297 -0.0000
vn 0.4864 -0.8737 -0.0000
vn 0.5978 -0.8016 -0.0000
vn 0.6996 -0.7146 -0.0000
vn 0.7893 -0.6140 -0.0000
vn 0.8648 -0.5022 -0.0000
vn 0.9243 -0.3817 -0.0000
vn 0.9668 -0.2556 -0.0000
vn 0.9919 -0.1274 -0.0000
vn 1.0000 0.0002 -0.0000
vn 0.9918 0.1279 -0.0000
vn 0.9666 0.2563 -0.0000
vn 0.9241 0.3821 -0.0000
vn 0.8648 0.5022 -0.0000
vn 0.7897 0.6135 -0.0000
vn 0.7005 0.7136 -0.0000
vn 0.5993 0.8005 -0.0000
vn 0.4883 0.8727 -0.0000
vn 0.3701 0.9290 -0.0000
vn 0.2475 0.9689 -0.0000
vn 0.1233 0.9924 -0.0000
vn 0.0002 1.0000 -0.0000
vn 0.8994 0.4371 -0.0000
vn 0.9451 -0.3269 -0.0000
vn -0.9448 -0.3276 -0.0000
vn -0.8997 0.4365 -0.0000
vn 0.4391 0.8984 -0.0000
vn 0.0026 1.0000 -0.0000
vn -0.4367 0.8996 -0.0000
vn -0.5420 -0.8404 -0.0000
vn 0.5507 -0.8347 -0.0000
vn -0.8345 -0.5510 -0.0000
vn -0.5510 0.8345 -0.0000
vn 0.5449 0.8385 -0.0000
vn 0.8385 -0.5449 -0.0000
vn -0.8387 0.5446 -0.0000
vn 0.0137 -0.9999 -0.0000
vn 0.8312 0.5560 -0.0000
vn -0.5504 -0.8349 -0.0000
vn -0.8349 0.5504 -0.0000
vn 0.5507 0.8347 -0.0000
vn -0.0009 1.0000 -0.0000
vn -0.5514 0.8342 -0.0000
vn 0.8328 0.5535 -0.0000
vn 0.5535 -0.8329 -0.0000
vn 0.9942 -0.1072 -0.0000
vn 0.9746 -0.2240 -0.0000
vn 0.9369 -0.3495 -0.0000
vn 0.8778 -0.4791 -0.0000
vn 0.7957 -0.6057 -0.0000
vn 0.6927 -0.7212 -0.0000
vn 0.5744 -0.8185 -0.0000
vn 0.4489 -0.8936 -0.0000
vn 0.3239 -0.9461 -0.0000
vn 0.2057 -0.9786 -0.0000
vn 0.0977 -0.9952 -0.0000
vn -0.0005 -1.0000 -0.0000
vn -0.0963 -0.9953 -0.0000
vn -0.1965 -0.9805 -0.0000
vn -0.3014 -0.9535 -0.0000
vn -0.4110 -0.9116 -0.0000
vn -0.5236 -0.8520 -0.0000
vn -0.6357 -0.7720 -0.0000
vn -0.7418 -0.6706 -0.0000
vn -0.8353 -0.5497 -0.0000
vn -0.9101 -0.4145 -0.0000
vn -0.9621 -0.2726 -0.0000
vn -0.9912 -0.1326 -0.0000
vn -0.9995 -0.0320 -0.0000
vn 1.0000 0.0059 -0.0000
vn 0.9997 0.0260 -0.0000
vn 0.9983 0.0587 -0.0000
vn 0.9950 0.1002 -0.0000
vn 0.9884 0.1517 -0.0000
vn 0.9769 0.2137 -0.0000
vn 0.9584 0.2854 -0.0000
vn 0.9313 0.3643 -0.0000
vn 0.8950 0.4462 -0.0000
vn 0.8508 0.5255 -0.0000
vn 0.8021 0.5971 -0.0000
vn 0.7533 0.6576 -0.0000
vn 0.7068 0.7074 -0.0000
vn 0.6593 0.7519 -0.0000
vn 0.6072 0.7946 -0.0000
vn 0.5511 0.8345 -0.0000
vn 0.4916 0.8708 -0.0000
vn 0.4295 0.9031 -0.0000
vn 0.3658 0.9307 -0.0000
vn 0.3015 0.9535 -0.0000
vn 0.2375 0.9714 -0.0000
vn 0.1747 0.9846 -0.0000
vn 0.1139 0.9935 -0.0000
vn 0.0557 0.9984 -0.0000
vn -0.0543 0.9985 -0.0000
vn -0.1102 0.9939 -0.0000
vn -0.1676 0.9859 -0.0000
vn -0.2263 0.9741 -0.0000
vn -0.2859 0.9582 -0.0000
vn -0.3464 0.9381 -0.0000
vn -0.4074 0.9133 -0.0000
vn -0.4685 0.8835 -0.0000
vn -0.5295 0.8483 -0.0000
vn -0.5899 0.8075 -0.0000
vn -0.6493 0.7605 -0.0000
vn -0.7106 0.7036 -0.0000
vn -0.7742 0.6330 -0.0000
vn -0.8328 0.5536 -0.0000
vn -0.8814 0.4724 -0.0000
vn -0.9196 0.3929 -0.0000
vn -0.9481 0.3179 -0.0000
vn -0.9684 0.2496 -0.0000
vn -0.9820 0.1890 -0.0000
vn -0.9906 0.1364 -0.0000
vn -0.9958 0.0919 -0.0000
vn -0.9985 0.0548 -0.0000
vn -0.9997 0.0247 -0.0000
vn -1.0000 0.0057 -0.0000
vn 0.9997 -0.0257 -0.0000
vt 0.333333 0.000000
vt 0.555556 0.000000
vt 0.444444 0.000000
vt 0.111111 0.000000
vt 0.666667 0.000000
vt 0.888889 0.000000
vt 0.777778 0.000000
vt 1.000000 0.000000
vt 0.222222 0.000000
vt 0.000000 0.000000
vt 0.298701 0.000000
vt 0.324675 0.000000
vt 0.311688 0.000000
vt 0.337662 0.000000
vt 0.961039 0.000000
vt 0.987013 0.000000
vt 0.974026 0.000000
vt 0.948052 0.000000
vt 0.350649 0.000000
vt 0.935065 0.000000
vt 0.363636 0.000000
vt 0.285714 0.000000
vt 0.922078 0.000000
vt 0.376623 0.000000
vt 0.909091 0.000000
vt 0.389610 0.000000
vt 0.012987 0.000000
vt 0.896104 0.000000
vt 0.402597 0.000000
vt 0.272727 0.000000
vt 0.883117 0.000000
vt 0.415584 0.000000
vt 0.870130 0.000000
vt 0.428571 0.000000
vt 0.025974 0.000000
vt 0.857143 0.000000
vt 0.441558 0.000000
vt 0.844156 0.000000
vt 0.259740 0.000000
vt 0.454545 0.000000
vt 0.831169 0.000000
vt 0.467532 0.000000
vt 0.480519 0.000000
vt 0.818182 0.000000
vt 0.038961 0.000000
vt 0.493506 0.000000
vt 0.805195 0.000000
vt 0.506494 0.000000
vt 0.246753 0.000000
vt 0.792208 0.000000
vt 0.519481 0.000000
vt 0.779221 0.000000
vt 0.051948 0.000000
vt 0.532468 0.000000
vt 0.766234 0.000000
vt 0.753247 0.000000
vt 0.545455 0.000000
vt 0.740260 0.000000
vt 0.558442 0.000000
vt 0.233766 0.000000
vt 0.727273 0.000000
vt 0.571429 0.000000
vt 0.714286 0.000000
vt 0.584416 0.000000
vt 0.064935 0.000000
vt 0.701299 0.000000
vt 0.597403 0.000000
vt 0.688312 0.000000
vt 0.610390 0.000000
vt 0.675325 0.000000
vt 0.623377 0.000000
vt 0.662338 0.000000
vt 0.636364 0.000000
vt 0.649351 0.000000
vt 0.220779 0.000000
vt 0.077922 0.000000
vt 0.207792 0.000000
vt 0.090909 0.000000
vt 0.194805 0.000000
vt 0.103896 0.000000
vt 0.181818 0.000000
vt 0.116883 0.000000
vt 0.168831 0.000000
vt 0.129870 0.000000
vt 0.155844 0.000000
vt 0.142857 0.000000
vt 0.166667 0.000000
vt 0.500000 0.000000
vt 0.833333 0.000000
vt 0.400000 0.000000
vt 0.600000 0.000000
vt 0.900000 0.000000
vt 0.700000 0.000000
vt 0.800000 0.000000
vt 0.200000 0.000000
vt 0.100000 0.000000
vt 0.300000 0.000000
vt 0.750000 0.000000
vt 0.625000 0.000000
vt 0.875000 0.000000
vt 0.125000 0.000000
vt 0.375000 0.000000
vt 0.250000 0.000000
vt 0.484211 0.000000
vt 0.494737 0.000000
vt 0.010526 0.000000
vt 0.473684 0.000000
vt 0.021053 0.000000
vt 0.463158 0.000000
vt 0.031579 0.000000
vt 0.452632 0.000000
vt 0.042105 0.000000
vt 0.442105 0.000000
vt 0.052632 0.000000
vt 0.431579 0.000000
vt 0.747368 0.000000
vt 0.757895 0.000000
vt 0.736842 0.000000
vt 0.726316 0.000000
vt 0.768421 0.000000
vt 0.715789 0.000000
vt 0.778947 0.000000
vt 0.063158 0.000000
vt 0.421053 0.000000
vt 0.705263 0.000000
vt 0.789474 0.000000
vt 0.694737 0.000000
vt 0.073684 0.000000
vt 0.410526 0.000000
vt 0.684211 0.000000
vt 0.810526 0.000000
vt 0.673684 0.000000
vt 0.821053 0.000000
vt 0.084211 0.000000
vt 0.663158 0.000000
vt 0.831579 0.000000
vt 0.094737 0.000000
vt 0.389474 0.000000
vt 0.652632 0.000000
vt 0.842105 0.000000
vt 0.642105 0.000000
vt 0.852632 0.000000
vt 0.105263 0.000000
vt 0.378947 0.000000
vt 0.631579 0.000000
vt 0.863158 0.000000
vt 0.115789 0.000000
vt 0.368421 0.000000
vt 0.621053 0.000000
vt 0.873684 0.000000
vt 0.357895 0.000000
vt 0.884211 0.000000
vt 0.610526 0.000000
vt 0.126316 0.000000
vt 0.894737 0.000000
vt 0.136842 0.000000
vt 0.347368 0.000000
vt 0.905263 0.000000
vt 0.589474 0.000000
vt 0.147368 0.000000
vt 0.336842 0.000000
vt 0.578947 0.000000
vt 0.915789 0.000000
vt 0.157895 0.000000
vt 0.326316 0.000000
vt 0.568421 0.000000
vt 0.926316 0.000000
vt 0.557895 0.000000
vt 0.936842 0.000000
vt 0.168421 0.000000
vt 0.315789 0.000000
vt 0.547368 0.000000
vt 0.947368 0.000000
vt 0.536842 0.000000
vt 0.957895 0.000000
vt 0.178947 0.000000
vt 0.305263 0.000000
vt 0.526316 0.000000
vt 0.968421 0.000000
vt 0.515789 0.000000
vt 0.978947 0.000000
vt 0.189474 0.000000
vt 0.294737 0.000000
vt 0.505263 0.000000
vt 0.989474 0.000000
vt 0.284211 0.000000
vt 0.210526 0.000000
vt 0.273684 0.000000
vt 0.221053 0.000000
vt 0.263158 0.000000
vt 0.231579 0.000000
vt 0.252632 0.000000
vt 0.242105 0.000000
vt 0.925000 0.000000
vt 0.975000 0.000000
vt 0.950000 0.000000
vt 0.850000 0.000000
vt 0.025000 0.000000
vt 0.825000 0.000000
vt 0.050000 0.000000
vt 0.775000 0.000000
vt 0.075000 0.000000
vt 0.725000 0.000000
vt 0.675000 0.000000
vt 0.650000 0.000000
vt 0.575000 0.000000
vt 0.150000 0.000000
vt 0.175000 0.000000
vt 0.225000 0.000000
vt 0.550000 0.000000
vt 0.275000 0.000000
vt 0.525000 0.000000
vt 0.475000 0.000000
vt 0.450000 0.000000
vt 0.425000 0.000000
vt 0.350000 0.000000
vt 0.325000 0.000000
vt 0.000000 1.000000
vt 0.083333 1.000000
vt 0.083333 0.000000
vt 0.166667 1.000000
vt 0.250000 1.000000
vt 0.333333 1.000000
vt 0.416667 1.000000
vt 0.416667 0.000000
vt 0.500000 1.000000
vt 0.583333 1.000000
vt 0.583333 0.000000
vt 0.666667 1.000000
vt 0.750000 1.000000
vt 0.833333 1.000000
vt 0.916667 1.000000
vt 0.916667 0.000000
vt 1.000000 1.000000
vt 0.100000 1.000000
vt 0.200000 1.000000
vt 0.300000 1.000000
vt 0.400000 1.000000
vt 0.600000 1.000000
vt 0.700000 1.000000
vt 0.800000 1.000000
vt 0.900000 1.000000
vt 0.024390 1.000000
vt 0.024390 0.000000
vt 0.048780 1.000000
vt 0.048780 0.000000
vt 0.073171 1.000000
vt 0.073171 0.000000
vt 0.097561 1.000000
vt 0.097561 0.000000
vt 0.121951 1.000000
vt 0.121951 0.000000
vt 0.146341 1.000000
vt 0.146341 0.000000
vt 0.170732 1.000000
vt 0.170732 0.000000
vt 0.195122 1.000000
vt 0.195122 0.000000
vt 0.219512 1.000000
vt 0.219512 0.000000
vt 0.243902 1.000000
vt 0.243902 0.000000
vt 0.268293 1.000000
vt 0.268293 0.000000
vt 0.292683 1.000000
vt 0.292683 0.000000
vt 0.317073 1.000000
vt 0.317073 0.000000
vt 0.341463 1.000000
vt 0.341463 0.000000
vt 0.365854 1.000000
vt 0.365854 0.000000
vt 0.390244 1.000000
vt 0.390244 0.000000
vt 0.414634 1.000000
vt 0.414634 0.000000
vt 0.439024 1.000000
vt 0.439024 0.000000
vt 0.463415 1.000000
vt 0.463415 0.000000
vt 0.487805 1.000000
vt 0.487805 0.000000
vt 0.512195 1.000000
vt 0.512195 0.000000
vt 0.536585 1.000000
vt 0.536585 0.000000
vt 0.560976 1.000000
vt 0.560976 0.000000
vt 0.585366 1.000000
vt 0.585366 0.000000
vt 0.609756 1.000000
vt 0.609756 0.000000
vt 0.634146 1.000000
vt 0.634146 0.000000
vt 0.658537 1.000000
vt 0.658537 0.000000
vt 0.682927 1.000000
vt 0.682927 0.000000
vt 0.707317 1.000000
vt 0.707317 0.000000
vt 0.731707 1.000000
vt 0.731707 0.000000
vt 0.756098 1.000000
vt 0.756098 0.000000
vt 0.780488 1.000000
vt 0.780488 0.000000
vt 0.804878 1.000000
vt 0.804878 0.000000
vt 0.829268 1.000000
vt 0.829268 0.000000
vt 0.853659 1.000000
vt 0.853659 0.000000
vt 0.878049 1.000000
vt 0.878049 0.000000
vt 0.902439 1.000000
vt 0.902439 0.000000
vt 0.926829 1.000000
vt 0.926829 0.000000
vt 0.951219 1.000000
vt 0.951219 0.000000
vt 0.975610 1.000000
vt 0.975610 0.000000
vt 0.020833 1.000000
vt 0.020833 0.000000
vt 0.041667 1.000000
vt 0.041667 0.000000
vt 0.062500 1.000000
vt 0.062500 0.000000
vt 0.104167 1.000000
vt 0.104167 0.000000
vt 0.125000 1.000000
vt 0.145833 1.000000
vt 0.145833 0.000000
vt 0.187500 1.000000
vt 0.187500 0.000000
vt 0.208333 1.000000
vt 0.208333 0.000000
vt 0.229167 1.000000
vt 0.229167 0.000000
vt 0.270833 1.000000
vt 0.270833 0.000000
vt 0.291667 1.000000
vt 0.291667 0.000000
vt 0.312500 1.000000
vt 0.312500 0.000000
vt 0.354167 1.000000
vt 0.354167 0.000000
vt 0.375000 1.000000
vt 0.395833 1.000000
vt 0.395833 0.000000
vt 0.437500 1.000000
vt 0.437500 0.000000
vt 0.458333 1.000000
vt 0.458333 0.000000
vt 0.479167 1.000000
vt 0.479167 0.000000
vt 0.520833 1.000000
vt 0.520833 0.000000
vt 0.541667 1.000000
vt 0.541667 0.000000
vt 0.562500 1.000000
vt 0.562500 0.000000
vt 0.604167 1.000000
vt 0.604167 0.000000
vt 0.625000 1.000000
vt 0.645833 1.000000
vt 0.645833 0.000000
vt 0.687500 1.000000
vt 0.687500 0.000000
vt 0.708333 1.000000
vt 0.708333 0.000000
vt 0.729167 1.000000
vt 0.729167 0.000000
vt 0.770833 1.000000
vt 0.770833 0.000000
vt 0.791667 1.000000
vt 0.791667 0.000000
vt 0.812500 1.000000
vt 0.812500 0.000000
vt 0.854167 1.000000
vt 0.854167 0.000000
vt 0.875000 1.000000
vt 0.895833 1.000000
vt 0.895833 0.000000
vt 0.937500 1.000000
vt 0.937500 0.000000
vt 0.958333 1.000000
vt 0.958333 0.000000
vt 0.979167 1.000000
vt 0.979167 0.000000
vt 0.111111 1.000000
vt 0.222222 1.000000
vt 0.444444 1.000000
vt 0.555556 1.000000
vt 0.777778 1.000000
vt 0.888889 1.000000
vt 0.142857 1.000000
vt 0.285714 1.000000
vt 0.428571 1.000000
vt 0.571429 1.000000
vt 0.714286 1.000000
vt 0.857143 1.000000
vt 0.012821 1.000000
vt 0.012821 0.000000
vt 0.025641 1.000000
vt 0.025641 0.000000
vt 0.038462 1.000000
vt 0.038462 0.000000
vt 0.051282 1.000000
vt 0.051282 0.000000
vt 0.064103 1.000000
vt 0.064103 0.000000
vt 0.076923 1.000000
vt 0.076923 0.000000
vt 0.089744 1.000000
vt 0.089744 0.000000
vt 0.102564 1.000000
vt 0.102564 0.000000
vt 0.115385 1.000000
vt 0.115385 0.000000
vt 0.128205 1.000000
vt 0.128205 0.000000
vt 0.141026 1.000000
vt 0.141026 0.000000
vt 0.153846 1.000000
vt 0.153846 0.000000
vt 0.179487 1.000000
vt 0.179487 0.000000
vt 0.192308 1.000000
vt 0.192308 0.000000
vt 0.205128 1.000000
vt 0.205128 0.000000
vt 0.217949 1.000000
vt 0.217949 0.000000
vt 0.230769 1.000000
vt 0.230769 0.000000
vt 0.243590 1.000000
vt 0.243590 0.000000
vt 0.256410 1.000000
vt 0.256410 0.000000
vt 0.269231 1.000000
vt 0.269231 0.000000
vt 0.282051 1.000000
vt 0.282051 0.000000
vt 0.294872 1.000000
vt 0.294872 0.000000
vt 0.307692 1.000000
vt 0.307692 0.000000
vt 0.320513 1.000000
vt 0.320513 0.000000
vt 0.346154 1.000000
vt 0.346154 0.000000
vt 0.358974 1.000000
vt 0.358974 0.000000
vt 0.371795 1.000000
vt 0.371795 0.000000
vt 0.384615 1.000000
vt 0.384615 0.000000
vt 0.397436 1.000000
vt 0.397436 0.000000
vt 0.410256 1.000000
vt 0.410256 0.000000
vt 0.423077 1.000000
vt 0.423077 0.000000
vt 0.435897 1.000000
vt 0.435897 0.000000
vt 0.448718 1.000000
vt 0.448718 0.000000
vt 0.461538 1.000000
vt 0.461538 0.000000
vt 0.474359 1.000000
vt 0.474359 0.000000
vt 0.487179 1.000000
vt 0.487179 0.000000
vt 0.512821 1.000000
vt 0.512821 0.000000
vt 0.525641 1.000000
vt 0.525641 0.000000
vt 0.538462 1.000000
vt 0.538462 0.000000
vt 0.551282 1.000000
vt 0.551282 0.000000
vt 0.564103 1.000000
vt 0.564103 0.000000
vt 0.576923 1.000000
vt 0.576923 0.000000
vt 0.589744 1.000000
vt 0.589744 0.000000
vt 0.602564 1.000000
vt 0.602564 0.000000
vt 0.615385 1.000000
vt 0.615385 0.000000
vt 0.628205 1.000000
vt 0.628205 0.000000
vt 0.641026 1.000000
vt 0.641026 0.000000
vt 0.653846 1.000000
vt 0.653846 0.000000
vt 0.679487 1.000000
vt 0.679487 0.000000
vt 0.692308 1.000000
vt 0.692308 0.000000
vt 0.705128 1.000000
vt 0.705128 0.000000
vt 0.717949 1.000000
vt 0.717949 0.000000
vt 0.730769 1.000000
vt 0.730769 0.000000
vt 0.743590 1.000000
vt 0.743590 0.000000
vt 0.756410 1.000000
vt 0.756410 0.000000
vt 0.769231 1.000000
vt 0.769231 0.000000
vt 0.782051 1.000000
vt 0.782051 0.000000
vt 0.794872 1.000000
vt 0.794872 0.000000
vt 0.807692 1.000000
vt 0.807692 0.000000
vt 0.820513 1.000000
vt 0.820513 0.000000
vt 0.846154 1.000000
vt 0.846154 0.000000
vt 0.858974 1.000000
vt 0.858974 0.000000
vt 0.871795 1.000000
vt 0.871795 0.000000
vt 0.884615 1.000000
vt 0.884615 0.000000
vt 0.897436 1.000000
vt 0.897436 0.000000
vt 0.910256 1.000000
vt 0.910256 0.000000
vt 0.923077 1.000000
vt 0.923077 0.000000
vt 0.935897 1.000000
vt 0.935897 0.000000
vt 0.948718 1.000000
vt 0.948718 0.000000
vt 0.961538 1.000000
vt 0.961538 0.000000
vt 0.974359 1.000000
vt 0.974359 0.000000
vt 0.987179 1.000000
vt 0.987179 0.000000
s 0
f 4/1/1 6/2/1 5/3/1
f 4/1/1 2/4/1 6/2/1
f 2/4/1 7/5/1 6/2/1
f 7/5/1 9/6/1 8/7/1
f 7/5/1 10/8/1 9/6/1
f 4/1/1 3/9/1 2/4/1
f 1/10/1 7/5/1 2/4/1
f 1/10/1 10/8/1 7/5/1
f 34/11/1 36/12/1 35/13/1
f 34/11/1 37/14/1 36/12/1
f 85/15/1 87/16/1 86/17/1
f 85/15/1 88/8/1 87/16/1
f 84/18/1 88/8/1 85/15/1
f 34/11/1 38/19/1 37/14/1
f 83/20/1 88/8/1 84/18/1
f 83/20/1 11/10/1 88/8/1
f 34/11/1 39/21/1 38/19/1
f 33/22/1 39/21/1 34/11/1
f 82/23/1 11/10/1 83/20/1
f 33/22/1 40/24/1 39/21/1
f 81/25/1 11/10/1 82/23/1
f 33/22/1 41/26/1 40/24/1
f 81/25/1 12/27/1 11/10/1
f 80/28/1 12/27/1 81/25/1
f 33/22/1 42/29/1 41/26/1
f 32/30/1 42/29/1 33/22/1
f 79/31/1 12/27/1 80/28/1
f 32/30/1 43/32/1 42/29/1
f 78/33/1 12/27/1 79/31/1
f 32/30/1 44/34/1 43/32/1
f 78/33/1 13/35/1 12/27/1
f 77/36/1 13/35/1 78/33/1
f 32/30/1 45/37/1 44/34/1
f 76/38/1 13/35/1 77/36/1
f 31/39/1 45/37/1 32/30/1
f 31/39/1 46/40/1 45/37/1
f 75/41/1 13/35/1 76/38/1
f 31/39/1 47/42/1 46/40/1
f 31/39/1 48/43/1 47/42/1
f 74/44/1 13/35/1 75/41/1
f 74/44/1 14/45/1 13/35/1
f 31/39/1 49/46/1 48/43/1
f 73/47/1 14/45/1 74/44/1
f 31/39/1 50/48/1 49/46/1
f 30/49/1 50/48/1 31/39/1
f 72/50/1 14/45/1 73/47/1
f 30/49/1 51/51/1 50/48/1
f 71/52/1 14/45/1 72/50/1
f 71/52/1 15/53/1 14/45/1
f 30/49/1 52/54/1 51/51/1
f 70/55/1 15/53/1 71/52/1
f 69/56/1 15/53/1 70/55/1
f 30/49/1 53/57/1 52/54/1
f 68/58/1 15/53/1 69/56/1
f 30/49/1 54/59/1 53/57/1
f 29/60/1 54/59/1 30/49/1
f 67/61/1 15/53/1 68/58/1
f 29/60/1 55/62/1 54/59/1
f 66/63/1 15/53/1 67/61/1
f 29/60/1 56/64/1 55/62/1
f 66/63/1 16/65/1 15/53/1
f 65/66/1 16/65/1 66/63/1
f 29/60/1 57/67/1 56/64/1
f 64/68/1 16/65/1 65/66/1
f 29/60/1 58/69/1 57/67/1
f 63/70/1 16/65/1 64/68/1
f 29/60/1 59/71/1 58/69/1
f 62/72/1 16/65/1 63/70/1
f 29/60/1 60/73/1 59/71/1
f 61/74/1 16/65/1 62/72/1
f 29/60/1 61/74/1 60/73/1
f 29/60/1 16/65/1 61/74/1
f 28/75/1 16/65/1 29/60/1
f 28/75/1 17/76/1 16/65/1
f 27/77/1 17/76/1 28/75/1
f 27/77/1 18/78/1 17/76/1
f 26/79/1 18/78/1 27/77/1
f 26/79/1 19/80/1 18/78/1
f 25/81/1 19/80/1 26/79/1
f 25/81/1 20/82/1 19/80/1
f 24/83/1 20/82/1 25/81/1
f 24/83/1 21/84/1 20/82/1
f 23/85/1 21/84/1 24/83/1
f 23/85/1 22/86/1 21/84/1
f 95/5/1 89/10/1 96/7/1
f 89/10/1 97/6/1 96/7/1
f 89/10/1 98/8/1 97/6/1
f 95/5/1 90/4/1 89/10/1
f 95/5/1 93/3/1 90/4/1
f 93/3/1 91/9/1 90/4/1
f 93/3/1 92/1/1 91/9/1
f 95/5/1 94/2/1 93/3/1
f 107/61/1 99/10/1 108/44/1
f 99/10/1 109/25/1 108/44/1
f 99/10/1 110/8/1 109/25/1
f 107/61/1 100/78/1 99/10/1
f 107/61/1 103/21/1 100/78/1
f 103/21/1 101/81/1 100/78/1
f 103/21/1 102/30/1 101/81/1
f 107/61/1 104/40/1 103/21/1
f 107/61/1 105/57/1 104/40/1
f 107/61/1 106/73/1 105/57/1
f 111/10/1 113/1/1 112/87/1
f 111/10/1 114/88/1 113/1/1
f 114/88/1 116/89/1 115/5/1
f 114/88/1 117/8/1 116/89/1
f 111/10/1 117/8/1 114/88/1
f 122/90/1 124/91/1 123/88/1
f 122/90/1 127/92/1 124/91/1
f 127/92/1 125/93/1 124/91/1
f 122/90/1 128/8/1 127/92/1
f 126/94/1 125/93/1 127/92/1
f 122/90/1 120/95/1 128/8/1
f 120/95/1 126/94/1 128/8/1
f 120/95/1 119/96/1 126/94/1
f 119/96/1 125/93/1 126/94/1
f 122/90/1 121/97/1 120/95/1
f 118/10/1 125/93/1 119/96/1
f 133/21/1 135/57/1 134/40/1
f 133/21/1 136/73/1 135/57/1
f 137/61/1 139/25/1 138/44/1
f 137/61/1 140/8/1 139/25/1
f 133/21/1 131/81/1 136/73/1
f 131/81/1 137/61/1 136/73/1
f 131/81/1 130/78/1 137/61/1
f 130/78/1 140/8/1 137/61/1
f 133/21/1 132/30/1 131/81/1
f 129/10/1 140/8/1 130/78/1
f 145/88/1 147/98/1 146/99/1
f 145/88/1 148/100/1 147/98/1
f 148/100/1 141/10/1 149/8/1
f 148/100/1 142/101/1 141/10/1
f 145/88/1 142/101/1 148/100/1
f 144/102/1 142/101/1 145/88/1
f 144/102/1 143/103/1 142/101/1
f 196/104/1 150/10/1 197/105/1
f 196/104/1 151/106/1 150/10/1
f 195/107/1 151/106/1 196/104/1
f 195/107/1 152/108/1 151/106/1
f 194/109/1 152/108/1 195/107/1
f 194/109/1 153/110/1 152/108/1
f 193/111/1 153/110/1 194/109/1
f 193/111/1 154/112/1 153/110/1
f 192/113/1 154/112/1 193/111/1
f 192/113/1 155/114/1 154/112/1
f 191/115/1 221/116/1 192/113/1
f 221/116/1 155/114/1 192/113/1
f 191/115/1 222/117/1 221/116/1
f 220/118/1 155/114/1 221/116/1
f 219/119/1 155/114/1 220/118/1
f 191/115/1 223/120/1 222/117/1
f 218/121/1 155/114/1 219/119/1
f 191/115/1 224/122/1 223/120/1
f 218/121/1 156/123/1 155/114/1
f 190/124/1 224/122/1 191/115/1
f 217/125/1 156/123/1 218/121/1
f 190/124/1 225/126/1 224/122/1
f 216/127/1 156/123/1 217/125/1
f 190/124/1 226/94/1 225/126/1
f 216/127/1 157/128/1 156/123/1
f 189/129/1 226/94/1 190/124/1
f 215/130/1 157/128/1 216/127/1
f 189/129/1 227/131/1 226/94/1
f 214/132/1 157/128/1 215/130/1
f 189/129/1 228/133/1 227/131/1
f 214/132/1 158/134/1 157/128/1
f 188/90/1 228/133/1 189/129/1
f 213/135/1 158/134/1 214/132/1
f 188/90/1 229/136/1 228/133/1
f 213/135/1 159/137/1 158/134/1
f 187/138/1 229/136/1 188/90/1
f 212/139/1 159/137/1 213/135/1
f 187/138/1 230/140/1 229/136/1
f 211/141/1 159/137/1 212/139/1
f 187/138/1 231/142/1 230/140/1
f 211/141/1 160/143/1 159/137/1
f 186/144/1 231/142/1 187/138/1
f 210/145/1 160/143/1 211/141/1
f 186/144/1 232/146/1 231/142/1
f 210/145/1 161/147/1 160/143/1
f 185/148/1 232/146/1 186/144/1
f 209/149/1 161/147/1 210/145/1
f 185/148/1 233/150/1 232/146/1
f 184/151/1 233/150/1 185/148/1
f 184/151/1 234/152/1 233/150/1
f 208/153/1 161/147/1 209/149/1
f 208/153/1 162/154/1 161/147/1
f 184/151/1 235/155/1 234/152/1
f 207/91/1 162/154/1 208/153/1
f 207/91/1 163/156/1 162/154/1
f 183/157/1 235/155/1 184/151/1
f 183/157/1 236/158/1 235/155/1
f 206/159/1 163/156/1 207/91/1
f 206/159/1 164/160/1 163/156/1
f 182/161/1 236/158/1 183/157/1
f 205/162/1 164/160/1 206/159/1
f 182/161/1 237/163/1 236/158/1
f 205/162/1 165/164/1 164/160/1
f 181/165/1 237/163/1 182/161/1
f 204/166/1 165/164/1 205/162/1
f 181/165/1 238/167/1 237/163/1
f 203/168/1 165/164/1 204/166/1
f 181/165/1 239/169/1 238/167/1
f 203/168/1 166/170/1 165/164/1
f 180/171/1 239/169/1 181/165/1
f 202/172/1 166/170/1 203/168/1
f 180/171/1 240/173/1 239/169/1
f 201/174/1 166/170/1 202/172/1
f 180/171/1 241/175/1 240/173/1
f 201/174/1 167/176/1 166/170/1
f 179/177/1 241/175/1 180/171/1
f 200/178/1 167/176/1 201/174/1
f 179/177/1 242/179/1 241/175/1
f 199/180/1 167/176/1 200/178/1
f 179/177/1 243/181/1 242/179/1
f 199/180/1 168/182/1 167/176/1
f 178/183/1 243/181/1 179/177/1
f 198/184/1 168/182/1 199/180/1
f 178/183/1 244/185/1 243/181/1
f 245/8/1 168/182/1 198/184/1
f 178/183/1 245/8/1 244/185/1
f 178/183/1 168/182/1 245/8/1
f 178/183/1 169/95/1 168/182/1
f 177/186/1 169/95/1 178/183/1
f 177/186/1 170/187/1 169/95/1
f 176/188/1 170/187/1 177/186/1
f 176/188/1 171/189/1 170/187/1
f 175/190/1 171/189/1 176/188/1
f 175/190/1 172/191/1 171/189/1
f 174/192/1 172/191/1 175/190/1
f 174/192/1 173/193/1 172/191/1
f 283/194/1 285/195/1 284/196/1
f 283/194/1 286/8/1 285/195/1
f 282/92/1 286/8/1 283/194/1
f 281/100/1 286/8/1 282/92/1
f 281/100/1 246/10/1 286/8/1
f 280/197/1 246/10/1 281/100/1
f 280/197/1 247/198/1 246/10/1
f 279/199/1 247/198/1 280/197/1
f 278/94/1 247/198/1 279/199/1
f 278/94/1 248/200/1 247/198/1
f 277/201/1 248/200/1 278/94/1
f 277/201/1 249/202/1 248/200/1
f 276/98/1 249/202/1 277/201/1
f 275/203/1 249/202/1 276/98/1
f 274/93/1 249/202/1 275/203/1
f 274/93/1 250/96/1 249/202/1
f 273/204/1 250/96/1 274/93/1
f 272/205/1 250/96/1 273/204/1
f 271/99/1 250/96/1 272/205/1
f 269/206/1 271/99/1 270/91/1
f 269/206/1 250/96/1 271/99/1
f 269/206/1 251/101/1 250/96/1
f 269/206/1 252/207/1 251/101/1
f 269/206/1 253/208/1 252/207/1
f 269/206/1 254/95/1 253/208/1
f 269/206/1 255/209/1 254/95/1
f 269/206/1 256/103/1 255/209/1
f 268/210/1 256/103/1 269/206/1
f 268/210/1 257/211/1 256/103/1
f 267/212/1 257/211/1 268/210/1
f 266/88/1 257/211/1 267/212/1
f 265/213/1 257/211/1 266/88/1
f 264/214/1 257/211/1 265/213/1
f 263/215/1 257/211/1 264/214/1
f 262/90/1 257/211/1 263/215/1
f 261/102/1 257/211/1 262/90/1
f 260/216/1 257/211/1 261/102/1
f 259/217/1 257/211/1 260/216/1
f 258/97/1 257/211/1 259/217/1
f 290/1/1 292/2/1 291/3/1
f 290/1/1 288/4/1 292/2/1
f 288/4/1 293/5/1 292/2/1
f 293/5/1 295/6/1 294/7/1
f 293/5/1 296/8/1 295/6/1
f 290/1/1 289/9/1 288/4/1
f 287/10/1 293/5/1 288/4/1
f 287/10/1 296/8/1 293/5/1
f 305/61/1 297/10/1 306/44/1
f 297/10/1 307/25/1 306/44/1
f 297/10/1 308/8/1 307/25/1
f 305/61/1 298/78/1 297/10/1
f 305/61/1 301/21/1 298/78/1
f 301/21/1 299/81/1 298/78/1
f 301/21/1 300/30/1 299/81/1
f 305/61/1 302/40/1 301/21/1
f 305/61/1 303/57/1 302/40/1
f 305/61/1 304/73/1 303/57/1
f 312/1/2 313/3/2 314/2/2
f 312/1/2 314/2/2 310/4/2
f 310/4/2 314/2/2 315/5/2
f 315/5/2 316/7/2 317/6/2
f 315/5/2 317/6/2 318/8/2
f 312/1/2 310/4/2 311/9/2
f 309/10/2 310/4/2 315/5/2
f 309/10/2 315/5/2 318/8/2
f 342/11/2 343/13/2 344/12/2
f 342/11/2 344/12/2 345/14/2
f 393/15/2 394/17/2 395/16/2
f 393/15/2 395/16/2 396/8/2
f 392/18/2 393/15/2 396/8/2
f 342/11/2 345/14/2 346/19/2
f 391/20/2 392/18/2 396/8/2
f 391/20/2 396/8/2 319/10/2
f 342/11/2 346/19/2 347/21/2
f 341/22/2 342/11/2 347/21/2
f 390/23/2 391/20/2 319/10/2
f 341/22/2 347/21/2 348/24/2
f 389/25/2 390/23/2 319/10/2
f 341/22/2 348/24/2 349/26/2
f 389/25/2 319/10/2 320/27/2
f 388/28/2 389/25/2 320/27/2
f 341/22/2 349/26/2 350/29/2
f 340/30/2 341/22/2 350/29/2
f 387/31/2 388/28/2 320/27/2
f 340/30/2 350/29/2 351/32/2
f 386/33/2 387/31/2 320/27/2
f 340/30/2 351/32/2 352/34/2
f 386/33/2 320/27/2 321/35/2
f 385/36/2 386/33/2 321/35/2
f 340/30/2 352/34/2 353/37/2
f 384/38/2 385/36/2 321/35/2
f 339/39/2 340/30/2 353/37/2
f 339/39/2 353/37/2 354/40/2
f 383/41/2 384/38/2 321/35/2
f 339/39/2 354/40/2 355/42/2
f 339/39/2 355/42/2 356/43/2
f 382/44/2 383/41/2 321/35/2
f 382/44/2 321/35/2 322/45/2
f 339/39/2 356/43/2 357/46/2
f 381/47/2 382/44/2 322/45/2
f 339/39/2 357/46/2 358/48/2
f 338/49/2 339/39/2 358/48/2
f 380/50/2 381/47/2 322/45/2
f 338/49/2 358/48/2 359/51/2
f 379/52/2 380/50/2 322/45/2
f 379/52/2 322/45/2 323/53/2
f 338/49/2 359/51/2 360/54/2
f 378/55/2 379/52/2 323/53/2
f 377/56/2 378/55/2 323/53/2
f 338/49/2 360/54/2 361/57/2
f 376/58/2 377/56/2 323/53/2
f 338/49/2 361/57/2 362/59/2
f 337/60/2 338/49/2 362/59/2
f 375/61/2 376/58/2 323/53/2
f 337/60/2 362/59/2 363/62/2
f 374/63/2 375/61/2 323/53/2
f 337/60/2 363/62/2 364/64/2
f 374/63/2 323/53/2 324/65/2
f 373/66/2 374/63/2 324/65/2
f 337/60/2 364/64/2 365/67/2
f 372/68/2 373/66/2 324/65/2
f 337/60/2 365/67/2 366/69/2
f 371/70/2 372/68/2 324/65/2
f 337/60/2 366/69/2 367/71/2
f 370/72/2 371/70/2 324/65/2
f 337/60/2 367/71/2 368/73/2
f 369/74/2 370/72/2 324/65/2
f 337/60/2 368/73/2 369/74/2
f 337/60/2 369/74/2 324/65/2
f 336/75/2 337/60/2 324/65/2
f 336/75/2 324/65/2 325/76/2
f 335/77/2 336/75/2 325/76/2
f 335/77/2 325/76/2 326/78/2
f 334/79/2 335/77/2 326/78/2
f 334/79/2 326/78/2 327/80/2
f 333/81/2 334/79/2 327/80/2
f 333/81/2 327/80/2 328/82/2
f 332/83/2 333/81/2 328/82/2
f 332/83/2 328/82/2 329/84/2
f 331/85/2 332/83/2 329/84/2
f 331/85/2 329/84/2 330/86/2
f 403/5/2 404/7/2 397/10/2
f 397/10/2 404/7/2 405/6/2
f 397/10/2 405/6/2 406/8/2
f 403/5/2 397/10/2 398/4/2
f 403/5/2 398/4/2 401/3/2
f 401/3/2 398/4/2 399/9/2
f 401/3/2 399/9/2 400/1/2
f 403/5/2 401/3/2 402/2/2
f 415/61/2 416/44/2 407/10/2
f 407/10/2 416/44/2 417/25/2
f 407/10/2 417/25/2 418/8/2
f 415/61/2 407/10/2 408/78/2
f 415/61/2 408/78/2 411/21/2
f 411/21/2 408/78/2 409/81/2
f 411/21/2 409/81/2 410/30/2
f 415/61/2 411/21/2 412/40/2
f 415/61/2 412/40/2 413/57/2
f 415/61/2 413/57/2 414/73/2
f 419/10/2 420/87/2 421/1/2
f 419/10/2 421/1/2 422/88/2
f 422/88/2 423/5/2 424/89/2
f 422/88/2 424/89/2 425/8/2
f 419/10/2 422/88/2 425/8/2
f 430/90/2 431/88/2 432/91/2
f 430/90/2 432/91/2 435/92/2
f 435/92/2 432/91/2 433/93/2
f 430/90/2 435/92/2 436/8/2
f 434/94/2 435/92/2 433/93/2
f 430/90/2 436/8/2 428/95/2
f 428/95/2 436/8/2 434/94/2
f 428/95/2 434/94/2 427/96/2
f 427/96/2 434/94/2 433/93/2
f 430/90/2 428/95/2 429/97/2
f 426/10/2 427/96/2 433/93/2
f 441/21/2 442/40/2 443/57/2
f 441/21/2 443/57/2 444/73/2
f 445/61/2 446/44/2 447/25/2
f 445/61/2 447/25/2 448/8/2
f 441/21/2 444/73/2 439/81/2
f 439/81/2 444/73/2 445/61/2
f 439/81/2 445/61/2 438/78/2
f 438/78/2 445/61/2 448/8/2
f 441/21/2 439/81/2 440/30/2
f 437/10/2 438/78/2 448/8/2
f 453/88/2 454/99/2 455/98/2
f 453/88/2 455/98/2 456/100/2
f 456/100/2 457/8/2 449/10/2
f 456/100/2 449/10/2 450/101/2
f 453/88/2 456/100/2 450/101/2
f 452/102/2 453/88/2 450/101/2
f 452/102/2 450/101/2 451/103/2
f 504/104/2 505/105/2 458/10/2
f 504/104/2 458/10/2 459/106/2
f 503/107/2 504/104/2 459/106/2
f 503/107/2 459/106/2 460/108/2
f 502/109/2 503/107/2 460/108/2
f 502/109/2 460/108/2 461/110/2
f 501/111/2 502/109/2 461/110/2
f 501/111/2 461/110/2 462/112/2
f 500/113/2 501/111/2 462/112/2
f 500/113/2 462/112/2 463/114/2
f 499/115/2 500/113/2 529/116/2
f 529/116/2 500/113/2 463/114/2
f 499/115/2 529/116/2 530/117/2
f 528/118/2 529/116/2 463/114/2
f 527/119/2 528/118/2 463/114/2
f 499/115/2 530/117/2 531/120/2
f 526/121/2 527/119/2 463/114/2
f 499/115/2 531/120/2 532/122/2
f 526/121/2 463/114/2 464/123/2
f 498/124/2 499/115/2 532/122/2
f 525/125/2 526/121/2 464/123/2
f 498/124/2 532/122/2 533/126/2
f 524/127/2 525/125/2 464/123/2
f 498/124/2 533/126/2 534/94/2
f 524/127/2 464/123/2 465/128/2
f 497/129/2 498/124/2 534/94/2
f 523/130/2 524/127/2 465/128/2
f 497/129/2 534/94/2 535/131/2
f 522/132/2 523/130/2 465/128/2
f 497/129/2 535/131/2 536/133/2
f 522/132/2 465/128/2 466/134/2
f 496/90/2 497/129/2 536/133/2
f 521/135/2 522/132/2 466/134/2
f 496/90/2 536/133/2 537/136/2
f 521/135/2 466/134/2 467/137/2
f 495/138/2 496/90/2 537/136/2
f 520/139/2 521/135/2 467/137/2
f 495/138/2 537/136/2 538/140/2
f 519/141/2 520/139/2 467/137/2
f 495/138/2 538/140/2 539/142/2
f 519/141/2 467/137/2 468/143/2
f 494/144/2 495/138/2 539/142/2
f 518/145/2 519/141/2 468/143/2
f 494/144/2 539/142/2 540/146/2
f 518/145/2 468/143/2 469/147/2
f 493/148/2 494/144/2 540/146/2
f 517/149/2 518/145/2 469/147/2
f 493/148/2 540/146/2 541/150/2
f 492/151/2 493/148/2 541/150/2
f 492/151/2 541/150/2 542/152/2
f 516/153/2 517/149/2 469/147/2
f 516/153/2 469/147/2 470/154/2
f 492/151/2 542/152/2 543/155/2
f 515/91/2 516/153/2 470/154/2
f 515/91/2 470/154/2 471/156/2
f 491/157/2 492/151/2 543/155/2
f 491/157/2 543/155/2 544/158/2
f 514/159/2 515/91/2 471/156/2
f 514/159/2 471/156/2 472/160/2
f 490/161/2 491/157/2 544/158/2
f 513/162/2 514/159/2 472/160/2
f 490/161/2 544/158/2 545/163/2
f 513/162/2 472/160/2 473/164/2
f 489/165/2 490/161/2 545/163/2
f 512/166/2 513/162/2 473/164/2
f 489/165/2 545/163/2 546/167/2
f 511/168/2 512/166/2 473/164/2
f 489/165/2 546/167/2 547/169/2
f 511/168/2 473/164/2 474/170/2
f 488/171/2 489/165/2 547/169/2
f 510/172/2 511/168/2 474/170/2
f 488/171/2 547/169/2 548/173/2
f 509/174/2 510/172/2 474/170/2
f 488/171/2 548/173/2 549/175/2
f 509/174/2 474/170/2 475/176/2
f 487/177/2 488/171/2 549/175/2
f 508/178/2 509/174/2 475/176/2
f 487/177/2 549/175/2 550/179/2
f 507/180/2 508/178/2 475/176/2
f 487/177/2 550/179/2 551/181/2
f 507/180/2 475/176/2 476/182/2
f 486/183/2 487/177/2 551/181/2
f 506/184/2 507/180/2 476/182/2
f 486/183/2 551/181/2 552/185/2
f 553/8/2 506/184/2 476/182/2
f 486/183/2 552/185/2 553/8/2
f 486/183/2 553/8/2 476/182/2
f 486/183/2 476/182/2 477/95/2
f 485/186/2 486/183/2 477/95/2
f 485/186/2 477/95/2 478/187/2
f 484/188/2 485/186/2 478/187/2
f 484/188/2 478/187/2 479/189/2
f 483/190/2 484/188/2 479/189/2
f 483/190/2 479/189/2 480/191/2
f 482/192/2 483/190/2 480/191/2
f 482/192/2 480/191/2 481/193/2
f 591/194/2 592/196/2 593/195/2
f 591/194/2 593/195/2 594/8/2
f 590/92/2 591/194/2 594/8/2
f 589/100/2 590/92/2 594/8/2
f 589/100/2 594/8/2 554/10/2
f 588/197/2 589/100/2 554/10/2
f 588/197/2 554/10/2 555/198/2
f 587/199/2 588/197/2 555/198/2
f 586/94/2 587/199/2 555/198/2
f 586/94/2 555/198/2 556/200/2
f 585/201/2 586/94/2 556/200/2
f 585/201/2 556/200/2 557/202/2
f 584/98/2 585/201/2 557/202/2
f 583/203/2 584/98/2 557/202/2
f 582/93/2 583/203/2 557/202/2
f 582/93/2 557/202/2 558/96/2
f 581/204/2 582/93/2 558/96/2
f 580/205/2 581/204/2 558/96/2
f 579/99/2 580/205/2 558/96/2
f 577/206/2 578/91/2 579/99/2
f 577/206/2 579/99/2 558/96/2
f 577/206/2 558/96/2 559/101/2
f 577/206/2 559/101/2 560/207/2
f 577/206/2 560/207/2 561/208/2
f 577/206/2 561/208/2 562/95/2
f 577/206/2 562/95/2 563/209/2
f 577/206/2 563/209/2 564/103/2
f 576/210/2 577/206/2 564/103/2
f 576/210/2 564/103/2 565/211/2
f 575/212/2 576/210/2 565/211/2
f 574/88/2 575/212/2 565/211/2
f 573/213/2 574/88/2 565/211/2
f 572/214/2 573/213/2 565/211/2
f 571/215/2 572/214/2 565/211/2
f 570/90/2 571/215/2 565/211/2
f 569/102/2 570/90/2 565/211/2
f 568/216/2 569/102/2 565/211/2
f 567/217/2 568/216/2 565/211/2
f 566/97/2 567/217/2 565/211/2
f 598/1/2 599/3/2 600/2/2
f 598/1/2 600/2/2 596/4/2
f 596/4/2 600/2/2 601/5/2
f 601/5/2 602/7/2 603/6/2
f 601/5/2 603/6/2 604/8/2
f 598/1/2 596/4/2 597/9/2
f 595/10/2 596/4/2 601/5/2
f 595/10/2 601/5/2 604/8/2
f 613/61/2 614/44/2 605/10/2
f 605/10/2 614/44/2 615/25/2
f 605/10/2 615/25/2 616/8/2
f 613/61/2 605/10/2 606/78/2
f 613/61/2 606/78/2 609/21/2
f 609/21/2 606/78/2 607/81/2
f 609/21/2 607/81/2 608/30/2
f 613/61/2 609/21/2 610/40/2
f 613/61/2 610/40/2 611/57/2
f 613/61/2 611/57/2 612/73/2
s 1
f 618/218/3 620/219/4 619/220/4 617/10/3
f 620/219/4 622/221/4 621/87/4 619/220/4
f 622/221/4 624/222/3 623/103/3 621/87/4
f 624/222/3 626/223/3 625/1/3 623/103/3
f 626/223/3 628/224/4 627/225/4 625/1/3
f 628/224/4 630/226/4 629/88/4 627/225/4
f 630/226/4 632/227/3 631/228/3 629/88/4
f 632/227/3 634/229/5 633/5/5 631/228/3
f 634/229/5 636/230/6 635/98/6 633/5/5
f 636/230/6 638/231/4 637/89/4 635/98/6
f 638/231/4 640/232/3 639/233/3 637/89/4
f 640/232/3 618/234/3 617/8/3 639/233/3
f 642/218/7 644/235/8 643/96/8 641/10/7
f 644/235/8 646/236/3 645/95/3 643/96/8
f 646/236/3 648/237/5 647/97/5 645/95/3
f 648/237/5 650/238/6 649/90/6 647/97/5
f 650/238/6 652/226/9 651/88/9 649/90/6
f 652/226/9 654/239/10 653/91/10 651/88/9
f 654/239/10 656/240/6 655/93/6 653/91/10
f 656/240/6 658/241/4 657/94/4 655/93/6
f 658/241/4 660/242/3 659/92/3 657/94/4
f 660/242/3 642/234/7 641/8/7 659/92/3
f 662/218/11 664/243/12 663/244/12 661/10/11
f 664/243/12 666/245/13 665/246/13 663/244/12
f 666/245/13 668/247/14 667/248/14 665/246/13
f 668/247/14 670/249/15 669/250/15 667/248/14
f 670/249/15 672/251/16 671/252/16 669/250/15
f 672/251/16 674/253/17 673/254/17 671/252/16
f 674/253/17 676/255/18 675/256/18 673/254/17
f 676/255/18 678/257/19 677/258/19 675/256/18
f 678/257/19 680/259/20 679/260/20 677/258/19
f 680/259/20 682/261/21 681/262/21 679/260/20
f 682/261/21 684/263/22 683/264/22 681/262/21
f 684/263/22 686/265/23 685/266/23 683/264/22
f 686/265/23 688/267/24 687/268/24 685/266/23
f 688/267/24 690/269/25 689/270/25 687/268/24
f 690/269/25 692/271/26 691/272/26 689/270/25
f 692/271/26 694/273/27 693/274/27 691/272/26
f 694/273/27 696/275/28 695/276/28 693/274/27
f 696/275/28 698/277/29 697/278/29 695/276/28
f 698/277/29 700/279/30 699/280/30 697/278/29
f 700/279/30 702/281/31 701/282/31 699/280/30
f 702/281/31 704/283/32 703/284/32 701/282/31
f 704/283/32 706/285/32 705/286/32 703/284/32
f 706/285/32 708/287/33 707/288/33 705/286/32
f 708/287/33 710/289/34 709/290/34 707/288/33
f 710/289/34 712/291/35 711/292/35 709/290/34
f 712/291/35 714/293/36 713/294/36 711/292/35
f 714/293/36 716/295/37 715/296/37 713/294/36
f 716/295/37 718/297/38 717/298/38 715/296/37
f 718/297/38 720/299/39 719/300/39 717/298/38
f 720/299/39 722/301/40 721/302/40 719/300/39
f 722/301/40 724/303/41 723/304/41 721/302/40
f 724/303/41 726/305/42 725/306/42 723/304/41
f 726/305/42 728/307/43 727/308/43 725/306/42
f 728/307/43 730/309/44 729/310/44 727/308/43
f 730/309/44 732/311/45 731/312/45 729/310/44
f 732/311/45 734/313/46 733/314/46 731/312/45
f 734/313/46 736/315/47 735/316/47 733/314/46
f 736/315/47 738/317/6 737/318/6 735/316/47
f 738/317/6 740/319/4 739/320/4 737/318/6
f 740/319/4 742/321/48 741/322/48 739/320/4
f 742/321/48 662/234/11 661/8/11 741/322/48
f 744/218/49 746/323/50 745/324/50 743/10/49
f 746/323/50 748/325/51 747/326/51 745/324/50
f 748/325/51 750/327/52 749/328/52 747/326/51
f 750/327/52 752/219/53 751/220/53 749/328/52
f 752/219/53 754/329/54 753/330/54 751/220/53
f 754/329/54 756/331/55 755/101/55 753/330/54
f 756/331/55 758/332/56 757/333/56 755/101/55
f 758/332/56 760/221/57 759/87/57 757/333/56
f 760/221/57 762/334/58 761/335/58 759/87/57
f 762/334/58 764/336/59 763/337/59 761/335/58
f 764/336/59 766/338/60 765/339/60 763/337/59
f 766/338/60 768/222/61 767/103/61 765/339/60
f 768/222/61 770/340/62 769/341/62 767/103/61
f 770/340/62 772/342/63 771/343/63 769/341/62
f 772/342/63 774/344/64 773/345/64 771/343/63
f 774/344/64 776/223/65 775/1/65 773/345/64
f 776/223/65 778/346/66 777/347/66 775/1/65
f 778/346/66 780/348/67 779/102/67 777/347/66
f 780/348/67 782/349/68 781/350/68 779/102/67
f 782/349/68 784/224/69 783/225/69 781/350/68
f 784/224/69 786/351/70 785/352/70 783/225/69
f 786/351/70 788/353/71 787/354/71 785/352/70
f 788/353/71 790/355/72 789/356/72 787/354/71
f 790/355/72 792/226/73 791/88/73 789/356/72
f 792/226/73 794/357/74 793/358/74 791/88/73
f 794/357/74 796/359/75 795/360/75 793/358/74
f 796/359/75 798/361/76 797/362/76 795/360/75
f 798/361/76 800/227/77 799/228/77 797/362/76
f 800/227/77 802/363/78 801/364/78 799/228/77
f 802/363/78 804/365/79 803/99/79 801/364/78
f 804/365/79 806/366/80 805/367/80 803/99/79
f 806/366/80 808/229/81 807/5/81 805/367/80
f 808/229/81 810/368/82 809/369/82 807/5/81
f 810/368/82 812/370/83 811/371/83 809/369/82
f 812/370/83 814/372/84 813/373/84 811/371/83
f 814/372/84 816/230/85 815/98/85 813/373/84
f 816/230/85 818/374/86 817/375/86 815/98/85
f 818/374/86 820/376/87 819/377/87 817/375/86
f 820/376/87 822/378/88 821/379/88 819/377/87
f 822/378/88 824/231/89 823/89/89 821/379/88
f 824/231/89 826/380/90 825/381/90 823/89/89
f 826/380/90 828/382/91 827/100/91 825/381/90
f 828/382/91 830/383/92 829/384/92 827/100/91
f 830/383/92 832/232/93 831/233/93 829/384/92
f 832/232/93 834/385/94 833/386/94 831/233/93
f 834/385/94 836/387/95 835/388/95 833/386/94
f 836/387/95 838/389/96 837/390/96 835/388/95
f 838/389/96 744/234/49 743/8/49 837/390/96
f 840/218/97 842/323/98 841/324/98 839/10/97
f 842/323/98 844/325/99 843/326/99 841/324/98
f 844/325/99 846/327/100 845/328/100 843/326/99
f 846/327/100 848/219/101 847/220/101 845/328/100
f 848/219/101 850/329/102 849/330/102 847/220/101
f 850/329/102 852/331/103 851/101/103 849/330/102
f 852/331/103 854/332/104 853/333/104 851/101/103
f 854/332/104 856/221/105 855/87/105 853/333/104
f 856/221/105 858/334/106 857/335/106 855/87/105
f 858/334/106 860/336/107 859/337/107 857/335/106
f 860/336/107 862/338/108 861/339/108 859/337/107
f 862/338/108 864/222/109 863/103/109 861/339/108
f 864/222/109 866/340/110 865/341/110 863/103/109
f 866/340/110 868/342/111 867/343/111 865/341/110
f 868/342/111 870/344/112 869/345/112 867/343/111
f 870/344/112 872/223/113 871/1/113 869/345/112
f 872/223/113 874/346/114 873/347/114 871/1/113
f 874/346/114 876/348/115 875/102/115 873/347/114
f 876/348/115 878/349/116 877/350/116 875/102/115
f 878/349/116 880/224/117 879/225/117 877/350/116
f 880/224/117 882/351/118 881/352/118 879/225/117
f 882/351/118 884/353/119 883/354/119 881/352/118
f 884/353/119 886/355/120 885/356/120 883/354/119
f 886/355/120 888/226/121 887/88/121 885/356/120
f 888/226/121 890/357/122 889/358/122 887/88/121
f 890/357/122 892/359/123 891/360/123 889/358/122
f 892/359/123 894/361/124 893/362/124 891/360/123
f 894/361/124 896/227/125 895/228/125 893/362/124
f 896/227/125 898/363/126 897/364/126 895/228/125
f 898/363/126 900/365/127 899/99/127 897/364/126
f 900/365/127 902/366/128 901/367/128 899/99/127
f 902/366/128 904/229/129 903/5/129 901/367/128
f 904/229/129 906/368/130 905/369/130 903/5/129
f 906/368/130 908/370/131 907/371/131 905/369/130
f 908/370/131 910/372/132 909/373/132 907/371/131
f 910/372/132 912/230/133 911/98/133 909/373/132
f 912/230/133 914/374/134 913/375/134 911/98/133
f 914/374/134 916/376/135 915/377/135 913/375/134
f 916/376/135 918/378/136 917/379/136 915/377/135
f 918/378/136 920/231/137 919/89/137 917/379/136
f 920/231/137 922/380/138 921/381/138 919/89/137
f 922/380/138 924/382/139 923/100/139 921/381/138
f 924/382/139 926/383/140 925/384/140 923/100/139
f 926/383/140 928/232/141 927/233/141 925/384/140
f 928/232/141 930/385/142 929/386/142 927/233/141
f 930/385/142 932/387/143 931/388/143 929/386/142
f 932/387/143 934/389/144 933/390/144 931/388/143
f 934/389/144 840/234/97 839/8/97 933/390/144
f 936/218/145 938/391/146 937/4/146 935/10/145
f 938/391/146 940/392/3 939/9/3 937/4/146
f 940/392/3 942/223/5 941/1/5 939/9/3
f 942/223/5 944/393/147 943/3/147 941/1/5
f 944/393/147 946/394/148 945/2/148 943/3/147
f 946/394/148 948/229/149 947/5/149 945/2/148
f 948/229/149 950/395/150 949/7/150 947/5/149
f 950/395/150 952/396/151 951/6/151 949/7/150
f 952/396/151 936/234/145 935/8/145 951/6/151
f 954/218/5 956/219/5 955/220/5 953/10/5
f 956/219/5 958/221/3 957/87/3 955/220/5
f 958/221/3 960/222/3 959/103/3 957/87/3
f 960/222/3 962/223/5 961/1/5 959/103/3
f 962/223/5 964/224/6 963/225/6 961/1/5
f 964/224/6 966/226/4 965/88/4 963/225/6
f 966/226/4 968/227/4 967/228/4 965/88/4
f 968/227/4 970/229/6 969/5/6 967/228/4
f 970/229/6 972/230/6 971/98/6 969/5/6
f 972/230/6 974/231/4 973/89/4 971/98/6
f 974/231/4 976/232/3 975/233/3 973/89/4
f 976/232/3 954/234/5 953/8/5 975/233/3
f 978/218/152 980/331/152 979/101/152 977/10/152
f 980/331/152 982/222/153 981/103/153 979/101/152
f 982/222/153 984/348/153 983/102/153 981/103/153
f 984/348/153 986/226/154 985/88/154 983/102/153
f 986/226/154 988/365/155 987/99/155 985/88/154
f 988/365/155 990/230/156 989/98/156 987/99/155
f 990/230/156 992/382/157 991/100/157 989/98/156
f 992/382/157 978/234/152 977/8/152 991/100/157
f 994/218/158 996/223/159 995/1/159 993/10/158
f 996/223/159 998/229/160 997/5/160 995/1/159
f 998/229/160 994/234/158 993/8/158 997/5/160
f 1000/218/161 1002/397/162 1001/86/162 999/10/161
f 1002/397/162 1004/398/163 1003/22/163 1001/86/162
f 1004/398/163 1006/399/164 1005/34/164 1003/22/163
f 1006/399/164 1008/400/165 1007/62/165 1005/34/164
f 1008/400/165 1010/401/166 1009/63/166 1007/62/165
f 1010/401/166 1012/402/167 1011/36/167 1009/63/166
f 1012/402/167 1000/234/161 999/8/161 1011/36/167
f 1014/218/3 1016/219/4 1015/220/4 1013/10/3
f 1016/219/4 1018/221/4 1017/87/4 1015/220/4
f 1018/221/4 1020/222/3 1019/103/3 1017/87/4
f 1020/222/3 1022/223/3 1021/1/3 1019/103/3
f 1022/223/3 1024/224/4 1023/225/4 1021/1/3
f 1024/224/4 1026/226/4 1025/88/4 1023/225/4
f 1026/226/4 1028/227/3 1027/228/3 1025/88/4
f 1028/227/3 1030/229/5 1029/5/5 1027/228/3
f 1030/229/5 1032/230/6 1031/98/6 1029/5/5
f 1032/230/6 1034/231/4 1033/89/4 1031/98/6
f 1034/231/4 1036/232/3 1035/233/3 1033/89/4
f 1036/232/3 1014/234/3 1013/8/3 1035/233/3
f 1038/218/3 1040/235/4 1039/96/4 1037/10/3
f 1040/235/4 1042/236/4 1041/95/4 1039/96/4
f 1042/236/4 1044/237/3 1043/97/3 1041/95/4
f 1044/237/3 1046/238/3 1045/90/3 1043/97/3
f 1046/238/3 1048/226/3 1047/88/3 1045/90/3
f 1048/226/3 1050/239/5 1049/91/5 1047/88/3
f 1050/239/5 1052/240/6 1051/93/6 1049/91/5
f 1052/240/6 1054/241/4 1053/94/4 1051/93/6
f 1054/241/4 1056/242/3 1055/92/3 1053/94/4
f 1056/242/3 1038/234/3 1037/8/3 1055/92/3
f 1058/218/168 1060/403/169 1059/404/169 1057/10/168
f 1060/403/169 1062/405/170 1061/406/170 1059/404/169
f 1062/405/170 1064/407/171 1063/408/171 1061/406/170
f 1064/407/171 1066/409/172 1065/410/172 1063/408/171
f 1066/409/172 1068/411/173 1067/412/173 1065/410/172
f 1068/411/173 1070/413/174 1069/414/174 1067/412/173
f 1070/413/174 1072/415/175 1071/416/175 1069/414/174
f 1072/415/175 1074/417/176 1073/418/176 1071/416/175
f 1074/417/176 1076/419/177 1075/420/177 1073/418/176
f 1076/419/177 1078/421/178 1077/422/178 1075/420/177
f 1078/421/178 1080/423/179 1079/424/179 1077/422/178
f 1080/423/179 1082/425/180 1081/426/180 1079/424/179
f 1082/425/180 1084/221/181 1083/87/181 1081/426/180
f 1084/221/181 1086/427/182 1085/428/182 1083/87/181
f 1086/427/182 1088/429/183 1087/430/183 1085/428/182
f 1088/429/183 1090/431/184 1089/432/184 1087/430/183
f 1090/431/184 1092/433/185 1091/434/185 1089/432/184
f 1092/433/185 1094/435/186 1093/436/186 1091/434/185
f 1094/435/186 1096/437/187 1095/438/187 1093/436/186
f 1096/437/187 1098/439/188 1097/440/188 1095/438/187
f 1098/439/188 1100/441/189 1099/442/189 1097/440/188
f 1100/441/189 1102/443/190 1101/444/190 1099/442/189
f 1102/443/190 1104/445/191 1103/446/191 1101/444/190
f 1104/445/191 1106/447/6 1105/448/6 1103/446/191
f 1106/447/6 1108/449/4 1107/450/4 1105/448/6
f 1108/449/4 1110/223/192 1109/1/192 1107/450/4
f 1110/223/192 1112/451/193 1111/452/193 1109/1/192
f 1112/451/193 1114/453/194 1113/454/194 1111/452/193
f 1114/453/194 1116/455/195 1115/456/195 1113/454/194
f 1116/455/195 1118/457/196 1117/458/196 1115/456/195
f 1118/457/196 1120/459/197 1119/460/197 1117/458/196
f 1120/459/197 1122/461/198 1121/462/198 1119/460/197
f 1122/461/198 1124/463/199 1123/464/199 1121/462/198
f 1124/463/199 1126/465/200 1125/466/200 1123/464/199
f 1126/465/200 1128/467/201 1127/468/201 1125/466/200
f 1128/467/201 1130/469/202 1129/470/202 1127/468/201
f 1130/469/202 1132/471/203 1131/472/203 1129/470/202
f 1132/471/203 1134/473/204 1133/474/204 1131/472/203
f 1134/473/204 1136/226/205 1135/88/205 1133/474/204
f 1136/226/205 1138/475/206 1137/476/206 1135/88/205
f 1138/475/206 1140/477/207 1139/478/207 1137/476/206
f 1140/477/207 1142/479/208 1141/480/208 1139/478/207
f 1142/479/208 1144/481/209 1143/482/209 1141/480/208
f 1144/481/209 1146/483/210 1145/484/210 1143/482/209
f 1146/483/210 1148/485/211 1147/486/211 1145/484/210
f 1148/485/211 1150/487/212 1149/488/212 1147/486/211
f 1150/487/212 1152/489/213 1151/490/213 1149/488/212
f 1152/489/213 1154/491/214 1153/492/214 1151/490/213
f 1154/491/214 1156/493/215 1155/494/215 1153/492/214
f 1156/493/215 1158/495/144 1157/496/144 1155/494/215
f 1158/495/144 1160/497/216 1159/498/216 1157/496/144
f 1160/497/216 1162/229/217 1161/5/217 1159/498/216
f 1162/229/217 1164/499/218 1163/500/218 1161/5/217
f 1164/499/218 1166/501/219 1165/502/219 1163/500/218
f 1166/501/219 1168/503/220 1167/504/220 1165/502/219
f 1168/503/220 1170/505/221 1169/506/221 1167/504/220
f 1170/505/221 1172/507/222 1171/508/222 1169/506/221
f 1172/507/222 1174/509/223 1173/510/223 1171/508/222
f 1174/509/223 1176/511/224 1175/512/224 1173/510/223
f 1176/511/224 1178/513/225 1177/514/225 1175/512/224
f 1178/513/225 1180/515/226 1179/516/226 1177/514/225
f 1180/515/226 1182/517/227 1181/518/227 1179/516/226
f 1182/517/227 1184/519/228 1183/520/228 1181/518/227
f 1184/519/228 1186/521/229 1185/522/229 1183/520/228
f 1186/521/229 1188/231/230 1187/89/230 1185/522/229
f 1188/231/230 1190/523/231 1189/524/231 1187/89/230
f 1190/523/231 1192/525/232 1191/526/232 1189/524/231
f 1192/525/232 1194/527/233 1193/528/233 1191/526/232
f 1194/527/233 1196/529/234 1195/530/234 1193/528/233
f 1196/529/234 1198/531/235 1197/532/235 1195/530/234
f 1198/531/235 1200/533/236 1199/534/236 1197/532/235
f 1200/533/236 1202/535/237 1201/536/237 1199/534/236
f 1202/535/237 1204/537/238 1203/538/238 1201/536/237
f 1204/537/238 1206/539/239 1205/540/239 1203/538/238
f 1206/539/239 1208/541/6 1207/542/6 1205/540/239
f 1208/541/6 1210/543/4 1209/544/4 1207/542/6
f 1210/543/4 1212/545/240 1211/546/240 1209/544/4
f 1212/545/240 1058/234/168 1057/8/168 1211/546/240
f 1214/218/7 1216/235/8 1215/96/8 1213/10/7
f 1216/235/8 1218/236/3 1217/95/3 1215/96/8
f 1218/236/3 1220/237/5 1219/97/5 1217/95/3
f 1220/237/5 1222/238/6 1221/90/6 1219/97/5
f 1222/238/6 1224/226/9 1223/88/9 1221/90/6
f 1224/226/9 1226/239/10 1225/91/10 1223/88/9
f 1226/239/10 1228/240/6 1227/93/6 1225/91/10
f 1228/240/6 1230/241/4 1229/94/4 1227/93/6
f 1230/241/4 1232/242/3 1231/92/3 1229/94/4
f 1232/242/3 1214/234/7 1213/8/7 1231/92/3
