# Blender 4.4.3
# www.blender.org
mtllib model.mtl
o Cube
v 1.000000 1.000000 -1.000000
v 1.000000 -1.000000 -1.000000
v 1.000000 1.000000 1.000000
v 1.000000 -1.000000 1.000000
v -1.000000 1.000000 -1.000000
v -1.000000 -1.000000 -1.000000
v -1.000000 1.000000 1.000000
v -1.000000 -1.000000 1.000000
v 1.000000 2.000000 1.000000
v -1.000000 2.500000 0.500000
v 1.000000 2.000000 -1.000000
v -1.000000 2.500000 -0.500000
v 0.292893 1.000000 1.707107
v -1.000000 3.500000 0.500000
v -1.000000 3.500000 -0.500000
v -0.715729 2.500000 0.500000
v -0.715729 2.500000 -0.500000
v -0.715729 3.500000 0.500000
v -0.715729 3.500000 -0.500000
v 1.000000 3.800000 1.000000
v 0.800000 4.000000 0.800000
v 1.000000 3.800000 -1.000000
v 0.800000 4.000000 -0.800000
v -0.800000 4.000000 0.800000
v -0.800000 4.000000 -0.800000
v -0.800000 2.000000 1.000000
v -1.000000 2.200000 0.800000
v -1.000000 2.000000 0.800000
v -1.141421 2.000000 1.141421
v -0.941421 2.058579 0.941421
v -1.000000 2.200000 -0.800000
v -0.800000 2.000000 -1.000000
v -1.000000 1.800000 -1.000000
v -1.141421 2.000000 -0.858579
v -1.000000 2.000000 -0.800000
v -0.941421 2.058579 -0.941421
v -1.000000 3.680000 0.800000
v -0.800000 3.800000 1.000000
v -0.884530 3.915470 0.884530
v -1.000000 3.800000 0.800000
v -0.941421 3.764853 0.941421
v -0.800000 3.800000 -1.000000
v -1.000000 3.680000 -0.800000
v -1.000000 3.800000 -0.800000
v -0.884530 3.915470 -0.884530
v -0.941421 3.764853 -0.941421
v 0.592893 2.000000 1.407107
v 0.292893 1.700000 1.707107
v 0.500188 1.985317 1.499812
v 0.416558 1.942705 1.583442
v 0.350188 1.876336 1.649812
v 0.307576 1.792705 1.692424
v -1.707107 1.700000 1.707107
v -1.407107 2.000000 1.407107
v -1.707107 2.000000 1.407107
v -1.692424 1.792705 1.692424
v -1.649812 1.876336 1.649812
v -1.583442 1.942705 1.583442
v -1.499812 1.985317 1.499812
v -1.707107 2.000000 0.007107
v -1.494975 2.000000 -0.505025
v -1.707107 1.700000 -0.292893
v -1.690959 2.000000 -0.123846
v -1.644975 2.000000 -0.267157
v -1.707107 1.977164 -0.107698
v -1.687298 1.971986 -0.192899
v -1.661167 1.974768 -0.273864
v -1.671166 1.949171 -0.278006
v -1.576154 1.977164 -0.423846
v -1.644975 1.912132 -0.355025
v -1.576154 2.000000 -0.401010
v -1.622393 1.971986 -0.349593
v -1.661167 1.935031 -0.313601
v -1.707107 1.814805 -0.270057
v -1.707107 1.912132 -0.205025
v -1.690959 1.814805 -0.309041
v -1.687298 1.880196 -0.284688
v -1.689265 1.935031 -0.245766
v -1.707107 1.200000 1.707107
v -1.507107 1.000000 1.507107
v -1.507107 1.000000 1.707107
v -1.700292 1.148236 1.700292
v -1.680312 1.100000 1.680312
v -1.648528 1.058579 1.648528
v -1.607107 1.026795 1.607107
v -1.558871 1.006815 1.558871
v -1.507107 1.000000 -0.492893
v -1.707107 1.200000 -0.292893
v -1.558871 1.006815 -0.441130
v -1.607107 1.026795 -0.392893
v -1.648528 1.058579 -0.351472
v -1.680312 1.100000 -0.319688
v -1.700292 1.148236 -0.299708
v 1.000000 0.333333 -1.000000
v 1.000000 -0.333333 -1.000000
v -1.000000 -0.333333 1.000000
v -1.000000 0.333333 1.000000
v 1.000000 0.333333 1.000000
v 1.000000 -0.333333 1.000000
v -1.000000 0.333333 -1.000000
v -1.000000 -0.333333 -1.000000
v 0.717157 0.333333 -0.717157
v 0.717157 -0.333333 -0.717157
v -0.717157 -0.333333 0.717157
v -0.717157 0.333333 0.717157
v 0.717157 0.333333 0.717157
v 0.717157 -0.333333 0.717157
v -0.717157 0.333333 -0.717157
v -0.717157 -0.333333 -0.717157
v 0.236967 3.435521 1.000000
v 0.133970 3.001414 1.000000
v 0.341464 3.069844 1.000000
v 0.049101 2.488388 1.000000
v 0.145361 2.877090 1.000000
v -0.029010 2.821475 1.000000
v 0.057014 3.405488 1.000000
v 0.236967 3.435521 1.108593
v 0.133970 3.001414 1.108593
v 0.341464 3.069844 1.108593
v 0.049101 2.488388 1.108593
v 0.145361 2.877090 1.108593
v -0.029010 2.821475 1.108593
v 0.057014 3.405488 1.108593
vn -1.0000 -0.0000 -0.0000
vn -0.0000 -0.0000 1.0000
vn -0.0000 -1.0000 -0.0000
vn 1.0000 -0.0000 -0.0000
vn -0.0000 -0.0000 -1.0000
vn -0.7071 0.7071 -0.0000
vn -0.0000 1.0000 -0.0000
vn 0.7071 -0.0000 0.7071
vn -0.0000 0.7071 -0.7071
vn 0.7071 0.7071 -0.0000
vn -0.0000 0.7071 0.7071
vn -0.4326 0.8652 0.2534
vn -0.5441 0.4121 -0.7308
vn -0.7341 0.3547 0.5791
vn -0.7341 0.3547 -0.5791
vn -0.9239 -0.0000 0.3827
vn -0.3827 -0.0000 0.9239
vn -0.9239 -0.0000 -0.3827
vn -0.3827 -0.0000 -0.9239
vn -0.9664 0.1819 0.1819
vn -0.6786 0.5772 0.4543
vn -0.3217 0.8108 0.4890
vn -0.1002 0.9235 0.3703
vn -0.0000 0.9877 0.1564
vn -0.0000 0.8910 0.4540
vn -0.0000 0.4540 0.8910
vn -0.0000 0.1564 0.9877
vn -0.8548 0.4955 -0.1541
vn -0.8002 0.5448 -0.2506
vn -0.9109 0.3468 -0.2235
vn -0.8659 0.4172 -0.2760
vn -0.7134 0.4955 -0.4955
vn -0.8022 0.3468 -0.4861
vn -0.7430 0.5448 -0.3887
vn -0.8074 0.4172 -0.4172
vn -0.9174 0.1182 -0.3800
vn -0.9288 0.2008 -0.3114
vn -0.8770 0.2008 -0.4365
vn -0.8956 0.2454 -0.3710
vn -0.7071 -0.0000 -0.7071
vn -0.1482 -0.1482 0.9778
vn -0.4014 -0.4875 0.7754
vn -0.4959 -0.7352 0.4621
vn -0.4488 -0.8670 0.2165
vn -0.3220 -0.9442 0.0691
vn -0.1305 -0.9914 -0.0000
vn -0.9914 -0.1305 -0.0000
vn -0.9239 -0.3827 -0.0000
vn -0.7934 -0.6088 -0.0000
vn -0.6088 -0.7934 -0.0000
vn -0.3827 -0.9239 -0.0000
vn -0.3132 0.9497 -0.0000
vn -0.1646 0.9864 -0.0000
vn 0.3039 -0.9527 -0.0000
vn 0.8934 -0.4492 -0.0000
vn 0.9730 -0.2309 -0.0000
vn -0.9893 0.1457 -0.0000
vn -0.9707 0.2404 -0.0000
vt 0.875000 0.562500
vt 0.875000 0.525000
vt 0.541667 0.750000
vt 0.625000 0.750000
vt 0.625000 1.000000
vt 0.541667 1.000000
vt 0.541667 0.000000
vt 0.625000 0.000000
vt 0.625000 0.250000
vt 0.541667 0.250000
vt 0.125000 0.500000
vt 0.375000 0.500000
vt 0.375000 0.750000
vt 0.125000 0.750000
vt 0.541667 0.500000
vt 0.625000 0.500000
vt 0.850000 0.725000
vt 0.850000 0.525000
vt 0.860566 0.514434
vt 0.875000 0.525000
vt 0.875000 0.725000
vt 0.860566 0.735566
vt 0.875000 0.750000
vt 0.875000 0.725000
vt 0.875000 0.500000
vt 0.875000 0.502855
vt 0.875000 0.510983
vt 0.875000 0.523149
vt 0.875000 0.537500
vt 0.875000 0.712500
vt 0.625000 0.750000
vt 0.625000 0.037500
vt 0.625000 0.212500
vt 0.625000 0.226851
vt 0.625000 0.239017
vt 0.625000 0.247145
vt 0.625000 0.975000
vt 0.875000 0.687500
vt 0.875000 0.525000
vt 0.875000 0.725000
vt 0.875000 0.725000
vt 0.875000 0.687500
vt 0.650000 0.525000
vt 0.650000 0.725000
vt 0.850000 0.500000
vt 0.860566 0.514434
vt 0.625000 0.275000
vt 0.625000 0.275000
vt 0.875000 0.525000
vt 0.875000 0.525000
vt 0.860566 0.735566
vt 0.850000 0.750000
vt 0.867678 0.750000
vt 0.875000 0.742678
vt 0.625000 0.257322
vt 0.625000 0.264434
vt 0.850000 0.750000
vt 0.707317 0.750000
vt 0.743862 0.750000
vt 0.731830 0.750000
vt 0.753626 0.750000
vt 0.625000 0.998165
vt 0.625000 0.984542
vt 0.625000 0.974088
vt 0.625000 0.962500
vt 0.859542 0.750000
vt 0.625000 0.992838
vt 0.625000 0.742838
vt 0.625000 0.748165
vt 0.875000 0.512499
vt 0.875000 0.508121
vt 0.875000 0.514975
vt 0.750000 0.376115
vt 0.875000 0.510983
vt 0.708333 0.333954
vt 0.625000 0.250000
vt 0.625000 0.250000
vt 0.625000 0.250000
vt 0.625000 0.248974
vt 0.625000 0.252018
vt 0.625000 0.252588
vt 0.625000 0.257767
vt 0.625000 0.252233
vt 0.625000 0.250568
vt 0.625000 0.000852
vt 0.625000 0.003349
vt 0.625000 0.007322
vt 0.375000 0.250000
vt 0.458333 0.250000
vt 0.458333 0.500000
vt 0.458333 0.750000
vt 0.375000 0.000000
vt 0.458333 0.000000
vt 0.458333 1.000000
vt 0.375000 1.000000
vt 0.733254 0.750000
vt 0.720379 0.750000
vt 0.742873 0.750000
s 0
usemtl Material
f 12/1/1 15/1/1 43/2/1 31/2/1
f 98/3/2 3/4/2 7/5/2 97/6/2
f 97/7/1 7/8/1 5/9/1 100/10/1
f 6/11/3 2/12/3 4/13/3 8/14/3
f 94/15/4 1/16/4 3/4/4 98/3/4
f 100/10/5 5/9/5 1/16/5 94/15/5
f 24/17/6 25/18/6 45/19/6 44/20/6 40/21/6 39/22/6
f 3/4/4 1/16/4 11/16/4 9/4/4
f 29/23/7 28/24/7 35/2/7 34/25/7 61/25/7 71/26/7 64/27/7 63/28/7 60/29/7 55/30/7 54/23/7
f 3/4/8 9/4/8 47/4/8 49/31/8 50/4/8 51/4/8 52/4/8 48/4/8 13/4/8
f 88/9/1 79/8/1 53/8/1 55/32/1 60/33/1 65/34/1 75/35/1 74/36/1 62/9/1
f 7/5/3 3/4/3 13/4/3 81/37/3 80/5/3
f 5/9/3 7/8/3 80/8/3 87/9/3
f 10/38/1 12/1/1 31/2/1 35/39/1 28/40/1 27/41/1
f 9/4/4 11/16/4 22/16/4 20/4/4
f 10/38/5 14/42/5 18/42/5 16/38/5
f 23/43/7 25/18/7 24/17/7 21/44/7
f 25/18/9 23/43/9 22/16/9 42/45/9 45/46/9
f 14/42/1 10/38/1 27/41/1 37/41/1
f 1/16/5 5/9/5 33/9/5 32/47/5 11/16/5
f 11/16/5 32/48/5 42/47/5 22/16/5
f 17/1/1 16/38/1 18/42/1 19/1/1
f 12/1/7 10/38/7 16/38/7 17/1/7
f 15/1/2 12/1/2 17/1/2 19/1/2
f 14/42/3 15/1/3 19/1/3 18/42/3
f 15/1/1 14/42/1 37/41/1 40/41/1 44/49/1 43/50/1
f 23/43/10 21/44/10 20/4/10 22/16/10
f 21/44/11 24/17/11 39/51/11 38/52/11 20/4/11
f 26/52/12 30/53/12 27/23/12 28/40/12 29/23/12
f 31/9/13 36/9/13 32/9/13 33/9/13 34/9/13 35/9/13
f 37/41/14 41/54/14 38/23/14 39/51/14 40/21/14
f 42/47/15 46/55/15 43/9/15 44/9/15 45/56/15
f 37/41/16 27/41/16 30/23/16 41/23/16
f 41/23/17 30/23/17 26/52/17 38/57/17
f 31/2/18 43/2/18 46/25/18 36/25/18
f 36/9/19 46/9/19 42/47/19 32/48/19
f 26/52/2 9/4/2 20/4/2 112/58/2 113/59/2 114/60/2 115/61/2
f 53/5/20 56/62/20 55/5/20
f 56/62/21 57/5/21 55/5/21
f 57/5/22 58/63/22 55/5/22
f 58/63/23 59/64/23 55/5/23
f 59/64/24 54/65/24 55/5/24
f 47/4/24 54/23/24 59/23/24 49/4/24
f 49/4/25 59/23/25 58/66/25 50/4/25
f 50/4/11 58/63/11 57/67/11 51/68/11
f 51/68/26 57/67/26 56/62/26 52/69/26
f 52/69/27 56/62/27 53/5/27 48/4/27
f 9/4/7 26/57/7 29/23/7 54/23/7 47/4/7
f 60/29/28 63/28/28 66/70/28 65/28/28
f 63/28/29 64/27/29 67/71/29 66/72/29
f 65/28/30 66/72/30 78/73/30 75/74/30
f 66/70/31 67/71/31 68/75/31 78/73/31
f 61/9/32 69/9/32 72/9/32 71/9/32
f 69/9/33 70/76/33 73/9/33 72/77/33
f 71/9/34 72/77/34 67/78/34 64/9/34
f 72/9/35 73/9/35 68/75/35 67/78/35
f 62/9/36 74/36/36 77/9/36 76/9/36
f 74/36/37 75/35/37 78/73/37 77/79/37
f 76/80/38 77/79/38 73/81/38 70/82/38
f 77/9/39 78/73/39 68/75/39 73/9/39
f 34/9/40 33/9/40 5/9/40 87/9/40 89/9/40 90/9/40 91/9/40 92/83/40 93/84/40 88/9/40 62/9/40 76/9/40 70/76/40 69/9/40 61/9/40
f 79/5/41 82/5/41 81/37/41
f 82/5/42 83/5/42 81/37/42
f 83/5/43 84/5/43 81/37/43
f 84/5/44 85/5/44 81/37/44
f 85/5/45 86/5/45 81/37/45
f 86/5/46 80/5/46 81/37/46
f 79/8/47 88/9/47 93/84/47 82/85/47
f 82/85/48 93/84/48 92/83/48 83/86/48
f 83/86/49 92/83/49 91/9/49 84/87/49
f 84/87/50 91/9/50 90/9/50 85/8/50
f 85/8/51 90/9/51 89/9/51 86/8/51
f 86/8/46 89/9/46 87/9/46 80/8/46
f 79/5/2 81/37/2 13/4/2 48/4/2 53/5/2
f 6/88/5 101/89/5 95/90/5 2/12/5
f 100/10/3 94/15/3 102/15/3 108/10/3
f 2/12/4 95/90/4 99/91/4 4/13/4
f 94/15/3 98/3/3 106/3/3 102/15/3
f 8/92/1 96/93/1 101/89/1 6/88/1
f 97/7/3 100/10/3 108/10/3 105/7/3
f 4/13/2 99/91/2 96/94/2 8/95/2
f 98/3/3 97/6/3 105/6/3 106/3/3
f 109/89/5 108/10/5 102/15/5 103/90/5
f 103/90/4 102/15/4 106/3/4 107/91/4
f 104/93/1 105/7/1 108/10/1 109/89/1
f 107/91/2 106/3/2 105/6/2 104/94/2
f 96/94/7 99/91/7 107/91/7 104/94/7
f 101/89/7 96/93/7 104/93/7 109/89/7
f 99/91/7 95/90/7 103/90/7 107/91/7
f 95/90/7 101/89/7 109/89/7 103/90/7
f 122/61/2 121/60/2 120/59/2 119/58/2 118/96/2 117/97/2 123/98/2
f 112/58/52 111/96/52 118/96/52 119/58/52
f 116/98/2 110/97/2 111/96/2 112/58/2 20/4/2 38/57/2 26/52/2 115/61/2
f 110/97/53 116/98/53 123/98/53 117/97/53
f 115/61/54 114/60/54 121/60/54 122/61/54
f 113/59/55 112/58/55 119/58/55 120/59/55
f 111/96/56 110/97/56 117/97/56 118/96/56
f 116/98/57 115/61/57 122/61/57 123/98/57
f 114/60/58 113/59/58 120/59/58 121/60/58
